<?xml version="1.0" encoding="utf-8" standalone="no"?>
<!DOCTYPE svg PUBLIC "-//W3C//DTD SVG 1.1//EN"
  "http://www.w3.org/Graphics/SVG/1.1/DTD/svg11.dtd">
<!-- Created with matplotlib (https://matplotlib.org/) -->
<svg height="345.6pt" version="1.1" viewBox="0 0 460.8 345.6" width="460.8pt" xmlns="http://www.w3.org/2000/svg" xmlns:xlink="http://www.w3.org/1999/xlink">
 <metadata>
  <rdf:RDF xmlns:cc="http://creativecommons.org/ns#" xmlns:dc="http://purl.org/dc/elements/1.1/" xmlns:rdf="http://www.w3.org/1999/02/22-rdf-syntax-ns#">
   <cc:Work>
    <dc:type rdf:resource="http://purl.org/dc/dcmitype/StillImage"/>
    <dc:date>2021-07-19T20:20:20.188061</dc:date>
    <dc:format>image/svg+xml</dc:format>
    <dc:creator>
     <cc:Agent>
      <dc:title>Matplotlib v3.3.4, https://matplotlib.org/</dc:title>
     </cc:Agent>
    </dc:creator>
   </cc:Work>
  </rdf:RDF>
 </metadata>
 <defs>
  <style type="text/css">*{stroke-linecap:butt;stroke-linejoin:round;}</style>
 </defs>
 <g id="figure_1">
  <g id="patch_1">
   <path d="M 0 345.6 
L 460.8 345.6 
L 460.8 0 
L 0 0 
z
" style="fill:#ffffff;"/>
  </g>
  <g id="axes_1">
   <g id="patch_2">
    <path d="M 57.6 307.584 
L 414.72 307.584 
L 414.72 41.472 
L 57.6 41.472 
z
" style="fill:#ffffff;"/>
   </g>
   <g id="matplotlib.axis_1">
    <g id="xtick_1">
     <g id="line2d_1">
      <defs>
       <path d="M 0 0 
L 0 3.5 
" id="m1270eafcde" style="stroke:#000000;stroke-width:0.8;"/>
      </defs>
      <g>
       <use style="stroke:#000000;stroke-width:0.8;" x="117.545301" xlink:href="#m1270eafcde" y="307.584"/>
      </g>
     </g>
     <g id="text_1">
      <!-- 10 -->
      <g transform="translate(111.182801 322.182437)scale(0.1 -0.1)">
       <defs>
        <path d="M 12.40625 8.296875 
L 28.515625 8.296875 
L 28.515625 63.921875 
L 10.984375 60.40625 
L 10.984375 69.390625 
L 28.421875 72.90625 
L 38.28125 72.90625 
L 38.28125 8.296875 
L 54.390625 8.296875 
L 54.390625 0 
L 12.40625 0 
z
" id="DejaVuSans-49"/>
        <path d="M 31.78125 66.40625 
Q 24.171875 66.40625 20.328125 58.90625 
Q 16.5 51.421875 16.5 36.375 
Q 16.5 21.390625 20.328125 13.890625 
Q 24.171875 6.390625 31.78125 6.390625 
Q 39.453125 6.390625 43.28125 13.890625 
Q 47.125 21.390625 47.125 36.375 
Q 47.125 51.421875 43.28125 58.90625 
Q 39.453125 66.40625 31.78125 66.40625 
z
M 31.78125 74.21875 
Q 44.046875 74.21875 50.515625 64.515625 
Q 56.984375 54.828125 56.984375 36.375 
Q 56.984375 17.96875 50.515625 8.265625 
Q 44.046875 -1.421875 31.78125 -1.421875 
Q 19.53125 -1.421875 13.0625 8.265625 
Q 6.59375 17.96875 6.59375 36.375 
Q 6.59375 54.828125 13.0625 64.515625 
Q 19.53125 74.21875 31.78125 74.21875 
z
" id="DejaVuSans-48"/>
       </defs>
       <use xlink:href="#DejaVuSans-49"/>
       <use x="63.623047" xlink:href="#DejaVuSans-48"/>
      </g>
     </g>
    </g>
    <g id="xtick_2">
     <g id="line2d_2">
      <g>
       <use style="stroke:#000000;stroke-width:0.8;" x="188.40302" xlink:href="#m1270eafcde" y="307.584"/>
      </g>
     </g>
     <g id="text_2">
      <!-- 20 -->
      <g transform="translate(182.04052 322.182437)scale(0.1 -0.1)">
       <defs>
        <path d="M 19.1875 8.296875 
L 53.609375 8.296875 
L 53.609375 0 
L 7.328125 0 
L 7.328125 8.296875 
Q 12.9375 14.109375 22.625 23.890625 
Q 32.328125 33.6875 34.8125 36.53125 
Q 39.546875 41.84375 41.421875 45.53125 
Q 43.3125 49.21875 43.3125 52.78125 
Q 43.3125 58.59375 39.234375 62.25 
Q 35.15625 65.921875 28.609375 65.921875 
Q 23.96875 65.921875 18.8125 64.3125 
Q 13.671875 62.703125 7.8125 59.421875 
L 7.8125 69.390625 
Q 13.765625 71.78125 18.9375 73 
Q 24.125 74.21875 28.421875 74.21875 
Q 39.75 74.21875 46.484375 68.546875 
Q 53.21875 62.890625 53.21875 53.421875 
Q 53.21875 48.921875 51.53125 44.890625 
Q 49.859375 40.875 45.40625 35.40625 
Q 44.1875 33.984375 37.640625 27.21875 
Q 31.109375 20.453125 19.1875 8.296875 
z
" id="DejaVuSans-50"/>
       </defs>
       <use xlink:href="#DejaVuSans-50"/>
       <use x="63.623047" xlink:href="#DejaVuSans-48"/>
      </g>
     </g>
    </g>
    <g id="xtick_3">
     <g id="line2d_3">
      <g>
       <use style="stroke:#000000;stroke-width:0.8;" x="259.260738" xlink:href="#m1270eafcde" y="307.584"/>
      </g>
     </g>
     <g id="text_3">
      <!-- 30 -->
      <g transform="translate(252.898238 322.182437)scale(0.1 -0.1)">
       <defs>
        <path d="M 40.578125 39.3125 
Q 47.65625 37.796875 51.625 33 
Q 55.609375 28.21875 55.609375 21.1875 
Q 55.609375 10.40625 48.1875 4.484375 
Q 40.765625 -1.421875 27.09375 -1.421875 
Q 22.515625 -1.421875 17.65625 -0.515625 
Q 12.796875 0.390625 7.625 2.203125 
L 7.625 11.71875 
Q 11.71875 9.328125 16.59375 8.109375 
Q 21.484375 6.890625 26.8125 6.890625 
Q 36.078125 6.890625 40.9375 10.546875 
Q 45.796875 14.203125 45.796875 21.1875 
Q 45.796875 27.640625 41.28125 31.265625 
Q 36.765625 34.90625 28.71875 34.90625 
L 20.21875 34.90625 
L 20.21875 43.015625 
L 29.109375 43.015625 
Q 36.375 43.015625 40.234375 45.921875 
Q 44.09375 48.828125 44.09375 54.296875 
Q 44.09375 59.90625 40.109375 62.90625 
Q 36.140625 65.921875 28.71875 65.921875 
Q 24.65625 65.921875 20.015625 65.03125 
Q 15.375 64.15625 9.8125 62.3125 
L 9.8125 71.09375 
Q 15.4375 72.65625 20.34375 73.4375 
Q 25.25 74.21875 29.59375 74.21875 
Q 40.828125 74.21875 47.359375 69.109375 
Q 53.90625 64.015625 53.90625 55.328125 
Q 53.90625 49.265625 50.4375 45.09375 
Q 46.96875 40.921875 40.578125 39.3125 
z
" id="DejaVuSans-51"/>
       </defs>
       <use xlink:href="#DejaVuSans-51"/>
       <use x="63.623047" xlink:href="#DejaVuSans-48"/>
      </g>
     </g>
    </g>
    <g id="xtick_4">
     <g id="line2d_4">
      <g>
       <use style="stroke:#000000;stroke-width:0.8;" x="330.118456" xlink:href="#m1270eafcde" y="307.584"/>
      </g>
     </g>
     <g id="text_4">
      <!-- 40 -->
      <g transform="translate(323.755956 322.182437)scale(0.1 -0.1)">
       <defs>
        <path d="M 37.796875 64.3125 
L 12.890625 25.390625 
L 37.796875 25.390625 
z
M 35.203125 72.90625 
L 47.609375 72.90625 
L 47.609375 25.390625 
L 58.015625 25.390625 
L 58.015625 17.1875 
L 47.609375 17.1875 
L 47.609375 0 
L 37.796875 0 
L 37.796875 17.1875 
L 4.890625 17.1875 
L 4.890625 26.703125 
z
" id="DejaVuSans-52"/>
       </defs>
       <use xlink:href="#DejaVuSans-52"/>
       <use x="63.623047" xlink:href="#DejaVuSans-48"/>
      </g>
     </g>
    </g>
    <g id="xtick_5">
     <g id="line2d_5">
      <g>
       <use style="stroke:#000000;stroke-width:0.8;" x="400.976175" xlink:href="#m1270eafcde" y="307.584"/>
      </g>
     </g>
     <g id="text_5">
      <!-- 50 -->
      <g transform="translate(394.613675 322.182437)scale(0.1 -0.1)">
       <defs>
        <path d="M 10.796875 72.90625 
L 49.515625 72.90625 
L 49.515625 64.59375 
L 19.828125 64.59375 
L 19.828125 46.734375 
Q 21.96875 47.46875 24.109375 47.828125 
Q 26.265625 48.1875 28.421875 48.1875 
Q 40.625 48.1875 47.75 41.5 
Q 54.890625 34.8125 54.890625 23.390625 
Q 54.890625 11.625 47.5625 5.09375 
Q 40.234375 -1.421875 26.90625 -1.421875 
Q 22.3125 -1.421875 17.546875 -0.640625 
Q 12.796875 0.140625 7.71875 1.703125 
L 7.71875 11.625 
Q 12.109375 9.234375 16.796875 8.0625 
Q 21.484375 6.890625 26.703125 6.890625 
Q 35.15625 6.890625 40.078125 11.328125 
Q 45.015625 15.765625 45.015625 23.390625 
Q 45.015625 31 40.078125 35.4375 
Q 35.15625 39.890625 26.703125 39.890625 
Q 22.75 39.890625 18.8125 39.015625 
Q 14.890625 38.140625 10.796875 36.28125 
z
" id="DejaVuSans-53"/>
       </defs>
       <use xlink:href="#DejaVuSans-53"/>
       <use x="63.623047" xlink:href="#DejaVuSans-48"/>
      </g>
     </g>
    </g>
   </g>
   <g id="matplotlib.axis_2">
    <g id="ytick_1">
     <g id="line2d_6">
      <defs>
       <path d="M 0 0 
L -3.5 0 
" id="m5171619e76" style="stroke:#000000;stroke-width:0.8;"/>
      </defs>
      <g>
       <use style="stroke:#000000;stroke-width:0.8;" x="57.6" xlink:href="#m5171619e76" y="289.530397"/>
      </g>
     </g>
     <g id="text_6">
      <!-- 5 -->
      <g transform="translate(44.2375 293.329615)scale(0.1 -0.1)">
       <use xlink:href="#DejaVuSans-53"/>
      </g>
     </g>
    </g>
    <g id="ytick_2">
     <g id="line2d_7">
      <g>
       <use style="stroke:#000000;stroke-width:0.8;" x="57.6" xlink:href="#m5171619e76" y="257.620308"/>
      </g>
     </g>
     <g id="text_7">
      <!-- 10 -->
      <g transform="translate(37.875 261.419527)scale(0.1 -0.1)">
       <use xlink:href="#DejaVuSans-49"/>
       <use x="63.623047" xlink:href="#DejaVuSans-48"/>
      </g>
     </g>
    </g>
    <g id="ytick_3">
     <g id="line2d_8">
      <g>
       <use style="stroke:#000000;stroke-width:0.8;" x="57.6" xlink:href="#m5171619e76" y="225.71022"/>
      </g>
     </g>
     <g id="text_8">
      <!-- 15 -->
      <g transform="translate(37.875 229.509439)scale(0.1 -0.1)">
       <use xlink:href="#DejaVuSans-49"/>
       <use x="63.623047" xlink:href="#DejaVuSans-53"/>
      </g>
     </g>
    </g>
    <g id="ytick_4">
     <g id="line2d_9">
      <g>
       <use style="stroke:#000000;stroke-width:0.8;" x="57.6" xlink:href="#m5171619e76" y="193.800132"/>
      </g>
     </g>
     <g id="text_9">
      <!-- 20 -->
      <g transform="translate(37.875 197.599351)scale(0.1 -0.1)">
       <use xlink:href="#DejaVuSans-50"/>
       <use x="63.623047" xlink:href="#DejaVuSans-48"/>
      </g>
     </g>
    </g>
    <g id="ytick_5">
     <g id="line2d_10">
      <g>
       <use style="stroke:#000000;stroke-width:0.8;" x="57.6" xlink:href="#m5171619e76" y="161.890044"/>
      </g>
     </g>
     <g id="text_10">
      <!-- 25 -->
      <g transform="translate(37.875 165.689263)scale(0.1 -0.1)">
       <use xlink:href="#DejaVuSans-50"/>
       <use x="63.623047" xlink:href="#DejaVuSans-53"/>
      </g>
     </g>
    </g>
    <g id="ytick_6">
     <g id="line2d_11">
      <g>
       <use style="stroke:#000000;stroke-width:0.8;" x="57.6" xlink:href="#m5171619e76" y="129.979956"/>
      </g>
     </g>
     <g id="text_11">
      <!-- 30 -->
      <g transform="translate(37.875 133.779175)scale(0.1 -0.1)">
       <use xlink:href="#DejaVuSans-51"/>
       <use x="63.623047" xlink:href="#DejaVuSans-48"/>
      </g>
     </g>
    </g>
    <g id="ytick_7">
     <g id="line2d_12">
      <g>
       <use style="stroke:#000000;stroke-width:0.8;" x="57.6" xlink:href="#m5171619e76" y="98.069868"/>
      </g>
     </g>
     <g id="text_12">
      <!-- 35 -->
      <g transform="translate(37.875 101.869087)scale(0.1 -0.1)">
       <use xlink:href="#DejaVuSans-51"/>
       <use x="63.623047" xlink:href="#DejaVuSans-53"/>
      </g>
     </g>
    </g>
    <g id="ytick_8">
     <g id="line2d_13">
      <g>
       <use style="stroke:#000000;stroke-width:0.8;" x="57.6" xlink:href="#m5171619e76" y="66.15978"/>
      </g>
     </g>
     <g id="text_13">
      <!-- 40 -->
      <g transform="translate(37.875 69.958999)scale(0.1 -0.1)">
       <use xlink:href="#DejaVuSans-52"/>
       <use x="63.623047" xlink:href="#DejaVuSans-48"/>
      </g>
     </g>
    </g>
   </g>
   <g id="line2d_14">
    <path clip-path="url(#pc4eb8aa27f)" d="M 73.832727 53.568 
L 74.305112 62.088447 
L 74.777497 73.869977 
L 75.249882 91.978562 
L 75.722266 97.451517 
L 77.058372 122.668121 
L 78.475527 159.461263 
L 78.573556 171.260455 
L 78.946204 173.71069 
L 78.947912 183.024493 
L 79.420296 183.067193 
L 82.092508 231.8615 
L 82.116442 242.781054 
L 82.760561 243.155287 
L 84.569052 268.6429 
L 85.041437 270.125626 
L 85.513822 271.148342 
L 85.659328 271.781226 
L 86.458591 272.092772 
L 86.930976 272.137083 
L 87.403361 271.922347 
L 87.803419 271.451904 
L 87.875745 270.858695 
L 88.34813 270.732868 
L 88.820515 269.775619 
L 89.202214 268.593099 
L 89.2929 267.483073 
L 90.083893 267.20004 
L 92.7451 264.439375 
L 93.544363 228.485914 
L 96.287986 217.687705 
L 96.660634 214.706783 
L 99.830872 213.860898 
L 101.650345 177.142946 
L 102.401578 146.213019 
L 103.373758 148.730176 
L 105.416961 152.268544 
L 105.517849 161.129834 
L 106.916644 161.454765 
L 110.45953 163.142402 
L 111.258792 174.392644 
L 114.002416 178.28747 
L 114.375063 186.747925 
L 117.492499 186.76168 
L 117.545301 156.476166 
L 120.116007 156.638694 
L 121.088187 167.250528 
L 123.477299 171.790976 
L 124.631073 186.153716 
L 124.700053 190.235128 
L 125.164338 190.516943 
L 128.173959 192.000696 
L 128.973222 189.332793 
L 130.707364 187.970458 
L 131.716845 200.607419 
L 135.259731 200.487596 
L 137.830437 195.157051 
L 138.802617 187.598736 
L 141.446808 193.4256 
L 142.263185 212.059385 
L 142.345503 216.498463 
L 144.147479 216.940332 
L 145.39985 227.820535 
L 145.888389 234.214404 
L 146.263105 236.424302 
L 147.174401 240.069758 
L 149.431275 242.163936 
L 152.974161 237.398313 
L 155.544866 219.34683 
L 156.517047 201.47563 
L 160.059932 204.764021 
L 162.113289 219.034029 
L 163.602818 226.862176 
L 164.402081 229.135999 
L 167.145704 230.855293 
L 167.326933 236.483373 
L 168.273878 237.385849 
L 169.691033 227.382198 
L 170.635802 221.621163 
L 170.68859 219.016489 
L 171.108187 218.736192 
L 173.470111 207.87673 
L 173.942496 207.217571 
L 174.414881 205.128513 
L 174.887265 204.695547 
L 175.832035 202.806192 
L 176.972473 201.103349 
L 177.444857 199.089363 
L 177.917242 196.342955 
L 178.389627 196.063837 
L 178.862012 196.223891 
L 179.334397 196.82788 
L 180.474834 199.505347 
L 180.947219 202.735015 
L 181.317248 202.014764 
L 181.419604 203.067864 
L 181.891989 203.346111 
L 182.116511 204.554738 
L 184.860134 205.084648 
L 186.428735 209.048757 
L 186.794063 209.093102 
L 188.40302 208.095119 
L 190.973726 206.866536 
L 191.945906 201.593656 
L 194.041704 197.744264 
L 194.416736 195.386086 
L 195.488792 193.965563 
L 199.031677 193.834452 
L 199.83094 188.523432 
L 202.014457 186.596782 
L 202.574563 187.883151 
L 202.786986 187.743018 
L 204.143165 187.766036 
L 204.883501 186.957722 
L 206.117449 187.337298 
L 208.688155 186.656035 
L 226.999085 67.432586 
L 227.374765 83.962098 
L 227.47147 93.13332 
L 227.943855 95.49025 
L 228.416239 106.987018 
L 229.084292 118.448134 
L 230.420398 149.944998 
L 230.917651 177.149815 
L 231.560836 177.73454 
L 234.233048 239.225473 
L 234.460537 254.305517 
L 234.901101 259.360841 
L 235.569154 269.002228 
L 236.237207 283.002807 
L 236.709592 295.488 
L 237.654361 294.360044 
L 238.003423 293.636135 
L 238.126746 293.035728 
L 238.599131 292.811613 
L 239.267184 291.838915 
L 239.572024 291.819932 
L 239.739569 287.821092 
L 240.211953 285.611731 
L 240.602923 279.351503 
L 240.880006 279.115303 
L 241.352391 275.794286 
L 241.546308 269.706255 
L 245.089194 267.088451 
L 245.785473 219.242362 
L 248.429239 209.837315 
L 248.63208 206.831307 
L 249.929534 206.132609 
L 250.623333 202.55787 
L 252.174966 200.207617 
L 254.642688 182.392575 
L 255.717852 147.934514 
L 257.286454 155.714291 
L 259.260738 168.243755 
L 260.105333 182.060747 
L 261.129181 188.794179 
L 261.491497 188.364286 
L 262.803624 188.085506 
L 263.499903 187.532011 
L 266.143668 186.952463 
L 266.34651 153.169926 
L 269.889396 154.572604 
L 270.034253 183.199185 
L 272.357117 184.512068 
L 273.432282 153.26452 
L 275.000883 161.157967 
L 276.975168 173.905468 
L 280.518054 146.723268 
L 281.214332 95.49905 
L 283.858098 85.656692 
L 284.060939 110.900301 
L 287.603825 112.880118 
L 290.071547 148.360156 
L 291.146711 171.237594 
L 292.715313 155.654174 
L 294.689597 132.860587 
L 298.232483 150.402845 
L 298.928762 180.474058 
L 301.572528 185.397088 
L 301.775369 145.332553 
L 305.318255 146.906699 
L 307.785976 174.462656 
L 308.861141 190.297749 
L 310.429742 196.472612 
L 312.404027 205.616436 
L 315.946913 173.246017 
L 316.643191 120.797095 
L 319.286957 111.50368 
L 319.489799 133.101589 
L 323.032685 130.076695 
L 324.048398 76.621361 
L 326.197584 54.558932 
L 326.669969 81.092529 
L 327.142353 83.410692 
L 327.614738 95.00117 
L 328.282791 106.571132 
L 328.950844 122.453494 
L 329.423229 138.259674 
L 330.091282 149.884959 
L 330.118456 165.650815 
L 330.563667 166.321687 
L 331.23172 177.300255 
L 332.567826 208.55673 
L 332.905613 223.897888 
L 333.903932 248.344875 
L 334.571985 253.603335 
L 336.380475 292.018673 
L 336.85286 291.850084 
L 337.204228 291.431414 
L 337.325245 291.015126 
L 337.79763 290.854113 
L 339.214784 288.642334 
L 340.159554 286.834958 
L 340.526305 285.779198 
L 340.747114 283.382404 
L 341.762827 281.826384 
L 344.29 268.104064 
L 345.343984 233.961635 
L 347.832886 219.722134 
L 350.620042 217.080531 
L 351.375772 208.597173 
L 354.201199 197.094888 
L 354.918658 149.569657 
L 358.461544 152.162923 
L 359.477257 170.236629 
L 362.00443 176.887266 
L 363.058414 189.551647 
L 365.547316 186.6573 
L 368.334472 154.547492 
L 369.090201 111.746201 
L 371.915628 116.605476 
L 372.633087 137.665133 
L 376.175973 143.076182 
L 377.140203 173.623091 
L 377.191687 182.664921 
L 379.068286 182.85234 
L 379.806494 193.745114 
L 380.772843 194.112644 
L 381.475569 193.546811 
L 383.261745 196.524629 
L 386.048901 195.086598 
L 386.804631 189.829204 
L 388.460432 194.024394 
L 390.347517 211.193651 
L 390.353748 215.003033 
L 390.763894 215.03801 
L 393.890403 217.090564 
L 394.906116 175.792969 
L 397.433289 160.795599 
L 398.487273 181.867015 
L 398.487273 181.867015 
" style="fill:none;stroke:#1f77b4;stroke-linecap:square;stroke-width:1.5;"/>
   </g>
   <g id="line2d_15">
    <path clip-path="url(#pc4eb8aa27f)" d="M 78.947912 199.412628 
L 79.420296 199.403199 
L 80.088349 196.89388 
L 82.092508 188.122432 
L 82.116442 185.118914 
L 82.760561 184.99332 
L 84.096667 178.056103 
L 85.041437 170.432095 
L 85.513822 167.528796 
L 85.659328 165.157455 
L 85.986206 164.576436 
L 87.803419 159.823318 
L 87.875745 159.14215 
L 88.34813 159.033554 
L 89.2929 157.828639 
L 90.083893 157.800484 
L 92.7451 157.846246 
L 93.544363 174.026838 
L 96.287986 178.726398 
L 96.660634 193.800991 
L 99.830872 195.677921 
L 101.650345 228.34675 
L 102.401578 225.564228 
L 103.373758 223.610445 
L 105.416961 221.420427 
L 105.517849 219.565464 
L 106.916644 219.185903 
L 110.45953 209.653514 
L 111.258792 193.30884 
L 114.002416 191.189536 
L 114.375063 176.136031 
L 167.801493 96.998755 
L 168.746263 118.309555 
L 170.635802 157.667592 
L 170.68859 167.422842 
L 171.108187 168.510022 
L 172.525341 196.374999 
L 172.997726 205.882489 
L 173.470111 220.445573 
L 173.942496 224.569033 
L 174.414881 239.165825 
L 174.887265 242.595734 
L 176.30442 267.135779 
L 176.972473 274.091345 
L 177.444857 276.032513 
L 177.917242 283.980913 
L 178.389627 285.063517 
L 178.862012 287.979563 
L 179.334397 289.702538 
L 179.806781 290.17378 
L 180.474834 289.504515 
L 180.947219 287.596644 
L 181.317248 283.060515 
L 181.419604 278.16669 
L 181.891989 276.808855 
L 182.116511 270.524839 
L 184.860134 267.493078 
L 186.428735 230.436956 
L 186.794063 209.247789 
L 188.40302 207.987431 
L 190.973726 207.855209 
L 191.945906 204.198858 
L 194.041704 198.649649 
L 194.416736 195.591163 
L 195.28595 194.230319 
L 195.488792 194.328814 
L 199.031677 194.299337 
L 199.83094 190.658762 
L 202.574563 188.612945 
L 202.786986 188.021972 
L 204.143165 187.874008 
L 204.883501 187.646692 
L 206.117449 187.430364 
L 208.688155 187.272734 
L 226.999085 207.00631 
L 227.374765 198.33628 
L 227.47147 193.272997 
L 227.943855 191.957122 
L 228.416239 185.471974 
L 229.084292 178.915149 
L 230.420398 160.235601 
L 230.917651 144.491691 
L 231.560836 144.151784 
L 234.233048 109.67143 
L 234.460537 101.722135 
L 234.901101 99.124979 
L 235.569154 94.196103 
L 236.237207 87.185999 
L 236.709592 80.876095 
L 237.654361 74.428306 
L 238.126746 68.753472 
L 238.599131 67.980109 
L 239.267184 65.345668 
L 239.572024 62.295716 
L 239.739569 62.929959 
L 240.211953 63.288561 
L 240.602923 64.337659 
L 240.880006 62.180435 
L 241.352391 62.897562 
L 241.546308 64.165378 
L 245.089194 64.702221 
L 245.785473 76.133671 
L 248.429239 78.727182 
L 248.63208 89.530554 
L 249.929534 89.480091 
L 250.623333 87.744328 
L 252.174966 86.802268 
L 254.642688 110.361848 
L 255.717852 146.574646 
L 257.286454 137.351739 
L 259.260738 124.129586 
L 260.105333 107.639859 
L 261.129181 100.614758 
L 261.491497 95.971718 
L 262.803624 94.295229 
L 263.499903 98.311515 
L 266.143668 100.55146 
L 266.34651 139.144344 
L 269.889396 137.376192 
L 270.034253 107.143139 
L 272.357117 105.975261 
L 273.432282 139.716179 
L 275.000883 130.426419 
L 276.975168 117.134002 
L 280.518054 144.891946 
L 281.214332 182.731002 
L 283.858098 186.841336 
L 284.060939 163.423176 
L 287.603825 161.648585 
L 291.146711 123.738437 
L 294.689597 157.093993 
L 298.232483 141.793771 
L 298.928762 120.753418 
L 301.572528 117.68295 
L 301.775369 153.294655 
L 305.318255 151.765591 
L 307.785976 128.091725 
L 308.861141 115.882527 
L 310.429742 109.789323 
L 312.404027 100.971245 
L 315.946913 132.773663 
L 316.643191 176.900834 
L 319.286957 182.107836 
L 325.500406 202.157395 
L 326.197584 209.827786 
L 326.57557 202.272873 
L 326.669969 198.133043 
L 327.142353 197.096721 
L 327.614738 191.9212 
L 328.282791 186.781221 
L 328.950844 179.624657 
L 329.423229 172.574002 
L 330.091282 167.659496 
L 330.118456 160.929251 
L 330.563667 160.657612 
L 331.23172 156.260586 
L 332.567826 143.785684 
L 332.905613 137.797522 
L 333.903932 128.169964 
L 334.571985 126.094151 
L 335.90809 114.373765 
L 336.380475 108.32335 
L 336.85286 104.003812 
L 337.204228 99.729252 
L 337.325245 96.645683 
L 337.79763 95.595145 
L 339.214784 84.304601 
L 340.526305 73.979008 
L 340.631938 71.362818 
L 340.747114 71.802015 
L 341.762827 72.284009 
L 344.29 76.673427 
L 345.343984 88.625304 
L 347.832886 94.014514 
L 350.620042 107.579081 
L 351.375772 123.943993 
L 354.201199 137.170463 
L 354.918658 183.701992 
L 358.461544 178.71446 
L 359.477257 152.864319 
L 362.00443 145.7893 
L 363.058414 121.664297 
L 365.547316 126.001384 
L 368.334472 163.303332 
L 369.090201 195.769341 
L 371.915628 188.748067 
L 372.633087 165.572194 
L 376.175973 159.663815 
L 377.140203 135.460238 
L 377.191687 130.440924 
L 379.068286 130.054756 
L 379.718859 115.760097 
L 379.806494 110.888437 
L 380.772843 110.228154 
L 381.475569 114.207708 
L 383.261745 108.997409 
L 386.048901 116.669597 
L 386.804631 129.270978 
L 388.460432 123.935759 
L 390.347517 104.742732 
L 390.353748 100.049534 
L 390.763894 100.008847 
L 393.890403 97.373445 
L 394.906116 142.166969 
L 397.433289 153.986103 
L 398.487273 140.095866 
L 398.487273 140.095866 
" style="fill:none;stroke:#ff7f0e;stroke-linecap:square;stroke-width:1.5;"/>
   </g>
   <g id="patch_3">
    <path d="M 57.6 307.584 
L 57.6 41.472 
" style="fill:none;stroke:#000000;stroke-linecap:square;stroke-linejoin:miter;stroke-width:0.8;"/>
   </g>
   <g id="patch_4">
    <path d="M 414.72 307.584 
L 414.72 41.472 
" style="fill:none;stroke:#000000;stroke-linecap:square;stroke-linejoin:miter;stroke-width:0.8;"/>
   </g>
   <g id="patch_5">
    <path d="M 57.6 307.584 
L 414.72 307.584 
" style="fill:none;stroke:#000000;stroke-linecap:square;stroke-linejoin:miter;stroke-width:0.8;"/>
   </g>
   <g id="patch_6">
    <path d="M 57.6 41.472 
L 414.72 41.472 
" style="fill:none;stroke:#000000;stroke-linecap:square;stroke-linejoin:miter;stroke-width:0.8;"/>
   </g>
   <g id="legend_1">
    <g id="patch_7">
     <path d="M 350.973125 78.82825 
L 407.72 78.82825 
Q 409.72 78.82825 409.72 76.82825 
L 409.72 48.472 
Q 409.72 46.472 407.72 46.472 
L 350.973125 46.472 
Q 348.973125 46.472 348.973125 48.472 
L 348.973125 76.82825 
Q 348.973125 78.82825 350.973125 78.82825 
z
" style="fill:#ffffff;opacity:0.8;stroke:#cccccc;stroke-linejoin:miter;"/>
    </g>
    <g id="line2d_16">
     <path d="M 352.973125 54.570437 
L 372.973125 54.570437 
" style="fill:none;stroke:#1f77b4;stroke-linecap:square;stroke-width:1.5;"/>
    </g>
    <g id="line2d_17"/>
    <g id="text_14">
     <!-- uav1 -->
     <g transform="translate(380.973125 58.070437)scale(0.1 -0.1)">
      <defs>
       <path d="M 8.5 21.578125 
L 8.5 54.6875 
L 17.484375 54.6875 
L 17.484375 21.921875 
Q 17.484375 14.15625 20.5 10.265625 
Q 23.53125 6.390625 29.59375 6.390625 
Q 36.859375 6.390625 41.078125 11.03125 
Q 45.3125 15.671875 45.3125 23.6875 
L 45.3125 54.6875 
L 54.296875 54.6875 
L 54.296875 0 
L 45.3125 0 
L 45.3125 8.40625 
Q 42.046875 3.421875 37.71875 1 
Q 33.40625 -1.421875 27.6875 -1.421875 
Q 18.265625 -1.421875 13.375 4.4375 
Q 8.5 10.296875 8.5 21.578125 
z
M 31.109375 56 
z
" id="DejaVuSans-117"/>
       <path d="M 34.28125 27.484375 
Q 23.390625 27.484375 19.1875 25 
Q 14.984375 22.515625 14.984375 16.5 
Q 14.984375 11.71875 18.140625 8.90625 
Q 21.296875 6.109375 26.703125 6.109375 
Q 34.1875 6.109375 38.703125 11.40625 
Q 43.21875 16.703125 43.21875 25.484375 
L 43.21875 27.484375 
z
M 52.203125 31.203125 
L 52.203125 0 
L 43.21875 0 
L 43.21875 8.296875 
Q 40.140625 3.328125 35.546875 0.953125 
Q 30.953125 -1.421875 24.3125 -1.421875 
Q 15.921875 -1.421875 10.953125 3.296875 
Q 6 8.015625 6 15.921875 
Q 6 25.140625 12.171875 29.828125 
Q 18.359375 34.515625 30.609375 34.515625 
L 43.21875 34.515625 
L 43.21875 35.40625 
Q 43.21875 41.609375 39.140625 45 
Q 35.0625 48.390625 27.6875 48.390625 
Q 23 48.390625 18.546875 47.265625 
Q 14.109375 46.140625 10.015625 43.890625 
L 10.015625 52.203125 
Q 14.9375 54.109375 19.578125 55.046875 
Q 24.21875 56 28.609375 56 
Q 40.484375 56 46.34375 49.84375 
Q 52.203125 43.703125 52.203125 31.203125 
z
" id="DejaVuSans-97"/>
       <path d="M 2.984375 54.6875 
L 12.5 54.6875 
L 29.59375 8.796875 
L 46.6875 54.6875 
L 56.203125 54.6875 
L 35.6875 0 
L 23.484375 0 
z
" id="DejaVuSans-118"/>
      </defs>
      <use xlink:href="#DejaVuSans-117"/>
      <use x="63.378906" xlink:href="#DejaVuSans-97"/>
      <use x="124.658203" xlink:href="#DejaVuSans-118"/>
      <use x="183.837891" xlink:href="#DejaVuSans-49"/>
     </g>
    </g>
    <g id="line2d_18">
     <path d="M 352.973125 69.248562 
L 372.973125 69.248562 
" style="fill:none;stroke:#ff7f0e;stroke-linecap:square;stroke-width:1.5;"/>
    </g>
    <g id="line2d_19"/>
    <g id="text_15">
     <!-- uav2 -->
     <g transform="translate(380.973125 72.748562)scale(0.1 -0.1)">
      <use xlink:href="#DejaVuSans-117"/>
      <use x="63.378906" xlink:href="#DejaVuSans-97"/>
      <use x="124.658203" xlink:href="#DejaVuSans-118"/>
      <use x="183.837891" xlink:href="#DejaVuSans-50"/>
     </g>
    </g>
   </g>
  </g>
 </g>
 <defs>
  <clipPath id="pc4eb8aa27f">
   <rect height="266.112" width="357.12" x="57.6" y="41.472"/>
  </clipPath>
 </defs>
</svg>
