<?xml version="1.0" encoding="utf-8" standalone="no"?>
<!DOCTYPE svg PUBLIC "-//W3C//DTD SVG 1.1//EN"
  "http://www.w3.org/Graphics/SVG/1.1/DTD/svg11.dtd">
<!-- Created with matplotlib (https://matplotlib.org/) -->
<svg height="345.6pt" version="1.1" viewBox="0 0 460.8 345.6" width="460.8pt" xmlns="http://www.w3.org/2000/svg" xmlns:xlink="http://www.w3.org/1999/xlink">
 <metadata>
  <rdf:RDF xmlns:cc="http://creativecommons.org/ns#" xmlns:dc="http://purl.org/dc/elements/1.1/" xmlns:rdf="http://www.w3.org/1999/02/22-rdf-syntax-ns#">
   <cc:Work>
    <dc:type rdf:resource="http://purl.org/dc/dcmitype/StillImage"/>
    <dc:date>2021-07-22T18:09:54.036918</dc:date>
    <dc:format>image/svg+xml</dc:format>
    <dc:creator>
     <cc:Agent>
      <dc:title>Matplotlib v3.3.4, https://matplotlib.org/</dc:title>
     </cc:Agent>
    </dc:creator>
   </cc:Work>
  </rdf:RDF>
 </metadata>
 <defs>
  <style type="text/css">*{stroke-linecap:butt;stroke-linejoin:round;}</style>
 </defs>
 <g id="figure_1">
  <g id="patch_1">
   <path d="M 0 345.6 
L 460.8 345.6 
L 460.8 0 
L 0 0 
z
" style="fill:#ffffff;"/>
  </g>
  <g id="axes_1">
   <g id="patch_2">
    <path d="M 57.6 307.584 
L 414.72 307.584 
L 414.72 41.472 
L 57.6 41.472 
z
" style="fill:#ffffff;"/>
   </g>
   <g id="matplotlib.axis_1">
    <g id="xtick_1">
     <g id="line2d_1">
      <defs>
       <path d="M 0 0 
L 0 3.5 
" id="ma013401bfc" style="stroke:#000000;stroke-width:0.8;"/>
      </defs>
      <g>
       <use style="stroke:#000000;stroke-width:0.8;" x="117.179406" xlink:href="#ma013401bfc" y="307.584"/>
      </g>
     </g>
     <g id="text_1">
      <!-- 10 -->
      <g transform="translate(110.816906 322.182437)scale(0.1 -0.1)">
       <defs>
        <path d="M 12.40625 8.296875 
L 28.515625 8.296875 
L 28.515625 63.921875 
L 10.984375 60.40625 
L 10.984375 69.390625 
L 28.421875 72.90625 
L 38.28125 72.90625 
L 38.28125 8.296875 
L 54.390625 8.296875 
L 54.390625 0 
L 12.40625 0 
z
" id="DejaVuSans-49"/>
        <path d="M 31.78125 66.40625 
Q 24.171875 66.40625 20.328125 58.90625 
Q 16.5 51.421875 16.5 36.375 
Q 16.5 21.390625 20.328125 13.890625 
Q 24.171875 6.390625 31.78125 6.390625 
Q 39.453125 6.390625 43.28125 13.890625 
Q 47.125 21.390625 47.125 36.375 
Q 47.125 51.421875 43.28125 58.90625 
Q 39.453125 66.40625 31.78125 66.40625 
z
M 31.78125 74.21875 
Q 44.046875 74.21875 50.515625 64.515625 
Q 56.984375 54.828125 56.984375 36.375 
Q 56.984375 17.96875 50.515625 8.265625 
Q 44.046875 -1.421875 31.78125 -1.421875 
Q 19.53125 -1.421875 13.0625 8.265625 
Q 6.59375 17.96875 6.59375 36.375 
Q 6.59375 54.828125 13.0625 64.515625 
Q 19.53125 74.21875 31.78125 74.21875 
z
" id="DejaVuSans-48"/>
       </defs>
       <use xlink:href="#DejaVuSans-49"/>
       <use x="63.623047" xlink:href="#DejaVuSans-48"/>
      </g>
     </g>
    </g>
    <g id="xtick_2">
     <g id="line2d_2">
      <g>
       <use style="stroke:#000000;stroke-width:0.8;" x="187.444012" xlink:href="#ma013401bfc" y="307.584"/>
      </g>
     </g>
     <g id="text_2">
      <!-- 20 -->
      <g transform="translate(181.081512 322.182437)scale(0.1 -0.1)">
       <defs>
        <path d="M 19.1875 8.296875 
L 53.609375 8.296875 
L 53.609375 0 
L 7.328125 0 
L 7.328125 8.296875 
Q 12.9375 14.109375 22.625 23.890625 
Q 32.328125 33.6875 34.8125 36.53125 
Q 39.546875 41.84375 41.421875 45.53125 
Q 43.3125 49.21875 43.3125 52.78125 
Q 43.3125 58.59375 39.234375 62.25 
Q 35.15625 65.921875 28.609375 65.921875 
Q 23.96875 65.921875 18.8125 64.3125 
Q 13.671875 62.703125 7.8125 59.421875 
L 7.8125 69.390625 
Q 13.765625 71.78125 18.9375 73 
Q 24.125 74.21875 28.421875 74.21875 
Q 39.75 74.21875 46.484375 68.546875 
Q 53.21875 62.890625 53.21875 53.421875 
Q 53.21875 48.921875 51.53125 44.890625 
Q 49.859375 40.875 45.40625 35.40625 
Q 44.1875 33.984375 37.640625 27.21875 
Q 31.109375 20.453125 19.1875 8.296875 
z
" id="DejaVuSans-50"/>
       </defs>
       <use xlink:href="#DejaVuSans-50"/>
       <use x="63.623047" xlink:href="#DejaVuSans-48"/>
      </g>
     </g>
    </g>
    <g id="xtick_3">
     <g id="line2d_3">
      <g>
       <use style="stroke:#000000;stroke-width:0.8;" x="257.708618" xlink:href="#ma013401bfc" y="307.584"/>
      </g>
     </g>
     <g id="text_3">
      <!-- 30 -->
      <g transform="translate(251.346118 322.182437)scale(0.1 -0.1)">
       <defs>
        <path d="M 40.578125 39.3125 
Q 47.65625 37.796875 51.625 33 
Q 55.609375 28.21875 55.609375 21.1875 
Q 55.609375 10.40625 48.1875 4.484375 
Q 40.765625 -1.421875 27.09375 -1.421875 
Q 22.515625 -1.421875 17.65625 -0.515625 
Q 12.796875 0.390625 7.625 2.203125 
L 7.625 11.71875 
Q 11.71875 9.328125 16.59375 8.109375 
Q 21.484375 6.890625 26.8125 6.890625 
Q 36.078125 6.890625 40.9375 10.546875 
Q 45.796875 14.203125 45.796875 21.1875 
Q 45.796875 27.640625 41.28125 31.265625 
Q 36.765625 34.90625 28.71875 34.90625 
L 20.21875 34.90625 
L 20.21875 43.015625 
L 29.109375 43.015625 
Q 36.375 43.015625 40.234375 45.921875 
Q 44.09375 48.828125 44.09375 54.296875 
Q 44.09375 59.90625 40.109375 62.90625 
Q 36.140625 65.921875 28.71875 65.921875 
Q 24.65625 65.921875 20.015625 65.03125 
Q 15.375 64.15625 9.8125 62.3125 
L 9.8125 71.09375 
Q 15.4375 72.65625 20.34375 73.4375 
Q 25.25 74.21875 29.59375 74.21875 
Q 40.828125 74.21875 47.359375 69.109375 
Q 53.90625 64.015625 53.90625 55.328125 
Q 53.90625 49.265625 50.4375 45.09375 
Q 46.96875 40.921875 40.578125 39.3125 
z
" id="DejaVuSans-51"/>
       </defs>
       <use xlink:href="#DejaVuSans-51"/>
       <use x="63.623047" xlink:href="#DejaVuSans-48"/>
      </g>
     </g>
    </g>
    <g id="xtick_4">
     <g id="line2d_4">
      <g>
       <use style="stroke:#000000;stroke-width:0.8;" x="327.973223" xlink:href="#ma013401bfc" y="307.584"/>
      </g>
     </g>
     <g id="text_4">
      <!-- 40 -->
      <g transform="translate(321.610723 322.182437)scale(0.1 -0.1)">
       <defs>
        <path d="M 37.796875 64.3125 
L 12.890625 25.390625 
L 37.796875 25.390625 
z
M 35.203125 72.90625 
L 47.609375 72.90625 
L 47.609375 25.390625 
L 58.015625 25.390625 
L 58.015625 17.1875 
L 47.609375 17.1875 
L 47.609375 0 
L 37.796875 0 
L 37.796875 17.1875 
L 4.890625 17.1875 
L 4.890625 26.703125 
z
" id="DejaVuSans-52"/>
       </defs>
       <use xlink:href="#DejaVuSans-52"/>
       <use x="63.623047" xlink:href="#DejaVuSans-48"/>
      </g>
     </g>
    </g>
    <g id="xtick_5">
     <g id="line2d_5">
      <g>
       <use style="stroke:#000000;stroke-width:0.8;" x="398.237829" xlink:href="#ma013401bfc" y="307.584"/>
      </g>
     </g>
     <g id="text_5">
      <!-- 50 -->
      <g transform="translate(391.875329 322.182437)scale(0.1 -0.1)">
       <defs>
        <path d="M 10.796875 72.90625 
L 49.515625 72.90625 
L 49.515625 64.59375 
L 19.828125 64.59375 
L 19.828125 46.734375 
Q 21.96875 47.46875 24.109375 47.828125 
Q 26.265625 48.1875 28.421875 48.1875 
Q 40.625 48.1875 47.75 41.5 
Q 54.890625 34.8125 54.890625 23.390625 
Q 54.890625 11.625 47.5625 5.09375 
Q 40.234375 -1.421875 26.90625 -1.421875 
Q 22.3125 -1.421875 17.546875 -0.640625 
Q 12.796875 0.140625 7.71875 1.703125 
L 7.71875 11.625 
Q 12.109375 9.234375 16.796875 8.0625 
Q 21.484375 6.890625 26.703125 6.890625 
Q 35.15625 6.890625 40.078125 11.328125 
Q 45.015625 15.765625 45.015625 23.390625 
Q 45.015625 31 40.078125 35.4375 
Q 35.15625 39.890625 26.703125 39.890625 
Q 22.75 39.890625 18.8125 39.015625 
Q 14.890625 38.140625 10.796875 36.28125 
z
" id="DejaVuSans-53"/>
       </defs>
       <use xlink:href="#DejaVuSans-53"/>
       <use x="63.623047" xlink:href="#DejaVuSans-48"/>
      </g>
     </g>
    </g>
   </g>
   <g id="matplotlib.axis_2">
    <g id="ytick_1">
     <g id="line2d_6">
      <defs>
       <path d="M 0 0 
L -3.5 0 
" id="me9909c43d0" style="stroke:#000000;stroke-width:0.8;"/>
      </defs>
      <g>
       <use style="stroke:#000000;stroke-width:0.8;" x="57.6" xlink:href="#me9909c43d0" y="289.95353"/>
      </g>
     </g>
     <g id="text_6">
      <!-- 5 -->
      <g transform="translate(44.2375 293.752749)scale(0.1 -0.1)">
       <use xlink:href="#DejaVuSans-53"/>
      </g>
     </g>
    </g>
    <g id="ytick_2">
     <g id="line2d_7">
      <g>
       <use style="stroke:#000000;stroke-width:0.8;" x="57.6" xlink:href="#me9909c43d0" y="259.592423"/>
      </g>
     </g>
     <g id="text_7">
      <!-- 10 -->
      <g transform="translate(37.875 263.391642)scale(0.1 -0.1)">
       <use xlink:href="#DejaVuSans-49"/>
       <use x="63.623047" xlink:href="#DejaVuSans-48"/>
      </g>
     </g>
    </g>
    <g id="ytick_3">
     <g id="line2d_8">
      <g>
       <use style="stroke:#000000;stroke-width:0.8;" x="57.6" xlink:href="#me9909c43d0" y="229.231316"/>
      </g>
     </g>
     <g id="text_8">
      <!-- 15 -->
      <g transform="translate(37.875 233.030534)scale(0.1 -0.1)">
       <use xlink:href="#DejaVuSans-49"/>
       <use x="63.623047" xlink:href="#DejaVuSans-53"/>
      </g>
     </g>
    </g>
    <g id="ytick_4">
     <g id="line2d_9">
      <g>
       <use style="stroke:#000000;stroke-width:0.8;" x="57.6" xlink:href="#me9909c43d0" y="198.870208"/>
      </g>
     </g>
     <g id="text_9">
      <!-- 20 -->
      <g transform="translate(37.875 202.669427)scale(0.1 -0.1)">
       <use xlink:href="#DejaVuSans-50"/>
       <use x="63.623047" xlink:href="#DejaVuSans-48"/>
      </g>
     </g>
    </g>
    <g id="ytick_5">
     <g id="line2d_10">
      <g>
       <use style="stroke:#000000;stroke-width:0.8;" x="57.6" xlink:href="#me9909c43d0" y="168.509101"/>
      </g>
     </g>
     <g id="text_10">
      <!-- 25 -->
      <g transform="translate(37.875 172.30832)scale(0.1 -0.1)">
       <use xlink:href="#DejaVuSans-50"/>
       <use x="63.623047" xlink:href="#DejaVuSans-53"/>
      </g>
     </g>
    </g>
    <g id="ytick_6">
     <g id="line2d_11">
      <g>
       <use style="stroke:#000000;stroke-width:0.8;" x="57.6" xlink:href="#me9909c43d0" y="138.147994"/>
      </g>
     </g>
     <g id="text_11">
      <!-- 30 -->
      <g transform="translate(37.875 141.947212)scale(0.1 -0.1)">
       <use xlink:href="#DejaVuSans-51"/>
       <use x="63.623047" xlink:href="#DejaVuSans-48"/>
      </g>
     </g>
    </g>
    <g id="ytick_7">
     <g id="line2d_12">
      <g>
       <use style="stroke:#000000;stroke-width:0.8;" x="57.6" xlink:href="#me9909c43d0" y="107.786886"/>
      </g>
     </g>
     <g id="text_12">
      <!-- 35 -->
      <g transform="translate(37.875 111.586105)scale(0.1 -0.1)">
       <use xlink:href="#DejaVuSans-51"/>
       <use x="63.623047" xlink:href="#DejaVuSans-53"/>
      </g>
     </g>
    </g>
    <g id="ytick_8">
     <g id="line2d_13">
      <g>
       <use style="stroke:#000000;stroke-width:0.8;" x="57.6" xlink:href="#me9909c43d0" y="77.425779"/>
      </g>
     </g>
     <g id="text_13">
      <!-- 40 -->
      <g transform="translate(37.875 81.224998)scale(0.1 -0.1)">
       <use xlink:href="#DejaVuSans-52"/>
       <use x="63.623047" xlink:href="#DejaVuSans-48"/>
      </g>
     </g>
    </g>
    <g id="ytick_9">
     <g id="line2d_14">
      <g>
       <use style="stroke:#000000;stroke-width:0.8;" x="57.6" xlink:href="#me9909c43d0" y="47.064672"/>
      </g>
     </g>
     <g id="text_14">
      <!-- 45 -->
      <g transform="translate(37.875 50.86389)scale(0.1 -0.1)">
       <use xlink:href="#DejaVuSans-52"/>
       <use x="63.623047" xlink:href="#DejaVuSans-53"/>
      </g>
     </g>
    </g>
   </g>
   <g id="line2d_15">
    <path clip-path="url(#p7b7d0782b4)" d="M 73.832727 65.44523 
L 74.301158 73.552077 
L 74.317997 84.761707 
L 74.769589 85.164886 
L 75.70645 107.198551 
L 76.368911 118.426862 
L 76.425935 131.19109 
L 77.031372 132.280657 
L 78.436664 166.198218 
L 78.533873 177.424653 
L 78.903402 179.755948 
L 78.905095 188.61764 
L 79.373526 188.658268 
L 80.035987 199.898023 
L 80.641812 212.149539 
L 80.698448 222.940139 
L 81.360909 223.924765 
L 82.685831 245.473496 
L 82.74975 254.910799 
L 83.348292 255.76475 
L 84.010753 263.184585 
L 84.479184 270.079955 
L 84.857688 271.490707 
L 84.947615 272.310412 
L 85.416045 272.463778 
L 85.884476 273.065941 
L 86.352907 273.362364 
L 86.821337 273.404524 
L 86.965626 273.200212 
L 87.289768 273.088018 
L 87.686478 272.752604 
L 87.758199 272.188191 
L 88.226629 272.068472 
L 88.69506 271.15769 
L 89.073564 270.032572 
L 89.163491 268.976429 
L 89.947863 268.707135 
L 91.181502 266.080478 
L 93.289441 250.088936 
L 93.379367 222.763939 
L 95.397379 221.598229 
L 96.469553 220.025698 
L 97.505317 217.957183 
L 99.613255 209.916561 
L 101.417498 183.021596 
L 101.721193 153.59307 
L 102.162443 154.53594 
L 103.829131 155.98804 
L 105.152586 162.085547 
L 105.252629 167.785793 
L 105.93707 168.094952 
L 108.045008 168.701739 
L 110.152946 172.84489 
L 110.945519 180.404799 
L 112.260884 184.110562 
L 113.922861 186.730572 
L 114.035705 192.16033 
L 114.368822 192.173417 
L 116.47676 190.325633 
L 117.127046 171.261571 
L 118.584699 163.358023 
L 119.728594 168.460172 
L 120.692637 173.609376 
L 122.800575 177.929422 
L 123.061751 189.881968 
L 124.274269 191.594964 
L 124.908513 197.158121 
L 127.016451 197.116051 
L 128.51167 195.55759 
L 129.124389 193.323518 
L 130.231297 196.102341 
L 130.992649 201.896686 
L 131.232328 205.347056 
L 133.340266 205.233049 
L 135.448204 202.927947 
L 137.294746 198.441012 
L 137.556142 192.96984 
L 139.66408 194.414625 
L 141.69039 216.243119 
L 141.772018 220.466715 
L 143.558912 220.887136 
L 143.879957 231.239191 
L 144.800799 232.699528 
L 145.656828 237.322689 
L 146.077821 242.512164 
L 146.560496 242.893812 
L 148.095833 244.886334 
L 150.203771 242.42173 
L 152.311709 234.682016 
L 154.419647 223.176817 
L 154.860897 209.280809 
L 156.527586 206.173122 
L 158.635524 211.807765 
L 160.743462 220.056629 
L 161.374339 228.216976 
L 162.8514 230.327353 
L 163.643973 232.4908 
L 166.544343 236.203426 
L 167.067276 240.340186 
L 167.483361 239.957922 
L 168.888653 230.822132 
L 169.357084 226.348941 
L 169.825515 225.340749 
L 171.230807 218.431697 
L 171.283153 216.477945 
L 171.699237 216.269389 
L 172.167668 214.6969 
L 172.636099 212.263499 
L 173.10453 211.636337 
L 173.57296 209.648687 
L 174.041391 209.236738 
L 174.978252 207.439095 
L 175.446683 206.740267 
L 175.499029 205.818912 
L 176.109144 205.653359 
L 177.046006 201.969987 
L 177.514436 201.024028 
L 177.606967 201.176313 
L 177.982867 201.274263 
L 178.451298 201.750983 
L 179.582189 204.29848 
L 179.714905 207.371373 
L 180.05062 207.158094 
L 180.519051 206.686085 
L 180.987482 207.952805 
L 181.210124 209.102764 
L 181.822844 209.60695 
L 183.09542 210.848448 
L 183.930782 212.709108 
L 186.03872 213.378633 
L 187.594192 213.057661 
L 188.146658 211.000459 
L 188.988865 209.430544 
L 189.637872 207.560457 
L 189.9932 205.401581 
L 190.254596 205.84562 
L 190.797322 205.06172 
L 192.362535 203.628288 
L 194.470473 202.349809 
L 196.377267 198.740662 
L 196.578411 193.813851 
L 198.686349 193.656 
L 198.776276 194.151431 
L 199.816991 194.260181 
L 200.583193 193.974172 
L 200.794287 192.446169 
L 201.988617 192.412369 
L 202.604585 192.971469 
L 202.902225 191.312457 
L 203.924057 191.451578 
L 204.381008 192.530936 
L 205.010164 192.758606 
L 205.160343 192.567017 
L 205.588707 192.498296 
L 207.118102 192.873406 
L 207.559351 192.153419 
L 226.089545 96.226291 
L 226.736321 89.213913 
L 228.197483 84.584159 
L 230.305422 105.043323 
L 231.50957 133.108216 
L 232.41336 147.575668 
L 233.844125 158.631729 
L 234.521298 174.09654 
L 235.899861 181.450503 
L 236.629236 194.162952 
L 236.640117 193.708538 
L 238.737174 193.705377 
L 240.292646 192.19844 
L 240.845112 189.989583 
L 242.627201 184.644659 
L 242.953051 168.952723 
L 245.060989 166.014129 
L 247.168927 148.901441 
L 249.075722 135.230204 
L 249.276865 125.943508 
L 251.384803 128.649666 
L 251.410276 155.134058 
L 253.492741 155.42604 
L 255.60068 138.907381 
L 257.708618 124.644467 
L 257.858797 113.245886 
L 259.816556 112.549708 
L 260.193352 100.256541 
L 260.547199 97.883476 
L 261.48406 116.506029 
L 261.924494 126.755679 
L 261.952491 136.374927 
L 262.420922 136.985934 
L 263.826214 167.530965 
L 264.032432 177.651049 
L 264.294645 182.092904 
L 264.763075 187.731531 
L 266.14037 217.651716 
L 266.168367 226.8918 
L 266.636798 227.476688 
L 266.641873 237.195717 
L 267.105229 237.30023 
L 268.04209 256.18012 
L 268.248309 265.334002 
L 268.510521 269.2579 
L 268.978952 274.132028 
L 269.915813 289.799597 
L 270.356247 292.815033 
L 270.384244 294.604699 
L 270.852674 294.68206 
L 271.321105 295.488 
L 271.983566 295.408618 
L 272.444593 294.43761 
L 272.464185 291.60746 
L 272.646027 291.370568 
L 273.114458 289.159037 
L 274.572123 272.076559 
L 274.71378 266.065268 
L 275.424949 264.400991 
L 278.787999 238.915587 
L 278.840833 211.592412 
L 280.895938 210.907571 
L 283.003876 209.882645 
L 284.208024 206.256837 
L 285.111814 203.128555 
L 286.993516 208.140232 
L 287.219752 220.238011 
L 287.623909 217.217261 
L 289.32769 211.788912 
L 291.435628 189.02925 
L 292.490889 162.119764 
L 293.15335 149.487273 
L 293.334077 143.052385 
L 293.543567 141.326669 
L 295.651505 143.373926 
L 296.406984 163.885701 
L 297.759443 170.969737 
L 299.867381 157.079173 
L 301.975319 138.103212 
L 302.117153 122.583114 
L 304.083257 121.666833 
L 305.19006 145.853361 
L 306.191196 158.944011 
L 308.299134 170.79455 
L 310.407072 193.837859 
L 310.900228 210.796859 
L 311.693703 213.285735 
L 312.356164 218.891892 
L 312.51501 210.79432 
L 313.018625 208.879555 
L 313.973136 197.47976 
L 341.096084 118.009064 
L 342.026145 126.825175 
L 343.010516 132.790747 
L 344.134083 138.222146 
L 346.242021 146.133926 
L 348.349959 162.07719 
L 348.707 178.4653 
L 349.87916 181.168335 
L 350.457897 189.35667 
L 352.565835 193.371224 
L 354.673774 208.571716 
L 355.181042 223.180468 
L 356.781712 226.286196 
L 357.490076 232.76357 
L 358.662236 236.019216 
L 358.88965 240.543708 
L 360.997588 236.853984 
L 365.213464 165.417186 
L 366.273152 131.365497 
L 367.321403 115.129021 
L 367.445311 121.872392 
L 369.429341 122.687767 
L 371.537279 136.073972 
L 373.645217 150.604346 
L 376.228387 175.097045 
L 377.861093 177.733381 
L 379.969032 154.896395 
L 381.700679 120.80888 
L 382.07697 90.953793 
L 383.839303 92.465235 
L 384.481431 108.300155 
L 384.949862 115.033228 
L 385.011463 125.901388 
L 385.418293 127.331599 
L 385.886723 136.777882 
L 386.292846 147.661426 
L 386.355154 157.104803 
L 387.017615 158.553564 
L 388.400784 191.391956 
L 388.422907 201.734845 
L 388.891338 202.24735 
L 390.29663 234.810788 
L 390.508722 245.63684 
L 390.959091 248.972759 
L 391.621552 255.743458 
L 392.284013 264.737668 
L 392.616661 272.324742 
L 392.946474 275.541776 
L 393.608935 278.262283 
L 393.794538 282.43869 
L 394.271396 283.315055 
L 394.724599 285.020631 
L 394.739827 289.087174 
L 395.208258 289.202102 
L 395.676689 292.199754 
L 396.145119 294.080499 
L 396.61355 295.042027 
L 396.832537 295.204525 
L 397.550411 294.619742 
L 398.018842 293.414235 
L 398.487273 291.803628 
L 398.487273 291.803628 
" style="fill:none;stroke:#1f77b4;stroke-linecap:square;stroke-width:1.5;"/>
   </g>
   <g id="line2d_16">
    <path clip-path="url(#p7b7d0782b4)" d="M 78.905095 204.210262 
L 79.373526 204.201291 
L 80.035987 201.813779 
L 80.641812 198.886808 
L 80.698448 196.342872 
L 81.360909 196.121277 
L 82.685831 190.610394 
L 82.74975 187.447826 
L 83.348292 187.089731 
L 84.010753 183.890426 
L 84.857688 176.636504 
L 84.947615 174.392397 
L 85.416045 173.874136 
L 86.352907 169.884481 
L 86.821337 168.589142 
L 86.965626 167.475236 
L 87.289768 167.168669 
L 87.686478 166.542698 
L 87.758199 165.894595 
L 88.226629 165.791271 
L 89.163491 164.644845 
L 91.181502 164.661597 
L 93.289441 171.929062 
L 93.379367 184.025946 
L 95.397379 184.528184 
L 96.469553 195.352877 
L 97.505317 200.656845 
L 99.613255 214.46469 
L 101.417498 231.739862 
L 101.721193 229.09241 
L 102.162443 228.278086 
L 103.829131 227.233468 
L 105.152586 224.134417 
L 105.252629 223.384838 
L 105.93707 223.023702 
L 108.045008 218.344195 
L 110.152946 206.445661 
L 110.945519 198.402765 
L 112.260884 196.386336 
L 113.922861 189.186781 
L 114.035705 182.063558 
L 167.01493 106.767767 
L 167.067276 117.622457 
L 167.483361 118.676114 
L 168.420223 136.445154 
L 168.888653 145.822631 
L 169.357084 160.877228 
L 169.825515 164.491615 
L 171.230807 192.197181 
L 171.283153 201.320086 
L 171.699237 202.334767 
L 172.167668 210.366063 
L 172.636099 224.222225 
L 173.10453 228.145524 
L 173.57296 242.033758 
L 174.041391 245.297172 
L 175.446683 268.645993 
L 175.499029 275.263921 
L 176.109144 275.45129 
L 176.577575 277.110862 
L 177.606967 288.477977 
L 177.982867 288.898752 
L 178.451298 290.117315 
L 178.919728 290.565682 
L 179.582189 289.928905 
L 179.714905 288.113646 
L 180.05062 287.037886 
L 180.519051 283.79771 
L 180.987482 277.849518 
L 181.210124 271.870541 
L 183.930782 271.870541 
L 186.03872 261.046708 
L 187.594192 233.728606 
L 188.146658 213.568005 
L 188.988865 210.866567 
L 189.637872 207.242712 
L 189.9932 203.847573 
L 190.254596 206.22509 
L 190.797322 204.918315 
L 192.362535 202.385572 
L 194.470473 203.640457 
L 196.377267 203.335295 
L 196.578411 201.110728 
L 198.686349 200.48268 
L 198.776276 196.074648 
L 199.816991 195.975086 
L 200.583193 193.29428 
L 200.794287 195.510763 
L 201.988617 194.98551 
L 202.604585 192.762787 
L 202.902225 194.079926 
L 203.924057 193.523884 
L 204.381008 192.218524 
L 205.010164 191.38509 
L 205.160343 191.967165 
L 205.588707 192.083776 
L 207.118102 191.460866 
L 207.559351 192.631409 
L 226.089545 201.386972 
L 226.736321 207.264426 
L 228.197483 211.364854 
L 230.305422 192.791809 
L 231.50957 164.415047 
L 232.41336 148.273789 
L 233.844125 136.039936 
L 234.521298 116.877479 
L 235.899861 107.909021 
L 236.629236 89.704506 
L 236.640117 93.342084 
L 238.737174 93.391713 
L 240.292646 89.404202 
L 240.845112 87.009886 
L 242.627201 92.484327 
L 242.953051 110.47336 
L 245.060989 113.804528 
L 249.075722 156.175476 
L 249.276865 172.146411 
L 251.384803 169.399987 
L 251.410276 140.661417 
L 253.492741 140.318405 
L 257.708618 176.150921 
L 257.858797 189.974441 
L 259.816556 190.733043 
L 260.193352 203.07957 
L 260.547199 205.459211 
L 261.01563 199.943121 
L 261.924494 185.506687 
L 261.952491 178.844682 
L 262.420922 178.424084 
L 263.826214 157.87745 
L 264.032432 151.298536 
L 264.294645 148.452104 
L 264.763075 144.871094 
L 266.14037 126.595779 
L 266.168367 121.212839 
L 266.636798 120.875386 
L 266.641873 115.361613 
L 267.105229 115.303398 
L 268.04209 105.020943 
L 268.248309 100.236735 
L 268.510521 98.239359 
L 268.978952 95.749609 
L 269.915813 87.91858 
L 270.356247 85.238381 
L 270.384244 81.990874 
L 270.852674 81.790034 
L 271.321105 78.063069 
L 271.983566 74.127233 
L 272.464185 67.320445 
L 272.646027 67.340253 
L 273.114458 67.528854 
L 274.572123 69.274225 
L 274.71378 70.049632 
L 275.424949 70.272476 
L 276.680061 71.467931 
L 278.787999 73.886745 
L 278.840833 78.816729 
L 280.895938 78.953959 
L 283.003876 84.793523 
L 284.208024 91.75917 
L 285.111814 96.155354 
L 286.993516 88.460575 
L 287.219752 71.918657 
L 287.623909 74.46855 
L 289.32769 78.953293 
L 291.435628 96.745296 
L 292.490889 115.868755 
L 293.15335 123.968432 
L 293.334077 124.689954 
L 293.543567 124.376694 
L 295.651505 122.852281 
L 296.406984 104.967653 
L 297.759443 97.691454 
L 299.867381 113.187186 
L 301.975319 137.041554 
L 302.117153 158.822879 
L 304.083257 160.149873 
L 305.19006 136.739902 
L 306.191196 123.062459 
L 308.299134 110.996475 
L 310.407072 85.023307 
L 310.900228 59.401733 
L 311.693703 53.568 
L 312.356164 54.111077 
L 312.51501 67.643212 
L 313.018625 70.8674 
L 313.973136 92.364311 
L 341.096084 184.601349 
L 342.026145 181.346529 
L 344.134083 192.438178 
L 348.349959 184.874584 
L 348.707 184.938898 
L 349.87916 185.337553 
L 350.457897 182.089758 
L 352.565835 180.447945 
L 354.673774 176.689752 
L 355.181042 176.400908 
L 356.781712 176.838992 
L 357.490076 171.268373 
L 358.662236 169.084138 
L 358.88965 165.28171 
L 360.997588 168.988896 
L 363.105526 199.007087 
L 365.213464 216.157761 
L 366.273152 213.912608 
L 367.321403 205.556683 
L 367.445311 202.930803 
L 369.429341 202.684533 
L 371.537279 199.12942 
L 373.645217 199.214226 
L 375.056227 203.281515 
L 375.753155 208.212624 
L 376.228387 205.526815 
L 377.861093 203.908386 
L 379.969032 225.388731 
L 381.700679 241.1334 
L 382.07697 237.141261 
L 383.839303 234.654742 
L 384.184908 224.506519 
L 384.481431 222.429589 
L 384.949862 220.727441 
L 385.011463 218.205791 
L 385.418293 217.891691 
L 386.292846 213.814637 
L 386.355154 212.188876 
L 387.017615 211.952145 
L 387.486046 209.700972 
L 388.400784 206.94493 
L 388.422907 205.974036 
L 388.891338 205.930512 
L 389.359769 205.169971 
L 389.828199 204.674072 
L 390.29663 204.456006 
L 390.959091 204.685211 
L 392.284013 205.680013 
L 392.616661 205.578599 
L 392.946474 205.014244 
L 393.608935 204.551509 
L 393.794538 202.460986 
L 394.271396 201.544442 
L 394.724599 199.082051 
L 394.739827 196.33332 
L 395.208258 196.243496 
L 395.676689 194.362409 
L 396.145119 193.63904 
L 396.61355 194.148742 
L 396.832537 195.218933 
L 397.081981 195.844008 
L 397.550411 196.607114 
L 398.018842 198.350804 
L 398.487273 200.564198 
L 398.487273 200.564198 
" style="fill:none;stroke:#ff7f0e;stroke-linecap:square;stroke-width:1.5;"/>
   </g>
   <g id="patch_3">
    <path d="M 57.6 307.584 
L 57.6 41.472 
" style="fill:none;stroke:#000000;stroke-linecap:square;stroke-linejoin:miter;stroke-width:0.8;"/>
   </g>
   <g id="patch_4">
    <path d="M 414.72 307.584 
L 414.72 41.472 
" style="fill:none;stroke:#000000;stroke-linecap:square;stroke-linejoin:miter;stroke-width:0.8;"/>
   </g>
   <g id="patch_5">
    <path d="M 57.6 307.584 
L 414.72 307.584 
" style="fill:none;stroke:#000000;stroke-linecap:square;stroke-linejoin:miter;stroke-width:0.8;"/>
   </g>
   <g id="patch_6">
    <path d="M 57.6 41.472 
L 414.72 41.472 
" style="fill:none;stroke:#000000;stroke-linecap:square;stroke-linejoin:miter;stroke-width:0.8;"/>
   </g>
   <g id="legend_1">
    <g id="patch_7">
     <path d="M 350.973125 78.82825 
L 407.72 78.82825 
Q 409.72 78.82825 409.72 76.82825 
L 409.72 48.472 
Q 409.72 46.472 407.72 46.472 
L 350.973125 46.472 
Q 348.973125 46.472 348.973125 48.472 
L 348.973125 76.82825 
Q 348.973125 78.82825 350.973125 78.82825 
z
" style="fill:#ffffff;opacity:0.8;stroke:#cccccc;stroke-linejoin:miter;"/>
    </g>
    <g id="line2d_17">
     <path d="M 352.973125 54.570437 
L 372.973125 54.570437 
" style="fill:none;stroke:#1f77b4;stroke-linecap:square;stroke-width:1.5;"/>
    </g>
    <g id="line2d_18"/>
    <g id="text_15">
     <!-- uav1 -->
     <g transform="translate(380.973125 58.070437)scale(0.1 -0.1)">
      <defs>
       <path d="M 8.5 21.578125 
L 8.5 54.6875 
L 17.484375 54.6875 
L 17.484375 21.921875 
Q 17.484375 14.15625 20.5 10.265625 
Q 23.53125 6.390625 29.59375 6.390625 
Q 36.859375 6.390625 41.078125 11.03125 
Q 45.3125 15.671875 45.3125 23.6875 
L 45.3125 54.6875 
L 54.296875 54.6875 
L 54.296875 0 
L 45.3125 0 
L 45.3125 8.40625 
Q 42.046875 3.421875 37.71875 1 
Q 33.40625 -1.421875 27.6875 -1.421875 
Q 18.265625 -1.421875 13.375 4.4375 
Q 8.5 10.296875 8.5 21.578125 
z
M 31.109375 56 
z
" id="DejaVuSans-117"/>
       <path d="M 34.28125 27.484375 
Q 23.390625 27.484375 19.1875 25 
Q 14.984375 22.515625 14.984375 16.5 
Q 14.984375 11.71875 18.140625 8.90625 
Q 21.296875 6.109375 26.703125 6.109375 
Q 34.1875 6.109375 38.703125 11.40625 
Q 43.21875 16.703125 43.21875 25.484375 
L 43.21875 27.484375 
z
M 52.203125 31.203125 
L 52.203125 0 
L 43.21875 0 
L 43.21875 8.296875 
Q 40.140625 3.328125 35.546875 0.953125 
Q 30.953125 -1.421875 24.3125 -1.421875 
Q 15.921875 -1.421875 10.953125 3.296875 
Q 6 8.015625 6 15.921875 
Q 6 25.140625 12.171875 29.828125 
Q 18.359375 34.515625 30.609375 34.515625 
L 43.21875 34.515625 
L 43.21875 35.40625 
Q 43.21875 41.609375 39.140625 45 
Q 35.0625 48.390625 27.6875 48.390625 
Q 23 48.390625 18.546875 47.265625 
Q 14.109375 46.140625 10.015625 43.890625 
L 10.015625 52.203125 
Q 14.9375 54.109375 19.578125 55.046875 
Q 24.21875 56 28.609375 56 
Q 40.484375 56 46.34375 49.84375 
Q 52.203125 43.703125 52.203125 31.203125 
z
" id="DejaVuSans-97"/>
       <path d="M 2.984375 54.6875 
L 12.5 54.6875 
L 29.59375 8.796875 
L 46.6875 54.6875 
L 56.203125 54.6875 
L 35.6875 0 
L 23.484375 0 
z
" id="DejaVuSans-118"/>
      </defs>
      <use xlink:href="#DejaVuSans-117"/>
      <use x="63.378906" xlink:href="#DejaVuSans-97"/>
      <use x="124.658203" xlink:href="#DejaVuSans-118"/>
      <use x="183.837891" xlink:href="#DejaVuSans-49"/>
     </g>
    </g>
    <g id="line2d_19">
     <path d="M 352.973125 69.248562 
L 372.973125 69.248562 
" style="fill:none;stroke:#ff7f0e;stroke-linecap:square;stroke-width:1.5;"/>
    </g>
    <g id="line2d_20"/>
    <g id="text_16">
     <!-- uav2 -->
     <g transform="translate(380.973125 72.748562)scale(0.1 -0.1)">
      <use xlink:href="#DejaVuSans-117"/>
      <use x="63.378906" xlink:href="#DejaVuSans-97"/>
      <use x="124.658203" xlink:href="#DejaVuSans-118"/>
      <use x="183.837891" xlink:href="#DejaVuSans-50"/>
     </g>
    </g>
   </g>
  </g>
 </g>
 <defs>
  <clipPath id="p7b7d0782b4">
   <rect height="266.112" width="357.12" x="57.6" y="41.472"/>
  </clipPath>
 </defs>
</svg>
