<?xml version="1.0" encoding="utf-8" standalone="no"?>
<!DOCTYPE svg PUBLIC "-//W3C//DTD SVG 1.1//EN"
  "http://www.w3.org/Graphics/SVG/1.1/DTD/svg11.dtd">
<!-- Created with matplotlib (https://matplotlib.org/) -->
<svg height="345.6pt" version="1.1" viewBox="0 0 460.8 345.6" width="460.8pt" xmlns="http://www.w3.org/2000/svg" xmlns:xlink="http://www.w3.org/1999/xlink">
 <metadata>
  <rdf:RDF xmlns:cc="http://creativecommons.org/ns#" xmlns:dc="http://purl.org/dc/elements/1.1/" xmlns:rdf="http://www.w3.org/1999/02/22-rdf-syntax-ns#">
   <cc:Work>
    <dc:type rdf:resource="http://purl.org/dc/dcmitype/StillImage"/>
    <dc:date>2021-07-16T23:58:49.900772</dc:date>
    <dc:format>image/svg+xml</dc:format>
    <dc:creator>
     <cc:Agent>
      <dc:title>Matplotlib v3.3.4, https://matplotlib.org/</dc:title>
     </cc:Agent>
    </dc:creator>
   </cc:Work>
  </rdf:RDF>
 </metadata>
 <defs>
  <style type="text/css">*{stroke-linecap:butt;stroke-linejoin:round;}</style>
 </defs>
 <g id="figure_1">
  <g id="patch_1">
   <path d="M 0 345.6 
L 460.8 345.6 
L 460.8 0 
L 0 0 
z
" style="fill:#ffffff;"/>
  </g>
  <g id="axes_1">
   <g id="patch_2">
    <path d="M 57.6 307.584 
L 414.72 307.584 
L 414.72 41.472 
L 57.6 41.472 
z
" style="fill:#ffffff;"/>
   </g>
   <g id="matplotlib.axis_1">
    <g id="xtick_1">
     <g id="line2d_1">
      <defs>
       <path d="M 0 0 
L 0 3.5 
" id="m5ef06efb63" style="stroke:#000000;stroke-width:0.8;"/>
      </defs>
      <g>
       <use style="stroke:#000000;stroke-width:0.8;" x="65.592764" xlink:href="#m5ef06efb63" y="307.584"/>
      </g>
     </g>
     <g id="text_1">
      <!-- 0 -->
      <g transform="translate(62.411514 322.182437)scale(0.1 -0.1)">
       <defs>
        <path d="M 31.78125 66.40625 
Q 24.171875 66.40625 20.328125 58.90625 
Q 16.5 51.421875 16.5 36.375 
Q 16.5 21.390625 20.328125 13.890625 
Q 24.171875 6.390625 31.78125 6.390625 
Q 39.453125 6.390625 43.28125 13.890625 
Q 47.125 21.390625 47.125 36.375 
Q 47.125 51.421875 43.28125 58.90625 
Q 39.453125 66.40625 31.78125 66.40625 
z
M 31.78125 74.21875 
Q 44.046875 74.21875 50.515625 64.515625 
Q 56.984375 54.828125 56.984375 36.375 
Q 56.984375 17.96875 50.515625 8.265625 
Q 44.046875 -1.421875 31.78125 -1.421875 
Q 19.53125 -1.421875 13.0625 8.265625 
Q 6.59375 17.96875 6.59375 36.375 
Q 6.59375 54.828125 13.0625 64.515625 
Q 19.53125 74.21875 31.78125 74.21875 
z
" id="DejaVuSans-48"/>
       </defs>
       <use xlink:href="#DejaVuSans-48"/>
      </g>
     </g>
    </g>
    <g id="xtick_2">
     <g id="line2d_2">
      <g>
       <use style="stroke:#000000;stroke-width:0.8;" x="131.512469" xlink:href="#m5ef06efb63" y="307.584"/>
      </g>
     </g>
     <g id="text_2">
      <!-- 10 -->
      <g transform="translate(125.149969 322.182437)scale(0.1 -0.1)">
       <defs>
        <path d="M 12.40625 8.296875 
L 28.515625 8.296875 
L 28.515625 63.921875 
L 10.984375 60.40625 
L 10.984375 69.390625 
L 28.421875 72.90625 
L 38.28125 72.90625 
L 38.28125 8.296875 
L 54.390625 8.296875 
L 54.390625 0 
L 12.40625 0 
z
" id="DejaVuSans-49"/>
       </defs>
       <use xlink:href="#DejaVuSans-49"/>
       <use x="63.623047" xlink:href="#DejaVuSans-48"/>
      </g>
     </g>
    </g>
    <g id="xtick_3">
     <g id="line2d_3">
      <g>
       <use style="stroke:#000000;stroke-width:0.8;" x="197.432174" xlink:href="#m5ef06efb63" y="307.584"/>
      </g>
     </g>
     <g id="text_3">
      <!-- 20 -->
      <g transform="translate(191.069674 322.182437)scale(0.1 -0.1)">
       <defs>
        <path d="M 19.1875 8.296875 
L 53.609375 8.296875 
L 53.609375 0 
L 7.328125 0 
L 7.328125 8.296875 
Q 12.9375 14.109375 22.625 23.890625 
Q 32.328125 33.6875 34.8125 36.53125 
Q 39.546875 41.84375 41.421875 45.53125 
Q 43.3125 49.21875 43.3125 52.78125 
Q 43.3125 58.59375 39.234375 62.25 
Q 35.15625 65.921875 28.609375 65.921875 
Q 23.96875 65.921875 18.8125 64.3125 
Q 13.671875 62.703125 7.8125 59.421875 
L 7.8125 69.390625 
Q 13.765625 71.78125 18.9375 73 
Q 24.125 74.21875 28.421875 74.21875 
Q 39.75 74.21875 46.484375 68.546875 
Q 53.21875 62.890625 53.21875 53.421875 
Q 53.21875 48.921875 51.53125 44.890625 
Q 49.859375 40.875 45.40625 35.40625 
Q 44.1875 33.984375 37.640625 27.21875 
Q 31.109375 20.453125 19.1875 8.296875 
z
" id="DejaVuSans-50"/>
       </defs>
       <use xlink:href="#DejaVuSans-50"/>
       <use x="63.623047" xlink:href="#DejaVuSans-48"/>
      </g>
     </g>
    </g>
    <g id="xtick_4">
     <g id="line2d_4">
      <g>
       <use style="stroke:#000000;stroke-width:0.8;" x="263.351878" xlink:href="#m5ef06efb63" y="307.584"/>
      </g>
     </g>
     <g id="text_4">
      <!-- 30 -->
      <g transform="translate(256.989378 322.182437)scale(0.1 -0.1)">
       <defs>
        <path d="M 40.578125 39.3125 
Q 47.65625 37.796875 51.625 33 
Q 55.609375 28.21875 55.609375 21.1875 
Q 55.609375 10.40625 48.1875 4.484375 
Q 40.765625 -1.421875 27.09375 -1.421875 
Q 22.515625 -1.421875 17.65625 -0.515625 
Q 12.796875 0.390625 7.625 2.203125 
L 7.625 11.71875 
Q 11.71875 9.328125 16.59375 8.109375 
Q 21.484375 6.890625 26.8125 6.890625 
Q 36.078125 6.890625 40.9375 10.546875 
Q 45.796875 14.203125 45.796875 21.1875 
Q 45.796875 27.640625 41.28125 31.265625 
Q 36.765625 34.90625 28.71875 34.90625 
L 20.21875 34.90625 
L 20.21875 43.015625 
L 29.109375 43.015625 
Q 36.375 43.015625 40.234375 45.921875 
Q 44.09375 48.828125 44.09375 54.296875 
Q 44.09375 59.90625 40.109375 62.90625 
Q 36.140625 65.921875 28.71875 65.921875 
Q 24.65625 65.921875 20.015625 65.03125 
Q 15.375 64.15625 9.8125 62.3125 
L 9.8125 71.09375 
Q 15.4375 72.65625 20.34375 73.4375 
Q 25.25 74.21875 29.59375 74.21875 
Q 40.828125 74.21875 47.359375 69.109375 
Q 53.90625 64.015625 53.90625 55.328125 
Q 53.90625 49.265625 50.4375 45.09375 
Q 46.96875 40.921875 40.578125 39.3125 
z
" id="DejaVuSans-51"/>
       </defs>
       <use xlink:href="#DejaVuSans-51"/>
       <use x="63.623047" xlink:href="#DejaVuSans-48"/>
      </g>
     </g>
    </g>
    <g id="xtick_5">
     <g id="line2d_5">
      <g>
       <use style="stroke:#000000;stroke-width:0.8;" x="329.271583" xlink:href="#m5ef06efb63" y="307.584"/>
      </g>
     </g>
     <g id="text_5">
      <!-- 40 -->
      <g transform="translate(322.909083 322.182437)scale(0.1 -0.1)">
       <defs>
        <path d="M 37.796875 64.3125 
L 12.890625 25.390625 
L 37.796875 25.390625 
z
M 35.203125 72.90625 
L 47.609375 72.90625 
L 47.609375 25.390625 
L 58.015625 25.390625 
L 58.015625 17.1875 
L 47.609375 17.1875 
L 47.609375 0 
L 37.796875 0 
L 37.796875 17.1875 
L 4.890625 17.1875 
L 4.890625 26.703125 
z
" id="DejaVuSans-52"/>
       </defs>
       <use xlink:href="#DejaVuSans-52"/>
       <use x="63.623047" xlink:href="#DejaVuSans-48"/>
      </g>
     </g>
    </g>
    <g id="xtick_6">
     <g id="line2d_6">
      <g>
       <use style="stroke:#000000;stroke-width:0.8;" x="395.191287" xlink:href="#m5ef06efb63" y="307.584"/>
      </g>
     </g>
     <g id="text_6">
      <!-- 50 -->
      <g transform="translate(388.828787 322.182437)scale(0.1 -0.1)">
       <defs>
        <path d="M 10.796875 72.90625 
L 49.515625 72.90625 
L 49.515625 64.59375 
L 19.828125 64.59375 
L 19.828125 46.734375 
Q 21.96875 47.46875 24.109375 47.828125 
Q 26.265625 48.1875 28.421875 48.1875 
Q 40.625 48.1875 47.75 41.5 
Q 54.890625 34.8125 54.890625 23.390625 
Q 54.890625 11.625 47.5625 5.09375 
Q 40.234375 -1.421875 26.90625 -1.421875 
Q 22.3125 -1.421875 17.546875 -0.640625 
Q 12.796875 0.140625 7.71875 1.703125 
L 7.71875 11.625 
Q 12.109375 9.234375 16.796875 8.0625 
Q 21.484375 6.890625 26.703125 6.890625 
Q 35.15625 6.890625 40.078125 11.328125 
Q 45.015625 15.765625 45.015625 23.390625 
Q 45.015625 31 40.078125 35.4375 
Q 35.15625 39.890625 26.703125 39.890625 
Q 22.75 39.890625 18.8125 39.015625 
Q 14.890625 38.140625 10.796875 36.28125 
z
" id="DejaVuSans-53"/>
       </defs>
       <use xlink:href="#DejaVuSans-53"/>
       <use x="63.623047" xlink:href="#DejaVuSans-48"/>
      </g>
     </g>
    </g>
   </g>
   <g id="matplotlib.axis_2">
    <g id="ytick_1">
     <g id="line2d_7">
      <defs>
       <path d="M 0 0 
L -3.5 0 
" id="mb3001f9877" style="stroke:#000000;stroke-width:0.8;"/>
      </defs>
      <g>
       <use style="stroke:#000000;stroke-width:0.8;" x="57.6" xlink:href="#mb3001f9877" y="296.292632"/>
      </g>
     </g>
     <g id="text_7">
      <!-- 10 -->
      <g transform="translate(37.875 300.091851)scale(0.1 -0.1)">
       <use xlink:href="#DejaVuSans-49"/>
       <use x="63.623047" xlink:href="#DejaVuSans-48"/>
      </g>
     </g>
    </g>
    <g id="ytick_2">
     <g id="line2d_8">
      <g>
       <use style="stroke:#000000;stroke-width:0.8;" x="57.6" xlink:href="#mb3001f9877" y="251.397619"/>
      </g>
     </g>
     <g id="text_8">
      <!-- 15 -->
      <g transform="translate(37.875 255.196838)scale(0.1 -0.1)">
       <use xlink:href="#DejaVuSans-49"/>
       <use x="63.623047" xlink:href="#DejaVuSans-53"/>
      </g>
     </g>
    </g>
    <g id="ytick_3">
     <g id="line2d_9">
      <g>
       <use style="stroke:#000000;stroke-width:0.8;" x="57.6" xlink:href="#mb3001f9877" y="206.502606"/>
      </g>
     </g>
     <g id="text_9">
      <!-- 20 -->
      <g transform="translate(37.875 210.301824)scale(0.1 -0.1)">
       <use xlink:href="#DejaVuSans-50"/>
       <use x="63.623047" xlink:href="#DejaVuSans-48"/>
      </g>
     </g>
    </g>
    <g id="ytick_4">
     <g id="line2d_10">
      <g>
       <use style="stroke:#000000;stroke-width:0.8;" x="57.6" xlink:href="#mb3001f9877" y="161.607592"/>
      </g>
     </g>
     <g id="text_10">
      <!-- 25 -->
      <g transform="translate(37.875 165.406811)scale(0.1 -0.1)">
       <use xlink:href="#DejaVuSans-50"/>
       <use x="63.623047" xlink:href="#DejaVuSans-53"/>
      </g>
     </g>
    </g>
    <g id="ytick_5">
     <g id="line2d_11">
      <g>
       <use style="stroke:#000000;stroke-width:0.8;" x="57.6" xlink:href="#mb3001f9877" y="116.712579"/>
      </g>
     </g>
     <g id="text_11">
      <!-- 30 -->
      <g transform="translate(37.875 120.511798)scale(0.1 -0.1)">
       <use xlink:href="#DejaVuSans-51"/>
       <use x="63.623047" xlink:href="#DejaVuSans-48"/>
      </g>
     </g>
    </g>
    <g id="ytick_6">
     <g id="line2d_12">
      <g>
       <use style="stroke:#000000;stroke-width:0.8;" x="57.6" xlink:href="#mb3001f9877" y="71.817566"/>
      </g>
     </g>
     <g id="text_12">
      <!-- 35 -->
      <g transform="translate(37.875 75.616785)scale(0.1 -0.1)">
       <use xlink:href="#DejaVuSans-51"/>
       <use x="63.623047" xlink:href="#DejaVuSans-53"/>
      </g>
     </g>
    </g>
   </g>
   <g id="line2d_13">
    <path clip-path="url(#pe3683d7fd0)" d="M 73.832727 69.960607 
L 75.48072 69.960607 
L 78.776705 76.053471 
L 82.07269 88.386545 
L 82.07269 100.861259 
L 82.07269 100.861259 
L 85.368676 100.861259 
L 88.664661 113.358052 
L 90.312653 125.971938 
L 90.312653 132.295715 
L 91.960646 132.295715 
L 95.256631 138.545665 
L 98.552617 151.137772 
L 98.552617 163.771528 
L 98.552617 163.771528 
L 101.848602 163.771528 
L 105.144587 175.830889 
L 106.79258 188.113168 
L 106.79258 194.309786 
L 108.440572 194.309786 
L 111.736557 196.150536 
L 115.032543 200.334919 
L 115.032543 194.683124 
L 115.032543 194.683124 
L 118.328528 194.683124 
L 121.624513 197.18409 
L 123.272506 200.357352 
L 123.272506 198.500589 
L 124.920498 198.500589 
L 128.216484 193.50804 
L 131.512469 182.056148 
L 131.512469 168.987286 
L 134.808454 168.987286 
L 138.104439 155.175332 
L 139.752432 140.267044 
L 139.752432 132.488655 
L 141.400425 132.488655 
L 144.69641 136.497658 
L 147.992395 144.897416 
L 147.992395 153.789395 
L 147.992395 153.789395 
L 151.28838 153.789395 
L 154.584365 162.486718 
L 156.232358 171.691 
L 156.232358 176.475652 
L 157.880351 176.475652 
L 161.176336 180.771519 
L 164.472321 189.775746 
L 164.472321 199.313794 
L 164.472321 199.313794 
L 167.768306 199.313794 
L 171.064292 206.098104 
L 172.712284 213.523188 
L 172.712284 209.217244 
L 174.360277 209.217244 
L 177.656262 211.209263 
L 180.952247 215.695553 
L 180.952247 209.723877 
L 180.952247 209.723877 
L 184.248233 209.723877 
L 187.544218 215.263068 
L 189.19221 221.45976 
L 189.19221 217.799763 
L 190.840203 217.799763 
L 194.136188 211.450701 
L 197.432174 197.662817 
L 197.432174 182.770503 
L 197.432174 182.770503 
L 200.728159 182.770503 
L 204.024144 192.139914 
L 205.672137 201.941108 
L 205.672137 206.989686 
L 207.320129 206.989686 
L 210.616114 211.378565 
L 213.9121 220.539696 
L 213.9121 230.185447 
L 213.9121 230.185447 
L 217.208085 230.185447 
L 220.50407 236.80876 
L 222.152063 244.063201 
L 222.152063 239.429102 
L 223.800055 239.429102 
L 227.096041 242.33521 
L 230.392026 248.632236 
L 230.392026 239.27328 
L 230.392026 239.27328 
L 233.688011 239.27328 
L 236.983996 245.680514 
L 238.631989 252.698775 
L 238.631989 247.320165 
L 240.279982 247.320165 
L 243.575967 239.561254 
L 246.871952 223.359999 
L 246.871952 206.579121 
L 246.871952 206.579121 
L 250.167937 206.579121 
L 253.463922 215.439881 
L 255.111915 224.590734 
L 255.111915 229.249881 
L 256.759908 229.249881 
L 260.055893 233.428881 
L 263.351878 242.05428 
L 263.351878 250.974969 
L 263.351878 250.974969 
L 266.647863 250.974969 
L 269.943849 258.504561 
L 271.591841 266.469286 
L 271.591841 270.596379 
L 273.239834 270.596379 
L 276.535819 273.481391 
L 279.831804 279.680331 
L 279.831804 286.43258 
L 279.831804 286.43258 
L 283.12779 286.43258 
L 286.423775 269.942487 
L 288.071767 252.476823 
L 288.071767 243.548917 
L 289.71976 243.548917 
L 293.015745 247.336444 
L 296.311731 255.117246 
L 296.311731 263.091822 
L 296.311731 263.091822 
L 299.607716 263.091822 
L 302.903701 244.701777 
L 304.551694 226.108427 
L 304.551694 216.808691 
L 306.199686 216.808691 
L 309.495671 220.460598 
L 312.791657 227.917295 
L 312.791657 235.500282 
L 312.791657 235.500282 
L 316.087642 235.500282 
L 319.383627 242.406843 
L 321.03162 249.535151 
L 321.03162 253.152269 
L 322.679612 253.152269 
L 325.975598 256.188982 
L 329.271583 262.520084 
L 329.271583 269.133987 
L 332.567568 269.133987 
L 335.863553 274.145105 
L 337.511546 279.613194 
L 337.511546 282.50457 
L 339.159539 282.50457 
L 342.455524 284.08199 
L 345.751509 287.673798 
L 345.751509 291.84068 
L 345.751509 291.84068 
L 349.047494 291.84068 
L 352.343479 292.8175 
L 353.991472 294.436151 
L 353.991472 295.488 
L 355.639465 295.488 
L 358.93545 287.245318 
L 362.231435 269.456098 
L 362.231435 250.660372 
L 362.231435 250.660372 
L 365.52742 250.660372 
L 368.823406 255.576942 
L 370.471398 260.990397 
L 370.471398 263.874412 
L 372.119391 263.874412 
L 375.415376 254.569492 
L 378.711361 235.398244 
L 378.711361 215.81735 
L 378.711361 215.81735 
L 382.007347 215.81735 
L 385.303332 220.938893 
L 386.951324 226.524929 
L 386.951324 229.483515 
L 388.599317 229.483515 
L 391.895302 219.935569 
L 395.191287 200.484965 
L 395.191287 180.779618 
L 395.191287 180.779618 
L 398.487273 180.779618 
L 398.487273 180.779618 
" style="fill:none;stroke:#1f77b4;stroke-linecap:square;stroke-width:1.5;"/>
   </g>
   <g id="line2d_14">
    <path clip-path="url(#pe3683d7fd0)" d="M 75.48072 149.197067 
L 78.776705 146.746234 
L 82.07269 142.344733 
L 82.07269 138.613191 
L 82.07269 138.613191 
L 85.368676 138.613191 
L 88.664661 134.158297 
L 90.312653 130.37506 
L 90.312653 128.735176 
L 91.960646 128.735176 
L 95.256631 126.296493 
L 98.552617 121.916535 
L 98.552617 118.197621 
L 98.552617 118.197621 
L 101.848602 118.197621 
L 105.144587 111.956705 
L 106.79258 106.33893 
L 106.79258 103.763439 
L 108.440572 103.763439 
L 111.736557 98.990517 
L 115.032543 89.356207 
L 115.032543 106.57174 
L 118.328528 106.57174 
L 121.624513 97.345841 
L 123.272506 87.876998 
L 123.272506 96.389378 
L 124.920498 96.389378 
L 128.216484 104.732943 
L 131.512469 121.12084 
L 131.512469 136.961612 
L 134.808454 136.961612 
L 138.104439 152.523684 
L 139.752432 167.227659 
L 139.752432 174.167872 
L 141.400425 174.167872 
L 144.69641 169.151944 
L 147.992395 159.423075 
L 147.992395 150.129273 
L 147.992395 150.129273 
L 151.28838 150.129273 
L 154.584365 140.694278 
L 156.232358 131.686811 
L 156.232358 127.352664 
L 157.880351 127.352664 
L 161.176336 122.708761 
L 164.472321 113.70217 
L 164.472321 105.098513 
L 164.472321 105.098513 
L 167.768306 105.098513 
L 171.064292 95.763574 
L 172.712284 86.603171 
L 172.712284 95.426531 
L 174.360277 95.426531 
L 177.656262 90.957389 
L 180.952247 81.932035 
L 180.952247 99.711735 
L 184.248233 99.711735 
L 187.544218 90.746227 
L 189.19221 81.814037 
L 189.19221 90.848612 
L 190.840203 90.848612 
L 194.136188 99.078654 
L 197.432174 115.024516 
L 197.432174 130.11224 
L 200.728159 130.11224 
L 204.024144 121.78486 
L 205.672137 113.896319 
L 205.672137 110.123942 
L 207.320129 110.123942 
L 210.616114 105.949573 
L 213.9121 97.855358 
L 213.9121 90.128444 
L 213.9121 90.128444 
L 217.208085 90.128444 
L 220.50407 81.953793 
L 222.152063 73.877266 
L 222.152063 83.349105 
L 223.800055 83.349105 
L 227.096041 79.429581 
L 230.392026 71.591332 
L 230.392026 90.731417 
L 230.392026 90.731417 
L 233.688011 90.731417 
L 236.983996 83.105136 
L 238.631989 75.52956 
L 238.631989 85.248537 
L 240.279982 85.248537 
L 243.575967 93.861488 
L 246.871952 110.523846 
L 246.871952 126.260954 
L 246.871952 126.260954 
L 250.167937 126.260954 
L 253.463922 118.886483 
L 255.111915 111.893512 
L 255.111915 108.548598 
L 256.759908 108.548598 
L 260.055893 104.923727 
L 263.351878 97.890387 
L 263.351878 91.175415 
L 266.647863 91.175415 
L 269.943849 84.266578 
L 271.591841 77.523426 
L 271.591841 74.228497 
L 273.239834 74.228497 
L 276.535819 71.0941 
L 279.831804 64.782717 
L 279.831804 58.467755 
L 283.12779 58.467755 
L 286.423775 77.2487 
L 288.071767 95.500449 
L 288.071767 104.376289 
L 289.71976 104.376289 
L 293.015745 101.057617 
L 296.311731 94.578664 
L 296.311731 88.345799 
L 296.311731 88.345799 
L 299.607716 88.345799 
L 302.903701 106.883231 
L 304.551694 124.698259 
L 304.551694 133.267631 
L 306.199686 133.267631 
L 309.495671 129.929215 
L 312.791657 123.427447 
L 312.791657 117.195457 
L 312.791657 117.195457 
L 316.087642 117.195457 
L 319.383627 110.835095 
L 321.03162 104.636313 
L 321.03162 101.612693 
L 322.679612 101.612693 
L 325.975598 98.627122 
L 329.271583 92.665451 
L 329.271583 86.766848 
L 329.271583 86.766848 
L 332.567568 86.766848 
L 335.863553 81.457689 
L 337.511546 76.006599 
L 337.511546 73.249721 
L 339.159539 73.249721 
L 342.455524 71.163323 
L 345.751509 66.702679 
L 345.751509 61.925071 
L 345.751509 61.925071 
L 349.047494 61.925071 
L 352.343479 59.010185 
L 353.991472 55.511148 
L 353.991472 53.568 
L 355.639465 53.568 
L 358.93545 63.691977 
L 362.231435 83.795843 
L 362.231435 103.608282 
L 362.231435 103.608282 
L 365.52742 103.608282 
L 368.823406 97.941497 
L 370.471398 92.100172 
L 370.471398 89.138628 
L 372.119391 89.138628 
L 375.415376 99.235321 
L 378.711361 119.211374 
L 378.711361 138.766633 
L 378.711361 138.766633 
L 382.007347 138.766633 
L 385.303332 132.576363 
L 386.951324 126.214011 
L 386.951324 122.996694 
L 388.599317 122.996694 
L 391.895302 132.921003 
L 395.191287 152.458072 
L 395.191287 171.401747 
L 395.191287 171.401747 
L 398.487273 171.401747 
L 398.487273 171.401747 
" style="fill:none;stroke:#ff7f0e;stroke-linecap:square;stroke-width:1.5;"/>
   </g>
   <g id="patch_3">
    <path d="M 57.6 307.584 
L 57.6 41.472 
" style="fill:none;stroke:#000000;stroke-linecap:square;stroke-linejoin:miter;stroke-width:0.8;"/>
   </g>
   <g id="patch_4">
    <path d="M 414.72 307.584 
L 414.72 41.472 
" style="fill:none;stroke:#000000;stroke-linecap:square;stroke-linejoin:miter;stroke-width:0.8;"/>
   </g>
   <g id="patch_5">
    <path d="M 57.6 307.584 
L 414.72 307.584 
" style="fill:none;stroke:#000000;stroke-linecap:square;stroke-linejoin:miter;stroke-width:0.8;"/>
   </g>
   <g id="patch_6">
    <path d="M 57.6 41.472 
L 414.72 41.472 
" style="fill:none;stroke:#000000;stroke-linecap:square;stroke-linejoin:miter;stroke-width:0.8;"/>
   </g>
   <g id="legend_1">
    <g id="patch_7">
     <path d="M 64.6 302.584 
L 121.346875 302.584 
Q 123.346875 302.584 123.346875 300.584 
L 123.346875 272.22775 
Q 123.346875 270.22775 121.346875 270.22775 
L 64.6 270.22775 
Q 62.6 270.22775 62.6 272.22775 
L 62.6 300.584 
Q 62.6 302.584 64.6 302.584 
z
" style="fill:#ffffff;opacity:0.8;stroke:#cccccc;stroke-linejoin:miter;"/>
    </g>
    <g id="line2d_15">
     <path d="M 66.6 278.326187 
L 86.6 278.326187 
" style="fill:none;stroke:#1f77b4;stroke-linecap:square;stroke-width:1.5;"/>
    </g>
    <g id="line2d_16"/>
    <g id="text_13">
     <!-- uav1 -->
     <g transform="translate(94.6 281.826187)scale(0.1 -0.1)">
      <defs>
       <path d="M 8.5 21.578125 
L 8.5 54.6875 
L 17.484375 54.6875 
L 17.484375 21.921875 
Q 17.484375 14.15625 20.5 10.265625 
Q 23.53125 6.390625 29.59375 6.390625 
Q 36.859375 6.390625 41.078125 11.03125 
Q 45.3125 15.671875 45.3125 23.6875 
L 45.3125 54.6875 
L 54.296875 54.6875 
L 54.296875 0 
L 45.3125 0 
L 45.3125 8.40625 
Q 42.046875 3.421875 37.71875 1 
Q 33.40625 -1.421875 27.6875 -1.421875 
Q 18.265625 -1.421875 13.375 4.4375 
Q 8.5 10.296875 8.5 21.578125 
z
M 31.109375 56 
z
" id="DejaVuSans-117"/>
       <path d="M 34.28125 27.484375 
Q 23.390625 27.484375 19.1875 25 
Q 14.984375 22.515625 14.984375 16.5 
Q 14.984375 11.71875 18.140625 8.90625 
Q 21.296875 6.109375 26.703125 6.109375 
Q 34.1875 6.109375 38.703125 11.40625 
Q 43.21875 16.703125 43.21875 25.484375 
L 43.21875 27.484375 
z
M 52.203125 31.203125 
L 52.203125 0 
L 43.21875 0 
L 43.21875 8.296875 
Q 40.140625 3.328125 35.546875 0.953125 
Q 30.953125 -1.421875 24.3125 -1.421875 
Q 15.921875 -1.421875 10.953125 3.296875 
Q 6 8.015625 6 15.921875 
Q 6 25.140625 12.171875 29.828125 
Q 18.359375 34.515625 30.609375 34.515625 
L 43.21875 34.515625 
L 43.21875 35.40625 
Q 43.21875 41.609375 39.140625 45 
Q 35.0625 48.390625 27.6875 48.390625 
Q 23 48.390625 18.546875 47.265625 
Q 14.109375 46.140625 10.015625 43.890625 
L 10.015625 52.203125 
Q 14.9375 54.109375 19.578125 55.046875 
Q 24.21875 56 28.609375 56 
Q 40.484375 56 46.34375 49.84375 
Q 52.203125 43.703125 52.203125 31.203125 
z
" id="DejaVuSans-97"/>
       <path d="M 2.984375 54.6875 
L 12.5 54.6875 
L 29.59375 8.796875 
L 46.6875 54.6875 
L 56.203125 54.6875 
L 35.6875 0 
L 23.484375 0 
z
" id="DejaVuSans-118"/>
      </defs>
      <use xlink:href="#DejaVuSans-117"/>
      <use x="63.378906" xlink:href="#DejaVuSans-97"/>
      <use x="124.658203" xlink:href="#DejaVuSans-118"/>
      <use x="183.837891" xlink:href="#DejaVuSans-49"/>
     </g>
    </g>
    <g id="line2d_17">
     <path d="M 66.6 293.004312 
L 86.6 293.004312 
" style="fill:none;stroke:#ff7f0e;stroke-linecap:square;stroke-width:1.5;"/>
    </g>
    <g id="line2d_18"/>
    <g id="text_14">
     <!-- uav2 -->
     <g transform="translate(94.6 296.504312)scale(0.1 -0.1)">
      <use xlink:href="#DejaVuSans-117"/>
      <use x="63.378906" xlink:href="#DejaVuSans-97"/>
      <use x="124.658203" xlink:href="#DejaVuSans-118"/>
      <use x="183.837891" xlink:href="#DejaVuSans-50"/>
     </g>
    </g>
   </g>
  </g>
 </g>
 <defs>
  <clipPath id="pe3683d7fd0">
   <rect height="266.112" width="357.12" x="57.6" y="41.472"/>
  </clipPath>
 </defs>
</svg>
