<?xml version="1.0" encoding="utf-8" standalone="no"?>
<!DOCTYPE svg PUBLIC "-//W3C//DTD SVG 1.1//EN"
  "http://www.w3.org/Graphics/SVG/1.1/DTD/svg11.dtd">
<!-- Created with matplotlib (https://matplotlib.org/) -->
<svg height="345.6pt" version="1.1" viewBox="0 0 460.8 345.6" width="460.8pt" xmlns="http://www.w3.org/2000/svg" xmlns:xlink="http://www.w3.org/1999/xlink">
 <metadata>
  <rdf:RDF xmlns:cc="http://creativecommons.org/ns#" xmlns:dc="http://purl.org/dc/elements/1.1/" xmlns:rdf="http://www.w3.org/1999/02/22-rdf-syntax-ns#">
   <cc:Work>
    <dc:type rdf:resource="http://purl.org/dc/dcmitype/StillImage"/>
    <dc:date>2021-07-23T11:29:45.676375</dc:date>
    <dc:format>image/svg+xml</dc:format>
    <dc:creator>
     <cc:Agent>
      <dc:title>Matplotlib v3.3.4, https://matplotlib.org/</dc:title>
     </cc:Agent>
    </dc:creator>
   </cc:Work>
  </rdf:RDF>
 </metadata>
 <defs>
  <style type="text/css">*{stroke-linecap:butt;stroke-linejoin:round;}</style>
 </defs>
 <g id="figure_1">
  <g id="patch_1">
   <path d="M 0 345.6 
L 460.8 345.6 
L 460.8 0 
L 0 0 
z
" style="fill:#ffffff;"/>
  </g>
  <g id="axes_1">
   <g id="patch_2">
    <path d="M 57.6 307.584 
L 414.72 307.584 
L 414.72 41.472 
L 57.6 41.472 
z
" style="fill:#ffffff;"/>
   </g>
   <g id="matplotlib.axis_1">
    <g id="xtick_1">
     <g id="line2d_1">
      <defs>
       <path d="M 0 0 
L 0 3.5 
" id="me01606317b" style="stroke:#000000;stroke-width:0.8;"/>
      </defs>
      <g>
       <use style="stroke:#000000;stroke-width:0.8;" x="117.088014" xlink:href="#me01606317b" y="307.584"/>
      </g>
     </g>
     <g id="text_1">
      <!-- 10 -->
      <g transform="translate(110.725514 322.182437)scale(0.1 -0.1)">
       <defs>
        <path d="M 12.40625 8.296875 
L 28.515625 8.296875 
L 28.515625 63.921875 
L 10.984375 60.40625 
L 10.984375 69.390625 
L 28.421875 72.90625 
L 38.28125 72.90625 
L 38.28125 8.296875 
L 54.390625 8.296875 
L 54.390625 0 
L 12.40625 0 
z
" id="DejaVuSans-49"/>
        <path d="M 31.78125 66.40625 
Q 24.171875 66.40625 20.328125 58.90625 
Q 16.5 51.421875 16.5 36.375 
Q 16.5 21.390625 20.328125 13.890625 
Q 24.171875 6.390625 31.78125 6.390625 
Q 39.453125 6.390625 43.28125 13.890625 
Q 47.125 21.390625 47.125 36.375 
Q 47.125 51.421875 43.28125 58.90625 
Q 39.453125 66.40625 31.78125 66.40625 
z
M 31.78125 74.21875 
Q 44.046875 74.21875 50.515625 64.515625 
Q 56.984375 54.828125 56.984375 36.375 
Q 56.984375 17.96875 50.515625 8.265625 
Q 44.046875 -1.421875 31.78125 -1.421875 
Q 19.53125 -1.421875 13.0625 8.265625 
Q 6.59375 17.96875 6.59375 36.375 
Q 6.59375 54.828125 13.0625 64.515625 
Q 19.53125 74.21875 31.78125 74.21875 
z
" id="DejaVuSans-48"/>
       </defs>
       <use xlink:href="#DejaVuSans-49"/>
       <use x="63.623047" xlink:href="#DejaVuSans-48"/>
      </g>
     </g>
    </g>
    <g id="xtick_2">
     <g id="line2d_2">
      <g>
       <use style="stroke:#000000;stroke-width:0.8;" x="187.204474" xlink:href="#me01606317b" y="307.584"/>
      </g>
     </g>
     <g id="text_2">
      <!-- 20 -->
      <g transform="translate(180.841974 322.182437)scale(0.1 -0.1)">
       <defs>
        <path d="M 19.1875 8.296875 
L 53.609375 8.296875 
L 53.609375 0 
L 7.328125 0 
L 7.328125 8.296875 
Q 12.9375 14.109375 22.625 23.890625 
Q 32.328125 33.6875 34.8125 36.53125 
Q 39.546875 41.84375 41.421875 45.53125 
Q 43.3125 49.21875 43.3125 52.78125 
Q 43.3125 58.59375 39.234375 62.25 
Q 35.15625 65.921875 28.609375 65.921875 
Q 23.96875 65.921875 18.8125 64.3125 
Q 13.671875 62.703125 7.8125 59.421875 
L 7.8125 69.390625 
Q 13.765625 71.78125 18.9375 73 
Q 24.125 74.21875 28.421875 74.21875 
Q 39.75 74.21875 46.484375 68.546875 
Q 53.21875 62.890625 53.21875 53.421875 
Q 53.21875 48.921875 51.53125 44.890625 
Q 49.859375 40.875 45.40625 35.40625 
Q 44.1875 33.984375 37.640625 27.21875 
Q 31.109375 20.453125 19.1875 8.296875 
z
" id="DejaVuSans-50"/>
       </defs>
       <use xlink:href="#DejaVuSans-50"/>
       <use x="63.623047" xlink:href="#DejaVuSans-48"/>
      </g>
     </g>
    </g>
    <g id="xtick_3">
     <g id="line2d_3">
      <g>
       <use style="stroke:#000000;stroke-width:0.8;" x="257.320933" xlink:href="#me01606317b" y="307.584"/>
      </g>
     </g>
     <g id="text_3">
      <!-- 30 -->
      <g transform="translate(250.958433 322.182437)scale(0.1 -0.1)">
       <defs>
        <path d="M 40.578125 39.3125 
Q 47.65625 37.796875 51.625 33 
Q 55.609375 28.21875 55.609375 21.1875 
Q 55.609375 10.40625 48.1875 4.484375 
Q 40.765625 -1.421875 27.09375 -1.421875 
Q 22.515625 -1.421875 17.65625 -0.515625 
Q 12.796875 0.390625 7.625 2.203125 
L 7.625 11.71875 
Q 11.71875 9.328125 16.59375 8.109375 
Q 21.484375 6.890625 26.8125 6.890625 
Q 36.078125 6.890625 40.9375 10.546875 
Q 45.796875 14.203125 45.796875 21.1875 
Q 45.796875 27.640625 41.28125 31.265625 
Q 36.765625 34.90625 28.71875 34.90625 
L 20.21875 34.90625 
L 20.21875 43.015625 
L 29.109375 43.015625 
Q 36.375 43.015625 40.234375 45.921875 
Q 44.09375 48.828125 44.09375 54.296875 
Q 44.09375 59.90625 40.109375 62.90625 
Q 36.140625 65.921875 28.71875 65.921875 
Q 24.65625 65.921875 20.015625 65.03125 
Q 15.375 64.15625 9.8125 62.3125 
L 9.8125 71.09375 
Q 15.4375 72.65625 20.34375 73.4375 
Q 25.25 74.21875 29.59375 74.21875 
Q 40.828125 74.21875 47.359375 69.109375 
Q 53.90625 64.015625 53.90625 55.328125 
Q 53.90625 49.265625 50.4375 45.09375 
Q 46.96875 40.921875 40.578125 39.3125 
z
" id="DejaVuSans-51"/>
       </defs>
       <use xlink:href="#DejaVuSans-51"/>
       <use x="63.623047" xlink:href="#DejaVuSans-48"/>
      </g>
     </g>
    </g>
    <g id="xtick_4">
     <g id="line2d_4">
      <g>
       <use style="stroke:#000000;stroke-width:0.8;" x="327.437393" xlink:href="#me01606317b" y="307.584"/>
      </g>
     </g>
     <g id="text_4">
      <!-- 40 -->
      <g transform="translate(321.074893 322.182437)scale(0.1 -0.1)">
       <defs>
        <path d="M 37.796875 64.3125 
L 12.890625 25.390625 
L 37.796875 25.390625 
z
M 35.203125 72.90625 
L 47.609375 72.90625 
L 47.609375 25.390625 
L 58.015625 25.390625 
L 58.015625 17.1875 
L 47.609375 17.1875 
L 47.609375 0 
L 37.796875 0 
L 37.796875 17.1875 
L 4.890625 17.1875 
L 4.890625 26.703125 
z
" id="DejaVuSans-52"/>
       </defs>
       <use xlink:href="#DejaVuSans-52"/>
       <use x="63.623047" xlink:href="#DejaVuSans-48"/>
      </g>
     </g>
    </g>
    <g id="xtick_5">
     <g id="line2d_5">
      <g>
       <use style="stroke:#000000;stroke-width:0.8;" x="397.553853" xlink:href="#me01606317b" y="307.584"/>
      </g>
     </g>
     <g id="text_5">
      <!-- 50 -->
      <g transform="translate(391.191353 322.182437)scale(0.1 -0.1)">
       <defs>
        <path d="M 10.796875 72.90625 
L 49.515625 72.90625 
L 49.515625 64.59375 
L 19.828125 64.59375 
L 19.828125 46.734375 
Q 21.96875 47.46875 24.109375 47.828125 
Q 26.265625 48.1875 28.421875 48.1875 
Q 40.625 48.1875 47.75 41.5 
Q 54.890625 34.8125 54.890625 23.390625 
Q 54.890625 11.625 47.5625 5.09375 
Q 40.234375 -1.421875 26.90625 -1.421875 
Q 22.3125 -1.421875 17.546875 -0.640625 
Q 12.796875 0.140625 7.71875 1.703125 
L 7.71875 11.625 
Q 12.109375 9.234375 16.796875 8.0625 
Q 21.484375 6.890625 26.703125 6.890625 
Q 35.15625 6.890625 40.078125 11.328125 
Q 45.015625 15.765625 45.015625 23.390625 
Q 45.015625 31 40.078125 35.4375 
Q 35.15625 39.890625 26.703125 39.890625 
Q 22.75 39.890625 18.8125 39.015625 
Q 14.890625 38.140625 10.796875 36.28125 
z
" id="DejaVuSans-53"/>
       </defs>
       <use xlink:href="#DejaVuSans-53"/>
       <use x="63.623047" xlink:href="#DejaVuSans-48"/>
      </g>
     </g>
    </g>
   </g>
   <g id="matplotlib.axis_2">
    <g id="ytick_1">
     <g id="line2d_6">
      <defs>
       <path d="M 0 0 
L -3.5 0 
" id="m7a552c9dad" style="stroke:#000000;stroke-width:0.8;"/>
      </defs>
      <g>
       <use style="stroke:#000000;stroke-width:0.8;" x="57.6" xlink:href="#m7a552c9dad" y="283.135174"/>
      </g>
     </g>
     <g id="text_6">
      <!-- 5 -->
      <g transform="translate(44.2375 286.934393)scale(0.1 -0.1)">
       <use xlink:href="#DejaVuSans-53"/>
      </g>
     </g>
    </g>
    <g id="ytick_2">
     <g id="line2d_7">
      <g>
       <use style="stroke:#000000;stroke-width:0.8;" x="57.6" xlink:href="#m7a552c9dad" y="252.888444"/>
      </g>
     </g>
     <g id="text_7">
      <!-- 10 -->
      <g transform="translate(37.875 256.687663)scale(0.1 -0.1)">
       <use xlink:href="#DejaVuSans-49"/>
       <use x="63.623047" xlink:href="#DejaVuSans-48"/>
      </g>
     </g>
    </g>
    <g id="ytick_3">
     <g id="line2d_8">
      <g>
       <use style="stroke:#000000;stroke-width:0.8;" x="57.6" xlink:href="#m7a552c9dad" y="222.641714"/>
      </g>
     </g>
     <g id="text_8">
      <!-- 15 -->
      <g transform="translate(37.875 226.440933)scale(0.1 -0.1)">
       <use xlink:href="#DejaVuSans-49"/>
       <use x="63.623047" xlink:href="#DejaVuSans-53"/>
      </g>
     </g>
    </g>
    <g id="ytick_4">
     <g id="line2d_9">
      <g>
       <use style="stroke:#000000;stroke-width:0.8;" x="57.6" xlink:href="#m7a552c9dad" y="192.394984"/>
      </g>
     </g>
     <g id="text_9">
      <!-- 20 -->
      <g transform="translate(37.875 196.194203)scale(0.1 -0.1)">
       <use xlink:href="#DejaVuSans-50"/>
       <use x="63.623047" xlink:href="#DejaVuSans-48"/>
      </g>
     </g>
    </g>
    <g id="ytick_5">
     <g id="line2d_10">
      <g>
       <use style="stroke:#000000;stroke-width:0.8;" x="57.6" xlink:href="#m7a552c9dad" y="162.148254"/>
      </g>
     </g>
     <g id="text_10">
      <!-- 25 -->
      <g transform="translate(37.875 165.947473)scale(0.1 -0.1)">
       <use xlink:href="#DejaVuSans-50"/>
       <use x="63.623047" xlink:href="#DejaVuSans-53"/>
      </g>
     </g>
    </g>
    <g id="ytick_6">
     <g id="line2d_11">
      <g>
       <use style="stroke:#000000;stroke-width:0.8;" x="57.6" xlink:href="#m7a552c9dad" y="131.901525"/>
      </g>
     </g>
     <g id="text_11">
      <!-- 30 -->
      <g transform="translate(37.875 135.700743)scale(0.1 -0.1)">
       <use xlink:href="#DejaVuSans-51"/>
       <use x="63.623047" xlink:href="#DejaVuSans-48"/>
      </g>
     </g>
    </g>
    <g id="ytick_7">
     <g id="line2d_12">
      <g>
       <use style="stroke:#000000;stroke-width:0.8;" x="57.6" xlink:href="#m7a552c9dad" y="101.654795"/>
      </g>
     </g>
     <g id="text_12">
      <!-- 35 -->
      <g transform="translate(37.875 105.454014)scale(0.1 -0.1)">
       <use xlink:href="#DejaVuSans-51"/>
       <use x="63.623047" xlink:href="#DejaVuSans-53"/>
      </g>
     </g>
    </g>
    <g id="ytick_8">
     <g id="line2d_13">
      <g>
       <use style="stroke:#000000;stroke-width:0.8;" x="57.6" xlink:href="#m7a552c9dad" y="71.408065"/>
      </g>
     </g>
     <g id="text_13">
      <!-- 40 -->
      <g transform="translate(37.875 75.207284)scale(0.1 -0.1)">
       <use xlink:href="#DejaVuSans-52"/>
       <use x="63.623047" xlink:href="#DejaVuSans-48"/>
      </g>
     </g>
    </g>
   </g>
   <g id="line2d_14">
    <path clip-path="url(#p574b0d99a9)" d="M 73.832727 59.472649 
L 74.30017 67.548956 
L 75.7025 101.068676 
L 77.024628 124.97083 
L 78.426957 159.846077 
L 78.892711 171.03022 
L 78.8944 182.18104 
L 79.361843 182.221514 
L 83.328229 248.224457 
L 84.456737 263.336467 
L 84.92418 264.741905 
L 85.391623 265.711309 
L 85.859066 266.311204 
L 86.326509 266.60651 
L 86.793952 266.648511 
L 87.261395 266.444969 
L 87.657268 265.999048 
L 87.728838 265.436761 
L 88.196281 265.317493 
L 89.913886 261.968819 
L 93.338155 259.352057 
L 96.421826 215.037383 
L 98.109696 211.410054 
L 98.967491 206.666275 
L 99.385495 203.677733 
L 102.102712 202.100347 
L 103.605145 185.553001 
L 104.507711 170.720206 
L 105.026995 173.437529 
L 105.186383 174.997522 
L 110.437775 174.990297 
L 110.86727 186.162615 
L 112.559403 186.034955 
L 113.156567 186.908246 
L 113.950941 186.721945 
L 117.51147 186.406735 
L 119.631827 154.921413 
L 123.429869 163.254116 
L 124.817042 184.485133 
L 125.350384 189.60295 
L 128.396385 191.356941 
L 129.861874 188.584591 
L 130.508206 195.610085 
L 137.160942 198.451601 
L 140.850104 185.368434 
L 141.547319 209.410632 
L 145.9255 213.017046 
L 147.385108 222.180914 
L 148.444307 237.007678 
L 149.819594 244.249593 
L 150.267393 246.252748 
L 154.690057 247.666091 
L 158.460116 230.862114 
L 161.470346 243.382437 
L 163.454615 249.866984 
L 165.471084 251.706516 
L 166.348869 252.851237 
L 166.818465 252.071661 
L 167.285908 251.567717 
L 168.688237 239.952496 
L 170.090566 229.842788 
L 171.492896 221.258616 
L 171.960339 218.733474 
L 172.427782 215.132941 
L 172.895225 214.168013 
L 174.297554 208.493402 
L 175.23244 205.386427 
L 175.893504 203.539734 
L 176.82839 197.166362 
L 177.295834 195.342635 
L 177.763277 195.062118 
L 178.424341 195.348939 
L 178.891784 196.886131 
L 179.359227 194.848695 
L 180.020291 196.423653 
L 180.487734 198.482682 
L 180.955177 199.812155 
L 180.98373 201.030855 
L 183.058671 201.101592 
L 187.445378 205.017491 
L 189.748287 204.54201 
L 191.960588 199.602843 
L 193.587253 193.768026 
L 194.926535 193.714585 
L 195.417122 191.530722 
L 196.209935 191.265104 
L 196.911454 190.101959 
L 198.512844 189.234802 
L 199.978168 187.593529 
L 204.974492 186.760024 
L 207.277402 175.821148 
L 226.588306 89.085511 
L 231.268165 76.240763 
L 233.506757 138.178638 
L 235.948416 164.134311 
L 240.032722 187.342651 
L 242.271314 151.455086 
L 248.79728 175.833315 
L 251.035872 127.550232 
L 257.561837 154.928475 
L 259.800429 109.574749 
L 260.15353 94.498723 
L 261.088416 113.184866 
L 266.23029 225.055034 
L 266.326395 234.878295 
L 266.697733 236.88129 
L 267.165176 244.567858 
L 269.034948 280.583141 
L 269.502391 287.921834 
L 269.969834 290.920576 
L 270.437277 292.536189 
L 270.90472 292.955809 
L 271.503586 292.533813 
L 271.565785 292.006869 
L 272.226849 291.243851 
L 273.161735 276.110593 
L 273.629178 270.340955 
L 275.090952 256.981196 
L 278.408593 246.619391 
L 283.85551 203.685604 
L 286.845729 194.833307 
L 287.173151 213.431579 
L 292.119447 209.020782 
L 292.780511 144.925593 
L 293.312583 138.36791 
L 295.937708 133.255445 
L 302.077141 158.759635 
L 304.702266 107.964914 
L 310.841698 141.380492 
L 313.466823 203.394241 
L 342.876444 208.247023 
L 344.842383 204.458832 
L 345.899928 215.752032 
L 346.712089 221.203385 
L 348.127455 225.257723 
L 348.563727 226.965467 
L 354.664485 231.681408 
L 356.892012 248.612046 
L 358.923525 246.108003 
L 363.429043 248.910741 
L 364.490551 247.665128 
L 365.65657 257.69115 
L 366.452925 253.278562 
L 372.1936 257.929725 
L 373.070354 243.929272 
L 373.74606 250.093838 
L 374.421127 248.638371 
L 380.260558 244.463453 
L 380.958158 222.253359 
L 383.185685 227.208388 
L 384.306345 225.733981 
L 384.999101 222.232649 
L 389.602666 219.539358 
L 389.722715 196.252585 
L 391.236774 197.261147 
L 391.950242 205.61188 
L 392.338412 203.079653 
L 398.487273 201.637603 
L 398.487273 201.637603 
" style="fill:none;stroke:#1f77b4;stroke-linecap:square;stroke-width:1.5;"/>
   </g>
   <g id="line2d_15">
    <path clip-path="url(#p574b0d99a9)" d="M 78.8944 197.714921 
L 79.361843 197.705983 
L 80.022908 195.327466 
L 82.006101 187.013242 
L 83.328229 181.015633 
L 83.989294 177.471635 
L 84.92418 170.245039 
L 85.859066 165.245347 
L 86.326509 163.518453 
L 87.261395 161.118284 
L 87.657268 160.18926 
L 87.728838 159.543598 
L 88.196281 159.440663 
L 88.663724 158.87204 
L 89.131167 158.482732 
L 89.913886 158.271868 
L 93.338155 158.315245 
L 96.421826 178.10699 
L 98.109696 194.174891 
L 99.385495 177.82906 
L 102.102712 175.039167 
L 103.605145 207.318239 
L 104.507711 219.664489 
L 105.026995 216.296185 
L 105.186383 214.289475 
L 110.437775 213.110425 
L 110.86727 185.301444 
L 112.559403 182.384652 
L 113.156567 171.882047 
L 113.950941 167.984662 
L 166.818465 124.744783 
L 167.753351 144.540328 
L 171.960339 222.606809 
L 172.427782 235.517761 
L 172.895225 239.160836 
L 174.297554 262.388828 
L 175.23244 275.447635 
L 175.893504 280.56499 
L 176.360947 280.842876 
L 176.82839 287.099317 
L 177.295834 291.821393 
L 177.763277 294.749808 
L 178.424341 295.488 
L 178.891784 293.349627 
L 179.359227 288.001183 
L 180.020291 282.053409 
L 180.955177 268.946925 
L 180.98373 263.069594 
L 187.445378 263.069594 
L 189.748287 206.305343 
L 191.960588 204.905097 
L 192.903607 197.270784 
L 193.587253 193.355493 
L 194.926535 196.229148 
L 195.417122 191.599167 
L 196.209935 193.384186 
L 196.911454 190.759089 
L 198.512844 188.604465 
L 199.353327 189.325668 
L 199.978168 187.133552 
L 204.974492 188.793347 
L 207.277402 182.458236 
L 226.588306 194.546029 
L 231.268165 205.902798 
L 233.506757 143.940176 
L 235.948416 113.970784 
L 240.032722 81.918329 
L 242.271314 121.861082 
L 248.79728 94.615589 
L 251.035872 155.55807 
L 257.561837 125.366779 
L 259.800429 178.245784 
L 260.15353 193.475443 
L 260.620973 188.092457 
L 263.425631 146.925831 
L 265.295404 122.049029 
L 266.23029 110.644928 
L 266.326395 105.245467 
L 266.697733 104.167963 
L 267.632619 95.149695 
L 269.034948 82.148759 
L 269.502391 78.663125 
L 269.969834 76.343942 
L 271.503586 65.275905 
L 271.565785 59.5254 
L 272.226849 59.580243 
L 272.694292 60.226133 
L 273.161735 63.919824 
L 273.629178 64.602314 
L 274.290242 65.339984 
L 275.090952 66.476758 
L 278.408593 67.999096 
L 283.85551 75.957337 
L 286.845729 94.345123 
L 287.173151 68.74101 
L 292.119447 72.500899 
L 292.780511 120.278278 
L 293.312583 120.827544 
L 295.937708 119.90625 
L 302.077141 97.600994 
L 304.702266 163.277825 
L 310.841698 130.234056 
L 313.466823 53.568 
L 342.876444 222.267675 
L 344.842383 171.990952 
L 345.899928 183.500095 
L 346.712089 189.330322 
L 348.127455 193.635562 
L 348.563727 199.847153 
L 354.664485 198.66018 
L 356.892012 224.674578 
L 358.923525 229.791052 
L 363.429043 192.43498 
L 364.490551 203.848441 
L 365.65657 201.805877 
L 366.452925 202.647133 
L 372.1936 204.123176 
L 373.070354 213.57284 
L 373.74606 201.793718 
L 374.421127 202.983373 
L 380.260558 202.395583 
L 380.958158 209.712461 
L 383.185685 201.962492 
L 384.306345 188.384055 
L 384.999101 190.604751 
L 389.602666 191.625007 
L 389.722715 193.909997 
L 391.236774 193.256603 
L 391.950242 180.886385 
L 392.338412 182.356037 
L 398.487273 183.10953 
L 398.487273 183.10953 
" style="fill:none;stroke:#ff7f0e;stroke-linecap:square;stroke-width:1.5;"/>
   </g>
   <g id="patch_3">
    <path d="M 57.6 307.584 
L 57.6 41.472 
" style="fill:none;stroke:#000000;stroke-linecap:square;stroke-linejoin:miter;stroke-width:0.8;"/>
   </g>
   <g id="patch_4">
    <path d="M 414.72 307.584 
L 414.72 41.472 
" style="fill:none;stroke:#000000;stroke-linecap:square;stroke-linejoin:miter;stroke-width:0.8;"/>
   </g>
   <g id="patch_5">
    <path d="M 57.6 307.584 
L 414.72 307.584 
" style="fill:none;stroke:#000000;stroke-linecap:square;stroke-linejoin:miter;stroke-width:0.8;"/>
   </g>
   <g id="patch_6">
    <path d="M 57.6 41.472 
L 414.72 41.472 
" style="fill:none;stroke:#000000;stroke-linecap:square;stroke-linejoin:miter;stroke-width:0.8;"/>
   </g>
   <g id="legend_1">
    <g id="patch_7">
     <path d="M 350.973125 78.82825 
L 407.72 78.82825 
Q 409.72 78.82825 409.72 76.82825 
L 409.72 48.472 
Q 409.72 46.472 407.72 46.472 
L 350.973125 46.472 
Q 348.973125 46.472 348.973125 48.472 
L 348.973125 76.82825 
Q 348.973125 78.82825 350.973125 78.82825 
z
" style="fill:#ffffff;opacity:0.8;stroke:#cccccc;stroke-linejoin:miter;"/>
    </g>
    <g id="line2d_16">
     <path d="M 352.973125 54.570437 
L 372.973125 54.570437 
" style="fill:none;stroke:#1f77b4;stroke-linecap:square;stroke-width:1.5;"/>
    </g>
    <g id="line2d_17"/>
    <g id="text_14">
     <!-- uav1 -->
     <g transform="translate(380.973125 58.070437)scale(0.1 -0.1)">
      <defs>
       <path d="M 8.5 21.578125 
L 8.5 54.6875 
L 17.484375 54.6875 
L 17.484375 21.921875 
Q 17.484375 14.15625 20.5 10.265625 
Q 23.53125 6.390625 29.59375 6.390625 
Q 36.859375 6.390625 41.078125 11.03125 
Q 45.3125 15.671875 45.3125 23.6875 
L 45.3125 54.6875 
L 54.296875 54.6875 
L 54.296875 0 
L 45.3125 0 
L 45.3125 8.40625 
Q 42.046875 3.421875 37.71875 1 
Q 33.40625 -1.421875 27.6875 -1.421875 
Q 18.265625 -1.421875 13.375 4.4375 
Q 8.5 10.296875 8.5 21.578125 
z
M 31.109375 56 
z
" id="DejaVuSans-117"/>
       <path d="M 34.28125 27.484375 
Q 23.390625 27.484375 19.1875 25 
Q 14.984375 22.515625 14.984375 16.5 
Q 14.984375 11.71875 18.140625 8.90625 
Q 21.296875 6.109375 26.703125 6.109375 
Q 34.1875 6.109375 38.703125 11.40625 
Q 43.21875 16.703125 43.21875 25.484375 
L 43.21875 27.484375 
z
M 52.203125 31.203125 
L 52.203125 0 
L 43.21875 0 
L 43.21875 8.296875 
Q 40.140625 3.328125 35.546875 0.953125 
Q 30.953125 -1.421875 24.3125 -1.421875 
Q 15.921875 -1.421875 10.953125 3.296875 
Q 6 8.015625 6 15.921875 
Q 6 25.140625 12.171875 29.828125 
Q 18.359375 34.515625 30.609375 34.515625 
L 43.21875 34.515625 
L 43.21875 35.40625 
Q 43.21875 41.609375 39.140625 45 
Q 35.0625 48.390625 27.6875 48.390625 
Q 23 48.390625 18.546875 47.265625 
Q 14.109375 46.140625 10.015625 43.890625 
L 10.015625 52.203125 
Q 14.9375 54.109375 19.578125 55.046875 
Q 24.21875 56 28.609375 56 
Q 40.484375 56 46.34375 49.84375 
Q 52.203125 43.703125 52.203125 31.203125 
z
" id="DejaVuSans-97"/>
       <path d="M 2.984375 54.6875 
L 12.5 54.6875 
L 29.59375 8.796875 
L 46.6875 54.6875 
L 56.203125 54.6875 
L 35.6875 0 
L 23.484375 0 
z
" id="DejaVuSans-118"/>
      </defs>
      <use xlink:href="#DejaVuSans-117"/>
      <use x="63.378906" xlink:href="#DejaVuSans-97"/>
      <use x="124.658203" xlink:href="#DejaVuSans-118"/>
      <use x="183.837891" xlink:href="#DejaVuSans-49"/>
     </g>
    </g>
    <g id="line2d_18">
     <path d="M 352.973125 69.248562 
L 372.973125 69.248562 
" style="fill:none;stroke:#ff7f0e;stroke-linecap:square;stroke-width:1.5;"/>
    </g>
    <g id="line2d_19"/>
    <g id="text_15">
     <!-- uav2 -->
     <g transform="translate(380.973125 72.748562)scale(0.1 -0.1)">
      <use xlink:href="#DejaVuSans-117"/>
      <use x="63.378906" xlink:href="#DejaVuSans-97"/>
      <use x="124.658203" xlink:href="#DejaVuSans-118"/>
      <use x="183.837891" xlink:href="#DejaVuSans-50"/>
     </g>
    </g>
   </g>
  </g>
 </g>
 <defs>
  <clipPath id="p574b0d99a9">
   <rect height="266.112" width="357.12" x="57.6" y="41.472"/>
  </clipPath>
 </defs>
</svg>
