<?xml version="1.0" encoding="utf-8" standalone="no"?>
<!DOCTYPE svg PUBLIC "-//W3C//DTD SVG 1.1//EN"
  "http://www.w3.org/Graphics/SVG/1.1/DTD/svg11.dtd">
<!-- Created with matplotlib (https://matplotlib.org/) -->
<svg height="345.6pt" version="1.1" viewBox="0 0 460.8 345.6" width="460.8pt" xmlns="http://www.w3.org/2000/svg" xmlns:xlink="http://www.w3.org/1999/xlink">
 <metadata>
  <rdf:RDF xmlns:cc="http://creativecommons.org/ns#" xmlns:dc="http://purl.org/dc/elements/1.1/" xmlns:rdf="http://www.w3.org/1999/02/22-rdf-syntax-ns#">
   <cc:Work>
    <dc:type rdf:resource="http://purl.org/dc/dcmitype/StillImage"/>
    <dc:date>2021-07-17T11:44:26.021336</dc:date>
    <dc:format>image/svg+xml</dc:format>
    <dc:creator>
     <cc:Agent>
      <dc:title>Matplotlib v3.3.4, https://matplotlib.org/</dc:title>
     </cc:Agent>
    </dc:creator>
   </cc:Work>
  </rdf:RDF>
 </metadata>
 <defs>
  <style type="text/css">*{stroke-linecap:butt;stroke-linejoin:round;}</style>
 </defs>
 <g id="figure_1">
  <g id="patch_1">
   <path d="M 0 345.6 
L 460.8 345.6 
L 460.8 0 
L 0 0 
z
" style="fill:#ffffff;"/>
  </g>
  <g id="axes_1">
   <g id="patch_2">
    <path d="M 57.6 307.584 
L 414.72 307.584 
L 414.72 41.472 
L 57.6 41.472 
z
" style="fill:#ffffff;"/>
   </g>
   <g id="matplotlib.axis_1">
    <g id="xtick_1">
     <g id="line2d_1">
      <defs>
       <path d="M 0 0 
L 0 3.5 
" id="mdc9ea6b8f2" style="stroke:#000000;stroke-width:0.8;"/>
      </defs>
      <g>
       <use style="stroke:#000000;stroke-width:0.8;" x="65.549303" xlink:href="#mdc9ea6b8f2" y="307.584"/>
      </g>
     </g>
     <g id="text_1">
      <!-- 0 -->
      <g transform="translate(62.368053 322.182437)scale(0.1 -0.1)">
       <defs>
        <path d="M 31.78125 66.40625 
Q 24.171875 66.40625 20.328125 58.90625 
Q 16.5 51.421875 16.5 36.375 
Q 16.5 21.390625 20.328125 13.890625 
Q 24.171875 6.390625 31.78125 6.390625 
Q 39.453125 6.390625 43.28125 13.890625 
Q 47.125 21.390625 47.125 36.375 
Q 47.125 51.421875 43.28125 58.90625 
Q 39.453125 66.40625 31.78125 66.40625 
z
M 31.78125 74.21875 
Q 44.046875 74.21875 50.515625 64.515625 
Q 56.984375 54.828125 56.984375 36.375 
Q 56.984375 17.96875 50.515625 8.265625 
Q 44.046875 -1.421875 31.78125 -1.421875 
Q 19.53125 -1.421875 13.0625 8.265625 
Q 6.59375 17.96875 6.59375 36.375 
Q 6.59375 54.828125 13.0625 64.515625 
Q 19.53125 74.21875 31.78125 74.21875 
z
" id="DejaVuSans-48"/>
       </defs>
       <use xlink:href="#DejaVuSans-48"/>
      </g>
     </g>
    </g>
    <g id="xtick_2">
     <g id="line2d_2">
      <g>
       <use style="stroke:#000000;stroke-width:0.8;" x="131.816697" xlink:href="#mdc9ea6b8f2" y="307.584"/>
      </g>
     </g>
     <g id="text_2">
      <!-- 10 -->
      <g transform="translate(125.454197 322.182437)scale(0.1 -0.1)">
       <defs>
        <path d="M 12.40625 8.296875 
L 28.515625 8.296875 
L 28.515625 63.921875 
L 10.984375 60.40625 
L 10.984375 69.390625 
L 28.421875 72.90625 
L 38.28125 72.90625 
L 38.28125 8.296875 
L 54.390625 8.296875 
L 54.390625 0 
L 12.40625 0 
z
" id="DejaVuSans-49"/>
       </defs>
       <use xlink:href="#DejaVuSans-49"/>
       <use x="63.623047" xlink:href="#DejaVuSans-48"/>
      </g>
     </g>
    </g>
    <g id="xtick_3">
     <g id="line2d_3">
      <g>
       <use style="stroke:#000000;stroke-width:0.8;" x="198.084091" xlink:href="#mdc9ea6b8f2" y="307.584"/>
      </g>
     </g>
     <g id="text_3">
      <!-- 20 -->
      <g transform="translate(191.721591 322.182437)scale(0.1 -0.1)">
       <defs>
        <path d="M 19.1875 8.296875 
L 53.609375 8.296875 
L 53.609375 0 
L 7.328125 0 
L 7.328125 8.296875 
Q 12.9375 14.109375 22.625 23.890625 
Q 32.328125 33.6875 34.8125 36.53125 
Q 39.546875 41.84375 41.421875 45.53125 
Q 43.3125 49.21875 43.3125 52.78125 
Q 43.3125 58.59375 39.234375 62.25 
Q 35.15625 65.921875 28.609375 65.921875 
Q 23.96875 65.921875 18.8125 64.3125 
Q 13.671875 62.703125 7.8125 59.421875 
L 7.8125 69.390625 
Q 13.765625 71.78125 18.9375 73 
Q 24.125 74.21875 28.421875 74.21875 
Q 39.75 74.21875 46.484375 68.546875 
Q 53.21875 62.890625 53.21875 53.421875 
Q 53.21875 48.921875 51.53125 44.890625 
Q 49.859375 40.875 45.40625 35.40625 
Q 44.1875 33.984375 37.640625 27.21875 
Q 31.109375 20.453125 19.1875 8.296875 
z
" id="DejaVuSans-50"/>
       </defs>
       <use xlink:href="#DejaVuSans-50"/>
       <use x="63.623047" xlink:href="#DejaVuSans-48"/>
      </g>
     </g>
    </g>
    <g id="xtick_4">
     <g id="line2d_4">
      <g>
       <use style="stroke:#000000;stroke-width:0.8;" x="264.351485" xlink:href="#mdc9ea6b8f2" y="307.584"/>
      </g>
     </g>
     <g id="text_4">
      <!-- 30 -->
      <g transform="translate(257.988985 322.182437)scale(0.1 -0.1)">
       <defs>
        <path d="M 40.578125 39.3125 
Q 47.65625 37.796875 51.625 33 
Q 55.609375 28.21875 55.609375 21.1875 
Q 55.609375 10.40625 48.1875 4.484375 
Q 40.765625 -1.421875 27.09375 -1.421875 
Q 22.515625 -1.421875 17.65625 -0.515625 
Q 12.796875 0.390625 7.625 2.203125 
L 7.625 11.71875 
Q 11.71875 9.328125 16.59375 8.109375 
Q 21.484375 6.890625 26.8125 6.890625 
Q 36.078125 6.890625 40.9375 10.546875 
Q 45.796875 14.203125 45.796875 21.1875 
Q 45.796875 27.640625 41.28125 31.265625 
Q 36.765625 34.90625 28.71875 34.90625 
L 20.21875 34.90625 
L 20.21875 43.015625 
L 29.109375 43.015625 
Q 36.375 43.015625 40.234375 45.921875 
Q 44.09375 48.828125 44.09375 54.296875 
Q 44.09375 59.90625 40.109375 62.90625 
Q 36.140625 65.921875 28.71875 65.921875 
Q 24.65625 65.921875 20.015625 65.03125 
Q 15.375 64.15625 9.8125 62.3125 
L 9.8125 71.09375 
Q 15.4375 72.65625 20.34375 73.4375 
Q 25.25 74.21875 29.59375 74.21875 
Q 40.828125 74.21875 47.359375 69.109375 
Q 53.90625 64.015625 53.90625 55.328125 
Q 53.90625 49.265625 50.4375 45.09375 
Q 46.96875 40.921875 40.578125 39.3125 
z
" id="DejaVuSans-51"/>
       </defs>
       <use xlink:href="#DejaVuSans-51"/>
       <use x="63.623047" xlink:href="#DejaVuSans-48"/>
      </g>
     </g>
    </g>
    <g id="xtick_5">
     <g id="line2d_5">
      <g>
       <use style="stroke:#000000;stroke-width:0.8;" x="330.618879" xlink:href="#mdc9ea6b8f2" y="307.584"/>
      </g>
     </g>
     <g id="text_5">
      <!-- 40 -->
      <g transform="translate(324.256379 322.182437)scale(0.1 -0.1)">
       <defs>
        <path d="M 37.796875 64.3125 
L 12.890625 25.390625 
L 37.796875 25.390625 
z
M 35.203125 72.90625 
L 47.609375 72.90625 
L 47.609375 25.390625 
L 58.015625 25.390625 
L 58.015625 17.1875 
L 47.609375 17.1875 
L 47.609375 0 
L 37.796875 0 
L 37.796875 17.1875 
L 4.890625 17.1875 
L 4.890625 26.703125 
z
" id="DejaVuSans-52"/>
       </defs>
       <use xlink:href="#DejaVuSans-52"/>
       <use x="63.623047" xlink:href="#DejaVuSans-48"/>
      </g>
     </g>
    </g>
    <g id="xtick_6">
     <g id="line2d_6">
      <g>
       <use style="stroke:#000000;stroke-width:0.8;" x="396.886273" xlink:href="#mdc9ea6b8f2" y="307.584"/>
      </g>
     </g>
     <g id="text_6">
      <!-- 50 -->
      <g transform="translate(390.523773 322.182437)scale(0.1 -0.1)">
       <defs>
        <path d="M 10.796875 72.90625 
L 49.515625 72.90625 
L 49.515625 64.59375 
L 19.828125 64.59375 
L 19.828125 46.734375 
Q 21.96875 47.46875 24.109375 47.828125 
Q 26.265625 48.1875 28.421875 48.1875 
Q 40.625 48.1875 47.75 41.5 
Q 54.890625 34.8125 54.890625 23.390625 
Q 54.890625 11.625 47.5625 5.09375 
Q 40.234375 -1.421875 26.90625 -1.421875 
Q 22.3125 -1.421875 17.546875 -0.640625 
Q 12.796875 0.140625 7.71875 1.703125 
L 7.71875 11.625 
Q 12.109375 9.234375 16.796875 8.0625 
Q 21.484375 6.890625 26.703125 6.890625 
Q 35.15625 6.890625 40.078125 11.328125 
Q 45.015625 15.765625 45.015625 23.390625 
Q 45.015625 31 40.078125 35.4375 
Q 35.15625 39.890625 26.703125 39.890625 
Q 22.75 39.890625 18.8125 39.015625 
Q 14.890625 38.140625 10.796875 36.28125 
z
" id="DejaVuSans-53"/>
       </defs>
       <use xlink:href="#DejaVuSans-53"/>
       <use x="63.623047" xlink:href="#DejaVuSans-48"/>
      </g>
     </g>
    </g>
   </g>
   <g id="matplotlib.axis_2">
    <g id="ytick_1">
     <g id="line2d_7">
      <defs>
       <path d="M 0 0 
L -3.5 0 
" id="maffd45aa35" style="stroke:#000000;stroke-width:0.8;"/>
      </defs>
      <g>
       <use style="stroke:#000000;stroke-width:0.8;" x="57.6" xlink:href="#maffd45aa35" y="290.623423"/>
      </g>
     </g>
     <g id="text_7">
      <!-- 5 -->
      <g transform="translate(44.2375 294.422641)scale(0.1 -0.1)">
       <use xlink:href="#DejaVuSans-53"/>
      </g>
     </g>
    </g>
    <g id="ytick_2">
     <g id="line2d_8">
      <g>
       <use style="stroke:#000000;stroke-width:0.8;" x="57.6" xlink:href="#maffd45aa35" y="260.156664"/>
      </g>
     </g>
     <g id="text_8">
      <!-- 10 -->
      <g transform="translate(37.875 263.955882)scale(0.1 -0.1)">
       <use xlink:href="#DejaVuSans-49"/>
       <use x="63.623047" xlink:href="#DejaVuSans-48"/>
      </g>
     </g>
    </g>
    <g id="ytick_3">
     <g id="line2d_9">
      <g>
       <use style="stroke:#000000;stroke-width:0.8;" x="57.6" xlink:href="#maffd45aa35" y="229.689905"/>
      </g>
     </g>
     <g id="text_9">
      <!-- 15 -->
      <g transform="translate(37.875 233.489123)scale(0.1 -0.1)">
       <use xlink:href="#DejaVuSans-49"/>
       <use x="63.623047" xlink:href="#DejaVuSans-53"/>
      </g>
     </g>
    </g>
    <g id="ytick_4">
     <g id="line2d_10">
      <g>
       <use style="stroke:#000000;stroke-width:0.8;" x="57.6" xlink:href="#maffd45aa35" y="199.223146"/>
      </g>
     </g>
     <g id="text_10">
      <!-- 20 -->
      <g transform="translate(37.875 203.022364)scale(0.1 -0.1)">
       <use xlink:href="#DejaVuSans-50"/>
       <use x="63.623047" xlink:href="#DejaVuSans-48"/>
      </g>
     </g>
    </g>
    <g id="ytick_5">
     <g id="line2d_11">
      <g>
       <use style="stroke:#000000;stroke-width:0.8;" x="57.6" xlink:href="#maffd45aa35" y="168.756386"/>
      </g>
     </g>
     <g id="text_11">
      <!-- 25 -->
      <g transform="translate(37.875 172.555605)scale(0.1 -0.1)">
       <use xlink:href="#DejaVuSans-50"/>
       <use x="63.623047" xlink:href="#DejaVuSans-53"/>
      </g>
     </g>
    </g>
    <g id="ytick_6">
     <g id="line2d_12">
      <g>
       <use style="stroke:#000000;stroke-width:0.8;" x="57.6" xlink:href="#maffd45aa35" y="138.289627"/>
      </g>
     </g>
     <g id="text_12">
      <!-- 30 -->
      <g transform="translate(37.875 142.088846)scale(0.1 -0.1)">
       <use xlink:href="#DejaVuSans-51"/>
       <use x="63.623047" xlink:href="#DejaVuSans-48"/>
      </g>
     </g>
    </g>
    <g id="ytick_7">
     <g id="line2d_13">
      <g>
       <use style="stroke:#000000;stroke-width:0.8;" x="57.6" xlink:href="#maffd45aa35" y="107.822868"/>
      </g>
     </g>
     <g id="text_13">
      <!-- 35 -->
      <g transform="translate(37.875 111.622087)scale(0.1 -0.1)">
       <use xlink:href="#DejaVuSans-51"/>
       <use x="63.623047" xlink:href="#DejaVuSans-53"/>
      </g>
     </g>
    </g>
    <g id="ytick_8">
     <g id="line2d_14">
      <g>
       <use style="stroke:#000000;stroke-width:0.8;" x="57.6" xlink:href="#maffd45aa35" y="77.356109"/>
      </g>
     </g>
     <g id="text_14">
      <!-- 40 -->
      <g transform="translate(37.875 81.155328)scale(0.1 -0.1)">
       <use xlink:href="#DejaVuSans-52"/>
       <use x="63.623047" xlink:href="#DejaVuSans-48"/>
      </g>
     </g>
    </g>
    <g id="ytick_9">
     <g id="line2d_15">
      <g>
       <use style="stroke:#000000;stroke-width:0.8;" x="57.6" xlink:href="#maffd45aa35" y="46.88935"/>
      </g>
     </g>
     <g id="text_15">
      <!-- 45 -->
      <g transform="translate(37.875 50.688569)scale(0.1 -0.1)">
       <use xlink:href="#DejaVuSans-52"/>
       <use x="63.623047" xlink:href="#DejaVuSans-53"/>
      </g>
     </g>
    </g>
   </g>
   <g id="line2d_16">
    <path clip-path="url(#pcc73e4241c)" d="M 73.832727 106.562694 
L 75.489412 106.562694 
L 78.802782 124.486586 
L 81.482324 160.238809 
L 82.116152 183.542023 
L 82.116152 174.540201 
L 82.116152 174.540201 
L 85.429521 174.540201 
L 85.56254 189.739845 
L 88.742891 190.556046 
L 90.399576 147.536654 
L 90.399576 121.913278 
L 92.056261 121.913278 
L 95.36963 134.729777 
L 97.75249 163.990617 
L 98.683 185.602139 
L 98.683 191.185643 
L 98.683 191.185643 
L 101.413921 191.185643 
L 101.99637 210.429809 
L 105.309739 202.43006 
L 106.966424 152.337318 
L 106.966424 127.151119 
L 107.761395 127.151119 
L 108.623109 118.805325 
L 111.936479 125.906784 
L 115.249849 154.391799 
L 115.249849 179.140779 
L 115.249849 179.140779 
L 118.563218 179.140779 
L 120.359475 125.775164 
L 121.876588 99.209218 
L 122.644953 103.201392 
L 123.533273 103.835702 
L 123.533273 105.521697 
L 124.284776 105.521697 
L 125.189958 106.541631 
L 128.503327 112.90525 
L 131.816697 137.382757 
L 131.816697 159.02679 
L 135.130067 159.02679 
L 138.443436 180.847703 
L 140.100121 199.977602 
L 140.100121 205.016344 
L 141.756806 205.016344 
L 145.070176 205.490151 
L 145.868813 213.040354 
L 148.383546 216.112534 
L 148.383546 212.238567 
L 148.383546 212.238567 
L 151.696915 212.238567 
L 155.010285 159.512797 
L 156.66697 101.931298 
L 156.66697 74.146174 
L 160.24103 74.116297 
L 161.637024 69.347035 
L 164.950394 77.758094 
L 164.950394 102.318207 
L 164.950394 102.318207 
L 168.263764 102.318207 
L 171.577133 130.841492 
L 173.233818 162.502125 
L 173.233818 177.485271 
L 174.890503 177.485271 
L 176.258182 186.441685 
L 178.203873 195.583095 
L 181.517242 169.517312 
L 181.517242 119.303576 
L 181.517242 119.303576 
L 184.830612 119.303576 
L 188.143982 148.511001 
L 189.800667 178.156479 
L 189.800667 190.25936 
L 191.457352 190.25936 
L 194.558361 200.63621 
L 194.770721 222.528865 
L 197.84303 223.496941 
L 198.084091 241.242853 
L 198.084091 241.242853 
L 198.670141 241.242853 
L 200.544466 210.217503 
L 201.169241 199.640943 
L 201.397461 189.183438 
L 201.794016 185.402862 
L 202.235799 178.890738 
L 202.860574 171.731807 
L 204.110124 152.244153 
L 204.551906 142.906015 
L 204.71083 136.484373 
L 205.176681 134.250358 
L 205.801456 127.815178 
L 206.243239 119.506868 
L 206.367515 113.878256 
L 206.868014 112.396047 
L 207.492789 106.587779 
L 208.0242 99.806943 
L 208.117564 94.584789 
L 208.559346 93.694762 
L 209.184121 90.561484 
L 210.433671 82.476649 
L 211.33757 82.096598 
L 211.500229 80.985954 
L 212.566787 80.859296 
L 214.650939 80.778645 
L 224.591049 98.162576 
L 225.212986 98.977548 
L 227.904418 108.067179 
L 231.217788 146.360441 
L 232.818788 183.368981 
L 233.49641 192.086587 
L 234.531158 195.961206 
L 235.239971 201.257105 
L 236.016985 205.440641 
L 236.349416 203.062475 
L 237.844527 201.948696 
L 241.102212 201.055225 
L 241.157897 195.072583 
L 241.779834 195.014531 
L 243.347549 194.577077 
L 243.913236 194.766228 
L 244.471267 194.247894 
L 247.784636 194.031546 
L 249.385636 189.912272 
L 250.063259 186.332129 
L 251.098006 177.966087 
L 252.350149 183.898114 
L 253.157851 192.321833 
L 254.411376 194.361718 
L 254.763619 193.536144 
L 255.645818 193.176873 
L 255.97917 196.140434 
L 257.669061 197.160234 
L 257.724746 196.181246 
L 261.038115 195.504343 
L 263.047043 157.927538 
L 264.351485 138.660448 
L 265.952485 154.946276 
L 269.459009 193.090714 
L 270.978224 210.87226 
L 271.330467 219.991064 
L 271.657939 222.361403 
L 272.099721 224.099822 
L 274.235909 196.754241 
L 274.308634 191.806033 
L 274.750417 191.610262 
L 276.517547 172.528975 
L 277.401113 164.030519 
L 277.604964 160.07769 
L 278.025888 158.331133 
L 278.650663 154.838969 
L 280.524988 139.388586 
L 281.149763 130.495692 
L 281.591545 128.45592 
L 282.47511 120.321029 
L 282.519333 116.653307 
L 282.916893 116.306243 
L 283.358676 113.25891 
L 283.983451 110.082764 
L 284.425233 104.116611 
L 284.867016 102.698942 
L 285.750581 97.058155 
L 287.545073 94.970146 
L 290.069559 103.073873 
L 290.802758 115.583662 
L 290.858443 128.049017 
L 294.171812 128.997133 
L 297.485182 182.735119 
L 298.352984 217.429773 
L 298.996342 219.45324 
L 299.086182 224.813586 
L 299.621117 223.914031 
L 300.245892 218.704121 
L 300.798552 212.938754 
L 300.870667 208.129727 
L 301.495442 207.522843 
L 303.186774 193.41242 
L 303.811549 190.557448 
L 304.111921 186.660998 
L 304.878107 183.109154 
L 305.502882 180.797524 
L 306.752432 174.610465 
L 307.369606 171.918719 
L 307.425291 169.429162 
L 308.001982 169.233947 
L 308.626757 167.062373 
L 309.251532 165.406407 
L 309.765747 164.58187 
L 309.876307 164.942971 
L 310.31809 165.416592 
L 310.738661 167.294623 
L 310.942865 169.058898 
L 311.567639 169.906429 
L 312.192414 172.45872 
L 314.05203 174.94256 
L 315.65303 181.839038 
L 315.991332 187.031631 
L 317.3654 188.024022 
L 320.67877 191.627826 
L 323.99214 197.227585 
L 324.274756 197.016993 
L 324.646116 195.995993 
L 327.305509 195.94056 
L 330.618879 193.798546 
L 332.219879 186.834922 
L 332.558181 182.052595 
L 333.932249 182.801289 
L 335.126001 186.846258 
L 336.027121 191.830726 
L 337.245618 194.04656 
L 340.503303 193.208076 
L 340.558988 187.848747 
L 340.841605 188.079573 
L 343.872358 189.295659 
L 345.363379 200.608627 
L 347.185727 209.448875 
L 347.763449 213.445774 
L 348.786727 215.406396 
L 349.125029 216.62993 
L 350.499097 217.979779 
L 350.724838 220.634467 
L 351.778866 221.24691 
L 353.812467 222.067313 
L 355.039902 226.171491 
L 357.070151 217.570151 
L 357.125837 224.36845 
L 357.408453 224.527178 
L 360.439206 225.378972 
L 362.797115 238.571639 
L 363.489964 254.751999 
L 363.752576 252.957414 
L 364.015026 253.830349 
L 364.416257 254.766815 
L 365.353576 256.05221 
L 365.691878 255.572461 
L 366.152347 255.41731 
L 366.512902 259.39842 
L 367.065946 260.308839 
L 370.379315 259.576682 
L 373.637 244.083498 
L 373.692685 218.075078 
L 373.975302 218.165136 
L 377.006055 218.650136 
L 379.732075 226.149452 
L 380.319424 235.2214 
L 381.920424 235.162822 
L 382.258726 236.315813 
L 383.632794 236.301332 
L 386.085279 236.898268 
L 386.946164 241.713573 
L 388.869381 239.813549 
L 390.203848 238.11123 
L 390.259534 234.210916 
L 391.851438 232.026971 
L 392.66056 229.321091 
L 393.144682 226.085981 
L 393.572903 223.988208 
L 396.886273 223.71377 
L 398.487273 216.261983 
L 398.487273 216.261983 
" style="fill:none;stroke:#1f77b4;stroke-linecap:square;stroke-width:1.5;"/>
   </g>
   <g id="line2d_17">
    <path clip-path="url(#pcc73e4241c)" d="M 75.489412 160.334327 
L 78.802782 153.749041 
L 81.482324 148.929007 
L 82.116152 153.130997 
L 82.116152 162.836459 
L 82.116152 162.836459 
L 85.429521 162.836459 
L 85.56254 136.490799 
L 88.742891 135.451499 
L 90.399576 178.876215 
L 90.399576 193.701164 
L 92.056261 193.701164 
L 95.36963 180.156628 
L 98.683 151.926863 
L 98.683 145.160861 
L 98.683 145.160861 
L 101.413921 145.160861 
L 101.99637 126.66266 
L 105.309739 135.450799 
L 106.966424 175.132922 
L 106.966424 184.212281 
L 107.761395 184.212281 
L 108.623109 193.425085 
L 111.936479 187.783846 
L 115.249849 172.652943 
L 115.249849 168.061372 
L 115.249849 168.061372 
L 118.563218 168.061372 
L 120.359475 196.318668 
L 121.876588 194.051042 
L 122.644953 203.102472 
L 123.533273 208.401379 
L 123.533273 213.32046 
L 124.284776 213.32046 
L 125.189958 217.528285 
L 128.503327 211.155583 
L 131.816697 194.293977 
L 131.816697 187.885078 
L 131.816697 187.885078 
L 135.130067 187.885078 
L 138.443436 170.029966 
L 140.100121 159.947443 
L 140.100121 158.09457 
L 141.756806 158.09457 
L 145.070176 155.632003 
L 145.868813 143.193924 
L 148.383546 139.38188 
L 148.383546 132.944392 
L 148.383546 132.944392 
L 151.696915 132.944392 
L 155.010285 188.399409 
L 156.66697 222.644938 
L 156.66697 221.232342 
L 158.323655 221.232342 
L 160.24103 229.798414 
L 161.637024 241.116313 
L 164.950394 225.911433 
L 164.950394 197.023165 
L 164.950394 197.023165 
L 168.263764 197.023165 
L 171.577133 172.704701 
L 173.233818 158.929486 
L 173.233818 156.048873 
L 174.890503 156.048873 
L 176.258182 142.942425 
L 178.203873 132.619415 
L 181.517242 159.807451 
L 181.517242 188.547083 
L 181.517242 188.547083 
L 184.830612 188.547083 
L 189.800667 157.597806 
L 191.457352 157.597806 
L 194.558361 147.514975 
L 194.770721 131.865597 
L 197.84303 130.818145 
L 198.084091 114.980571 
L 198.084091 114.980571 
L 198.670141 114.980571 
L 199.294916 123.30938 
L 201.169241 164.049003 
L 201.397461 177.612014 
L 201.794016 182.563051 
L 202.235799 191.16276 
L 202.860574 196.75747 
L 204.110124 223.566006 
L 204.71083 242.100358 
L 205.176681 245.419795 
L 205.801456 255.11457 
L 206.367515 272.397923 
L 206.868014 274.815524 
L 207.492789 284.362248 
L 208.0242 295.488 
L 208.117564 294.832648 
L 208.559346 294.7096 
L 209.184121 293.944055 
L 209.808896 293.853506 
L 210.433671 290.036583 
L 211.058446 281.736888 
L 211.500229 269.991484 
L 211.942012 269.563131 
L 212.566787 263.977828 
L 214.650939 255.942629 
L 224.591049 184.084596 
L 225.212986 183.265556 
L 227.904418 174.157619 
L 231.217788 136.07304 
L 233.49641 78.055078 
L 234.531158 76.336919 
L 236.016985 71.479239 
L 236.349416 75.490408 
L 237.844527 77.213497 
L 241.102212 75.746311 
L 241.157897 74.614905 
L 241.779834 74.892863 
L 243.347549 77.688531 
L 243.913236 82.485657 
L 244.471267 84.387181 
L 247.784636 83.858655 
L 249.385636 82.269766 
L 250.063259 82.460195 
L 255.645818 82.720234 
L 255.97917 82.096727 
L 257.669061 81.827289 
L 257.724746 80.315833 
L 261.038115 80.943769 
L 263.047043 118.971899 
L 264.351485 140.931171 
L 265.952485 124.39181 
L 269.459009 83.42956 
L 271.330467 55.40196 
L 271.657939 53.568 
L 272.099721 57.093598 
L 274.235909 113.88039 
L 274.308634 124.796947 
L 274.750417 125.234893 
L 277.401113 193.328609 
L 277.604964 204.669626 
L 278.025888 209.28012 
L 278.650663 218.702267 
L 280.918333 269.997636 
L 281.149763 276.769429 
L 281.591545 280.433779 
L 282.033328 280.345555 
L 282.47511 280.067887 
L 282.519333 279.649464 
L 282.916893 279.601449 
L 283.983451 278.517254 
L 284.231703 278.403754 
L 284.425233 278.075513 
L 284.867016 277.779087 
L 285.750581 276.266303 
L 287.545073 275.501546 
L 290.069559 250.751864 
L 290.858443 209.925083 
L 294.171812 209.407088 
L 297.485182 164.76246 
L 298.352984 109.10197 
L 298.996342 94.376268 
L 299.086182 98.204782 
L 299.621117 100.33551 
L 300.245892 113.020803 
L 300.798552 127.831247 
L 300.870667 140.926268 
L 301.495442 142.634662 
L 302.744992 172.213156 
L 303.186774 186.982844 
L 303.811549 193.831726 
L 304.111921 208.463639 
L 304.878107 223.053729 
L 305.502882 229.530453 
L 307.369606 271.970854 
L 307.425291 285.506058 
L 308.001982 285.625207 
L 308.626757 286.308011 
L 309.251532 285.665206 
L 309.765747 283.919904 
L 309.876307 282.171888 
L 310.31809 280.656865 
L 310.738661 275.735016 
L 310.942865 270.032452 
L 311.567639 267.256065 
L 312.192414 258.739168 
L 314.05203 250.198 
L 315.65303 224.549553 
L 315.991332 202.467826 
L 317.3654 197.801796 
L 320.67877 197.413939 
L 323.936454 192.730141 
L 323.99214 183.688509 
L 324.274756 183.767631 
L 324.646116 184.215496 
L 327.305509 185.9189 
L 330.618879 177.31962 
L 332.219879 164.413928 
L 332.558181 157.659378 
L 333.932249 159.680492 
L 335.126001 168.61424 
L 336.027121 177.321921 
L 337.245618 183.106066 
L 340.503303 179.370252 
L 340.558988 167.685342 
L 340.841605 168.080244 
L 343.872358 170.109339 
L 345.363379 191.5542 
L 347.185727 203.838028 
L 347.763449 215.218286 
L 348.786727 219.331955 
L 349.125029 225.065893 
L 350.499097 221.377995 
L 350.724838 229.738481 
L 351.778866 231.249864 
L 353.812467 236.732041 
L 355.039902 209.682813 
L 357.070151 189.061091 
L 357.125837 200.361307 
L 357.408453 200.659959 
L 360.439206 202.196694 
L 362.797115 219.875506 
L 363.489964 232.810947 
L 363.752576 219.554348 
L 364.015026 220.56635 
L 364.416257 221.578078 
L 365.353576 223.075126 
L 365.691878 225.363968 
L 366.152347 222.690254 
L 366.512902 223.98999 
L 367.065946 225.160599 
L 370.379315 220.42183 
L 373.637 190.536706 
L 373.692685 160.659649 
L 373.975302 160.820982 
L 377.006055 161.645733 
L 379.732075 170.509078 
L 380.319424 175.96188 
L 381.920424 177.229836 
L 382.258726 181.255293 
L 383.632794 182.064045 
L 386.085279 185.714107 
L 386.946164 193.507084 
L 388.869381 194.912762 
L 390.203848 199.763987 
L 390.259534 201.744307 
L 391.851438 201.283502 
L 392.66056 204.262023 
L 393.144682 204.934498 
L 393.572903 205.199374 
L 396.886273 203.016264 
L 398.487273 183.996151 
L 398.487273 183.996151 
" style="fill:none;stroke:#ff7f0e;stroke-linecap:square;stroke-width:1.5;"/>
   </g>
   <g id="patch_3">
    <path d="M 57.6 307.584 
L 57.6 41.472 
" style="fill:none;stroke:#000000;stroke-linecap:square;stroke-linejoin:miter;stroke-width:0.8;"/>
   </g>
   <g id="patch_4">
    <path d="M 414.72 307.584 
L 414.72 41.472 
" style="fill:none;stroke:#000000;stroke-linecap:square;stroke-linejoin:miter;stroke-width:0.8;"/>
   </g>
   <g id="patch_5">
    <path d="M 57.6 307.584 
L 414.72 307.584 
" style="fill:none;stroke:#000000;stroke-linecap:square;stroke-linejoin:miter;stroke-width:0.8;"/>
   </g>
   <g id="patch_6">
    <path d="M 57.6 41.472 
L 414.72 41.472 
" style="fill:none;stroke:#000000;stroke-linecap:square;stroke-linejoin:miter;stroke-width:0.8;"/>
   </g>
   <g id="legend_1">
    <g id="patch_7">
     <path d="M 350.973125 78.82825 
L 407.72 78.82825 
Q 409.72 78.82825 409.72 76.82825 
L 409.72 48.472 
Q 409.72 46.472 407.72 46.472 
L 350.973125 46.472 
Q 348.973125 46.472 348.973125 48.472 
L 348.973125 76.82825 
Q 348.973125 78.82825 350.973125 78.82825 
z
" style="fill:#ffffff;opacity:0.8;stroke:#cccccc;stroke-linejoin:miter;"/>
    </g>
    <g id="line2d_18">
     <path d="M 352.973125 54.570437 
L 372.973125 54.570437 
" style="fill:none;stroke:#1f77b4;stroke-linecap:square;stroke-width:1.5;"/>
    </g>
    <g id="line2d_19"/>
    <g id="text_16">
     <!-- uav1 -->
     <g transform="translate(380.973125 58.070437)scale(0.1 -0.1)">
      <defs>
       <path d="M 8.5 21.578125 
L 8.5 54.6875 
L 17.484375 54.6875 
L 17.484375 21.921875 
Q 17.484375 14.15625 20.5 10.265625 
Q 23.53125 6.390625 29.59375 6.390625 
Q 36.859375 6.390625 41.078125 11.03125 
Q 45.3125 15.671875 45.3125 23.6875 
L 45.3125 54.6875 
L 54.296875 54.6875 
L 54.296875 0 
L 45.3125 0 
L 45.3125 8.40625 
Q 42.046875 3.421875 37.71875 1 
Q 33.40625 -1.421875 27.6875 -1.421875 
Q 18.265625 -1.421875 13.375 4.4375 
Q 8.5 10.296875 8.5 21.578125 
z
M 31.109375 56 
z
" id="DejaVuSans-117"/>
       <path d="M 34.28125 27.484375 
Q 23.390625 27.484375 19.1875 25 
Q 14.984375 22.515625 14.984375 16.5 
Q 14.984375 11.71875 18.140625 8.90625 
Q 21.296875 6.109375 26.703125 6.109375 
Q 34.1875 6.109375 38.703125 11.40625 
Q 43.21875 16.703125 43.21875 25.484375 
L 43.21875 27.484375 
z
M 52.203125 31.203125 
L 52.203125 0 
L 43.21875 0 
L 43.21875 8.296875 
Q 40.140625 3.328125 35.546875 0.953125 
Q 30.953125 -1.421875 24.3125 -1.421875 
Q 15.921875 -1.421875 10.953125 3.296875 
Q 6 8.015625 6 15.921875 
Q 6 25.140625 12.171875 29.828125 
Q 18.359375 34.515625 30.609375 34.515625 
L 43.21875 34.515625 
L 43.21875 35.40625 
Q 43.21875 41.609375 39.140625 45 
Q 35.0625 48.390625 27.6875 48.390625 
Q 23 48.390625 18.546875 47.265625 
Q 14.109375 46.140625 10.015625 43.890625 
L 10.015625 52.203125 
Q 14.9375 54.109375 19.578125 55.046875 
Q 24.21875 56 28.609375 56 
Q 40.484375 56 46.34375 49.84375 
Q 52.203125 43.703125 52.203125 31.203125 
z
" id="DejaVuSans-97"/>
       <path d="M 2.984375 54.6875 
L 12.5 54.6875 
L 29.59375 8.796875 
L 46.6875 54.6875 
L 56.203125 54.6875 
L 35.6875 0 
L 23.484375 0 
z
" id="DejaVuSans-118"/>
      </defs>
      <use xlink:href="#DejaVuSans-117"/>
      <use x="63.378906" xlink:href="#DejaVuSans-97"/>
      <use x="124.658203" xlink:href="#DejaVuSans-118"/>
      <use x="183.837891" xlink:href="#DejaVuSans-49"/>
     </g>
    </g>
    <g id="line2d_20">
     <path d="M 352.973125 69.248562 
L 372.973125 69.248562 
" style="fill:none;stroke:#ff7f0e;stroke-linecap:square;stroke-width:1.5;"/>
    </g>
    <g id="line2d_21"/>
    <g id="text_17">
     <!-- uav2 -->
     <g transform="translate(380.973125 72.748562)scale(0.1 -0.1)">
      <use xlink:href="#DejaVuSans-117"/>
      <use x="63.378906" xlink:href="#DejaVuSans-97"/>
      <use x="124.658203" xlink:href="#DejaVuSans-118"/>
      <use x="183.837891" xlink:href="#DejaVuSans-50"/>
     </g>
    </g>
   </g>
  </g>
 </g>
 <defs>
  <clipPath id="pcc73e4241c">
   <rect height="266.112" width="357.12" x="57.6" y="41.472"/>
  </clipPath>
 </defs>
</svg>
