<?xml version="1.0" encoding="utf-8" standalone="no"?>
<!DOCTYPE svg PUBLIC "-//W3C//DTD SVG 1.1//EN"
  "http://www.w3.org/Graphics/SVG/1.1/DTD/svg11.dtd">
<!-- Created with matplotlib (https://matplotlib.org/) -->
<svg height="345.6pt" version="1.1" viewBox="0 0 460.8 345.6" width="460.8pt" xmlns="http://www.w3.org/2000/svg" xmlns:xlink="http://www.w3.org/1999/xlink">
 <metadata>
  <rdf:RDF xmlns:cc="http://creativecommons.org/ns#" xmlns:dc="http://purl.org/dc/elements/1.1/" xmlns:rdf="http://www.w3.org/1999/02/22-rdf-syntax-ns#">
   <cc:Work>
    <dc:type rdf:resource="http://purl.org/dc/dcmitype/StillImage"/>
    <dc:date>2021-07-22T11:44:25.407465</dc:date>
    <dc:format>image/svg+xml</dc:format>
    <dc:creator>
     <cc:Agent>
      <dc:title>Matplotlib v3.3.4, https://matplotlib.org/</dc:title>
     </cc:Agent>
    </dc:creator>
   </cc:Work>
  </rdf:RDF>
 </metadata>
 <defs>
  <style type="text/css">*{stroke-linecap:butt;stroke-linejoin:round;}</style>
 </defs>
 <g id="figure_1">
  <g id="patch_1">
   <path d="M 0 345.6 
L 460.8 345.6 
L 460.8 0 
L 0 0 
z
" style="fill:#ffffff;"/>
  </g>
  <g id="axes_1">
   <g id="patch_2">
    <path d="M 57.6 307.584 
L 414.72 307.584 
L 414.72 41.472 
L 57.6 41.472 
z
" style="fill:#ffffff;"/>
   </g>
   <g id="matplotlib.axis_1">
    <g id="xtick_1">
     <g id="line2d_1">
      <defs>
       <path d="M 0 0 
L 0 3.5 
" id="md466b79870" style="stroke:#000000;stroke-width:0.8;"/>
      </defs>
      <g>
       <use style="stroke:#000000;stroke-width:0.8;" x="65.572114" xlink:href="#md466b79870" y="307.584"/>
      </g>
     </g>
     <g id="text_1">
      <!-- 0 -->
      <g transform="translate(62.390864 322.182437)scale(0.1 -0.1)">
       <defs>
        <path d="M 31.78125 66.40625 
Q 24.171875 66.40625 20.328125 58.90625 
Q 16.5 51.421875 16.5 36.375 
Q 16.5 21.390625 20.328125 13.890625 
Q 24.171875 6.390625 31.78125 6.390625 
Q 39.453125 6.390625 43.28125 13.890625 
Q 47.125 21.390625 47.125 36.375 
Q 47.125 51.421875 43.28125 58.90625 
Q 39.453125 66.40625 31.78125 66.40625 
z
M 31.78125 74.21875 
Q 44.046875 74.21875 50.515625 64.515625 
Q 56.984375 54.828125 56.984375 36.375 
Q 56.984375 17.96875 50.515625 8.265625 
Q 44.046875 -1.421875 31.78125 -1.421875 
Q 19.53125 -1.421875 13.0625 8.265625 
Q 6.59375 17.96875 6.59375 36.375 
Q 6.59375 54.828125 13.0625 64.515625 
Q 19.53125 74.21875 31.78125 74.21875 
z
" id="DejaVuSans-48"/>
       </defs>
       <use xlink:href="#DejaVuSans-48"/>
      </g>
     </g>
    </g>
    <g id="xtick_2">
     <g id="line2d_2">
      <g>
       <use style="stroke:#000000;stroke-width:0.8;" x="131.65702" xlink:href="#md466b79870" y="307.584"/>
      </g>
     </g>
     <g id="text_2">
      <!-- 10 -->
      <g transform="translate(125.29452 322.182437)scale(0.1 -0.1)">
       <defs>
        <path d="M 12.40625 8.296875 
L 28.515625 8.296875 
L 28.515625 63.921875 
L 10.984375 60.40625 
L 10.984375 69.390625 
L 28.421875 72.90625 
L 38.28125 72.90625 
L 38.28125 8.296875 
L 54.390625 8.296875 
L 54.390625 0 
L 12.40625 0 
z
" id="DejaVuSans-49"/>
       </defs>
       <use xlink:href="#DejaVuSans-49"/>
       <use x="63.623047" xlink:href="#DejaVuSans-48"/>
      </g>
     </g>
    </g>
    <g id="xtick_3">
     <g id="line2d_3">
      <g>
       <use style="stroke:#000000;stroke-width:0.8;" x="197.741926" xlink:href="#md466b79870" y="307.584"/>
      </g>
     </g>
     <g id="text_3">
      <!-- 20 -->
      <g transform="translate(191.379426 322.182437)scale(0.1 -0.1)">
       <defs>
        <path d="M 19.1875 8.296875 
L 53.609375 8.296875 
L 53.609375 0 
L 7.328125 0 
L 7.328125 8.296875 
Q 12.9375 14.109375 22.625 23.890625 
Q 32.328125 33.6875 34.8125 36.53125 
Q 39.546875 41.84375 41.421875 45.53125 
Q 43.3125 49.21875 43.3125 52.78125 
Q 43.3125 58.59375 39.234375 62.25 
Q 35.15625 65.921875 28.609375 65.921875 
Q 23.96875 65.921875 18.8125 64.3125 
Q 13.671875 62.703125 7.8125 59.421875 
L 7.8125 69.390625 
Q 13.765625 71.78125 18.9375 73 
Q 24.125 74.21875 28.421875 74.21875 
Q 39.75 74.21875 46.484375 68.546875 
Q 53.21875 62.890625 53.21875 53.421875 
Q 53.21875 48.921875 51.53125 44.890625 
Q 49.859375 40.875 45.40625 35.40625 
Q 44.1875 33.984375 37.640625 27.21875 
Q 31.109375 20.453125 19.1875 8.296875 
z
" id="DejaVuSans-50"/>
       </defs>
       <use xlink:href="#DejaVuSans-50"/>
       <use x="63.623047" xlink:href="#DejaVuSans-48"/>
      </g>
     </g>
    </g>
    <g id="xtick_4">
     <g id="line2d_4">
      <g>
       <use style="stroke:#000000;stroke-width:0.8;" x="263.826831" xlink:href="#md466b79870" y="307.584"/>
      </g>
     </g>
     <g id="text_4">
      <!-- 30 -->
      <g transform="translate(257.464331 322.182437)scale(0.1 -0.1)">
       <defs>
        <path d="M 40.578125 39.3125 
Q 47.65625 37.796875 51.625 33 
Q 55.609375 28.21875 55.609375 21.1875 
Q 55.609375 10.40625 48.1875 4.484375 
Q 40.765625 -1.421875 27.09375 -1.421875 
Q 22.515625 -1.421875 17.65625 -0.515625 
Q 12.796875 0.390625 7.625 2.203125 
L 7.625 11.71875 
Q 11.71875 9.328125 16.59375 8.109375 
Q 21.484375 6.890625 26.8125 6.890625 
Q 36.078125 6.890625 40.9375 10.546875 
Q 45.796875 14.203125 45.796875 21.1875 
Q 45.796875 27.640625 41.28125 31.265625 
Q 36.765625 34.90625 28.71875 34.90625 
L 20.21875 34.90625 
L 20.21875 43.015625 
L 29.109375 43.015625 
Q 36.375 43.015625 40.234375 45.921875 
Q 44.09375 48.828125 44.09375 54.296875 
Q 44.09375 59.90625 40.109375 62.90625 
Q 36.140625 65.921875 28.71875 65.921875 
Q 24.65625 65.921875 20.015625 65.03125 
Q 15.375 64.15625 9.8125 62.3125 
L 9.8125 71.09375 
Q 15.4375 72.65625 20.34375 73.4375 
Q 25.25 74.21875 29.59375 74.21875 
Q 40.828125 74.21875 47.359375 69.109375 
Q 53.90625 64.015625 53.90625 55.328125 
Q 53.90625 49.265625 50.4375 45.09375 
Q 46.96875 40.921875 40.578125 39.3125 
z
" id="DejaVuSans-51"/>
       </defs>
       <use xlink:href="#DejaVuSans-51"/>
       <use x="63.623047" xlink:href="#DejaVuSans-48"/>
      </g>
     </g>
    </g>
    <g id="xtick_5">
     <g id="line2d_5">
      <g>
       <use style="stroke:#000000;stroke-width:0.8;" x="329.911737" xlink:href="#md466b79870" y="307.584"/>
      </g>
     </g>
     <g id="text_5">
      <!-- 40 -->
      <g transform="translate(323.549237 322.182437)scale(0.1 -0.1)">
       <defs>
        <path d="M 37.796875 64.3125 
L 12.890625 25.390625 
L 37.796875 25.390625 
z
M 35.203125 72.90625 
L 47.609375 72.90625 
L 47.609375 25.390625 
L 58.015625 25.390625 
L 58.015625 17.1875 
L 47.609375 17.1875 
L 47.609375 0 
L 37.796875 0 
L 37.796875 17.1875 
L 4.890625 17.1875 
L 4.890625 26.703125 
z
" id="DejaVuSans-52"/>
       </defs>
       <use xlink:href="#DejaVuSans-52"/>
       <use x="63.623047" xlink:href="#DejaVuSans-48"/>
      </g>
     </g>
    </g>
    <g id="xtick_6">
     <g id="line2d_6">
      <g>
       <use style="stroke:#000000;stroke-width:0.8;" x="395.996643" xlink:href="#md466b79870" y="307.584"/>
      </g>
     </g>
     <g id="text_6">
      <!-- 50 -->
      <g transform="translate(389.634143 322.182437)scale(0.1 -0.1)">
       <defs>
        <path d="M 10.796875 72.90625 
L 49.515625 72.90625 
L 49.515625 64.59375 
L 19.828125 64.59375 
L 19.828125 46.734375 
Q 21.96875 47.46875 24.109375 47.828125 
Q 26.265625 48.1875 28.421875 48.1875 
Q 40.625 48.1875 47.75 41.5 
Q 54.890625 34.8125 54.890625 23.390625 
Q 54.890625 11.625 47.5625 5.09375 
Q 40.234375 -1.421875 26.90625 -1.421875 
Q 22.3125 -1.421875 17.546875 -0.640625 
Q 12.796875 0.140625 7.71875 1.703125 
L 7.71875 11.625 
Q 12.109375 9.234375 16.796875 8.0625 
Q 21.484375 6.890625 26.703125 6.890625 
Q 35.15625 6.890625 40.078125 11.328125 
Q 45.015625 15.765625 45.015625 23.390625 
Q 45.015625 31 40.078125 35.4375 
Q 35.15625 39.890625 26.703125 39.890625 
Q 22.75 39.890625 18.8125 39.015625 
Q 14.890625 38.140625 10.796875 36.28125 
z
" id="DejaVuSans-53"/>
       </defs>
       <use xlink:href="#DejaVuSans-53"/>
       <use x="63.623047" xlink:href="#DejaVuSans-48"/>
      </g>
     </g>
    </g>
   </g>
   <g id="matplotlib.axis_2">
    <g id="ytick_1">
     <g id="line2d_7">
      <defs>
       <path d="M 0 0 
L -3.5 0 
" id="m9266d9f824" style="stroke:#000000;stroke-width:0.8;"/>
      </defs>
      <g>
       <use style="stroke:#000000;stroke-width:0.8;" x="57.6" xlink:href="#m9266d9f824" y="277.158326"/>
      </g>
     </g>
     <g id="text_7">
      <!-- 10 -->
      <g transform="translate(37.875 280.957545)scale(0.1 -0.1)">
       <use xlink:href="#DejaVuSans-49"/>
       <use x="63.623047" xlink:href="#DejaVuSans-48"/>
      </g>
     </g>
    </g>
    <g id="ytick_2">
     <g id="line2d_8">
      <g>
       <use style="stroke:#000000;stroke-width:0.8;" x="57.6" xlink:href="#m9266d9f824" y="218.039756"/>
      </g>
     </g>
     <g id="text_8">
      <!-- 20 -->
      <g transform="translate(37.875 221.838974)scale(0.1 -0.1)">
       <use xlink:href="#DejaVuSans-50"/>
       <use x="63.623047" xlink:href="#DejaVuSans-48"/>
      </g>
     </g>
    </g>
    <g id="ytick_3">
     <g id="line2d_9">
      <g>
       <use style="stroke:#000000;stroke-width:0.8;" x="57.6" xlink:href="#m9266d9f824" y="158.921185"/>
      </g>
     </g>
     <g id="text_9">
      <!-- 30 -->
      <g transform="translate(37.875 162.720403)scale(0.1 -0.1)">
       <use xlink:href="#DejaVuSans-51"/>
       <use x="63.623047" xlink:href="#DejaVuSans-48"/>
      </g>
     </g>
    </g>
    <g id="ytick_4">
     <g id="line2d_10">
      <g>
       <use style="stroke:#000000;stroke-width:0.8;" x="57.6" xlink:href="#m9266d9f824" y="99.802614"/>
      </g>
     </g>
     <g id="text_10">
      <!-- 40 -->
      <g transform="translate(37.875 103.601833)scale(0.1 -0.1)">
       <use xlink:href="#DejaVuSans-52"/>
       <use x="63.623047" xlink:href="#DejaVuSans-48"/>
      </g>
     </g>
    </g>
   </g>
   <g id="line2d_11">
    <path clip-path="url(#pdf659f8a41)" d="M 73.832727 177.75202 
L 75.48485 177.75202 
L 78.789095 192.882384 
L 81.457909 219.954371 
L 82.09334 230.317842 
L 82.09334 229.368407 
L 82.532372 229.368407 
L 82.972938 228.789011 
L 83.595993 223.727868 
L 85.397586 204.304398 
L 85.465156 199.115243 
L 85.905722 198.503528 
L 86.528776 194.603079 
L 86.969342 189.490563 
L 87.592397 186.080621 
L 88.032963 181.692709 
L 88.656017 178.799686 
L 88.701831 175.184746 
L 89.096583 174.93266 
L 89.719638 172.845328 
L 90.353954 168.345934 
L 90.783258 167.742456 
L 91.223824 166.545073 
L 91.846879 165.526652 
L 92.006076 164.900738 
L 93.092988 164.813299 
L 95.585206 171.869028 
L 96.025772 172.375013 
L 96.648826 174.221995 
L 97.089392 176.82073 
L 98.614567 178.645679 
L 98.614567 184.845043 
L 101.385591 184.845043 
L 101.918812 195.342279 
L 104.747297 200.226981 
L 105.223058 209.891012 
L 105.9117 210.588054 
L 106.87518 211.989019 
L 108.527303 210.992628 
L 109.646204 210.882452 
L 110.447685 210.157017 
L 111.831548 214.587895 
L 115.135793 213.631719 
L 115.135793 207.999261 
L 117.300326 207.999261 
L 117.906818 219.957076 
L 118.440039 222.852667 
L 118.538404 225.482518 
L 121.744284 225.996302 
L 123.396407 232.728945 
L 125.048529 240.115196 
L 125.540708 239.831044 
L 126.167431 236.951091 
L 127.182627 240.266954 
L 127.821077 245.95455 
L 128.352775 249.152759 
L 131.65702 249.103378 
L 143.712255 278.822539 
L 144.874001 281.467267 
L 148.178246 276.396771 
L 150.668876 269.005832 
L 151.482492 272.85554 
L 151.490128 276.753425 
L 154.786737 276.793815 
L 158.090982 258.563806 
L 158.244402 250.316663 
L 158.929489 250.184349 
L 159.209884 255.472773 
L 161.395227 257.106418 
L 164.699473 253.836438 
L 167.190103 239.528331 
L 167.470497 223.98062 
L 168.003718 223.543241 
L 171.307963 222.842132 
L 172.204591 224.17226 
L 174.612209 226.238034 
L 175.73111 213.691853 
L 176.18049 215.854735 
L 177.916454 218.576441 
L 179.631373 210.648793 
L 181.220699 205.632055 
L 181.605799 213.274105 
L 182.320188 213.658882 
L 183.711329 213.148491 
L 183.991723 212.274774 
L 184.550281 212.274439 
L 187.82919 212.283959 
L 191.133435 209.191976 
L 192.252336 199.498643 
L 194.43768 200.504586 
L 194.863572 210.609937 
L 195.854157 213.072417 
L 196.247217 216.933462 
L 197.741926 218.340357 
L 200.232555 217.472593 
L 200.51295 213.613103 
L 201.046171 215.011658 
L 202.241874 217.811192 
L 203.491026 229.224285 
L 204.350416 231.251849 
L 207.654661 230.743691 
L 208.773563 221.618514 
L 210.958907 222.134922 
L 211.706398 236.505561 
L 213.590885 242.015989 
L 214.263152 252.490359 
L 214.881285 255.63477 
L 215.797172 258.851775 
L 216.461754 262.926643 
L 216.753782 265.639895 
L 217.16761 266.724683 
L 217.567397 268.287313 
L 217.916654 267.887432 
L 218.789211 267.329151 
L 220.871643 270.562578 
L 224.175888 240.815384 
L 224.620445 181.206689 
L 225.014395 173.079512 
L 226.177267 174.937257 
L 227.480133 180.669202 
L 230.784378 187.369068 
L 233.275008 205.028083 
L 234.088624 215.405119 
L 234.437881 210.938449 
L 237.392869 208.398636 
L 240.697114 215.384943 
L 241.535622 226.712269 
L 242.698494 229.625951 
L 247.305605 230.645113 
L 247.916113 238.381434 
L 249.796235 240.676922 
L 250.60985 236.93705 
L 250.959107 228.970341 
L 253.914095 224.767187 
L 255.095577 224.848628 
L 257.110212 227.133596 
L 257.218341 223.208293 
L 257.994838 222.871706 
L 258.056848 220.791399 
L 259.21972 220.708293 
L 260.522586 216.134979 
L 261.285172 216.185936 
L 262.087988 216.984479 
L 263.826831 215.620845 
L 266.317461 214.242355 
L 267.131077 209.924754 
L 267.480334 210.377263 
L 268.538246 210.769816 
L 270.435322 212.016351 
L 272.77544 185.730716 
L 273.208644 192.080909 
L 273.739567 194.346871 
L 274.578074 196.188296 
L 275.740947 199.606754 
L 277.043812 204.843768 
L 277.246333 192.114884 
L 280.348058 189.761596 
L 281.104563 207.462413 
L 282.66872 212.898284 
L 282.838688 220.876453 
L 283.652303 219.399827 
L 283.771025 223.607299 
L 284.00156 224.27142 
L 286.956548 222.344565 
L 287.082422 186.226492 
L 288.238298 184.374995 
L 290.260794 193.0382 
L 291.099301 206.47259 
L 292.262173 212.662011 
L 293.565039 220.623344 
L 294.229142 202.740323 
L 296.869284 192.630931 
L 299.359914 209.927494 
L 300.173529 227.274982 
L 300.522786 231.66115 
L 303.477775 233.635325 
L 304.59495 250.726788 
L 306.78202 257.37584 
L 307.620527 264.950287 
L 308.7834 268.533697 
L 310.086265 271.124693 
L 313.390511 248.608425 
L 313.753068 183.943546 
L 315.881141 176.806879 
L 316.694756 184.31995 
L 317.044013 186.347933 
L 319.999001 187.007198 
L 323.303246 197.604589 
L 324.141754 211.440154 
L 325.304626 214.618044 
L 326.607492 216.817852 
L 326.929196 207.608104 
L 329.911737 204.534059 
L 332.402367 207.462009 
L 333.215982 214.525653 
L 333.565239 214.986014 
L 336.520228 215.355355 
L 338.140318 220.642432 
L 339.824473 226.732193 
L 340.384647 223.411498 
L 340.66298 222.922295 
L 341.825852 221.874326 
L 343.128718 214.21783 
L 343.264764 201.158084 
L 346.432964 199.507231 
L 348.21619 204.348605 
L 348.923593 211.052244 
L 349.737209 211.136579 
L 350.086466 211.608174 
L 350.692523 212.010047 
L 353.041454 212.270636 
L 353.955987 195.833956 
L 356.345699 185.177929 
L 357.184207 194.950163 
L 359.649945 205.07182 
L 360.023827 211.787792 
L 360.653337 213.995721 
L 362.95419 216.074442 
L 363.779024 194.309871 
L 364.862686 183.580383 
L 365.44482 191.232183 
L 366.258435 194.475283 
L 366.607692 199.32096 
L 367.401623 201.551529 
L 369.562681 192.918146 
L 372.866926 184.774852 
L 373.705433 171.371997 
L 374.868305 167.893647 
L 376.171171 176.573178 
L 379.475416 185.657924 
L 381.684578 210.671417 
L 381.966046 226.059087 
L 382.779662 227.396925 
L 383.128919 231.439029 
L 386.083907 233.276907 
L 387.235949 249.627637 
L 389.388152 256.399228 
L 390.22666 264.081389 
L 391.389532 267.741628 
L 392.692398 247.363964 
L 395.850354 251.193103 
L 395.996643 263.002005 
L 398.487273 263.082233 
L 398.487273 263.082233 
" style="fill:none;stroke:#1f77b4;stroke-linecap:square;stroke-width:1.5;"/>
   </g>
   <g id="line2d_12">
    <path clip-path="url(#pdf659f8a41)" d="M 75.48485 124.799974 
L 78.789095 113.551886 
L 81.457909 82.636973 
L 82.09334 53.568 
L 82.09334 57.935938 
L 82.532372 57.935938 
L 83.595993 75.765936 
L 85.397586 122.269754 
L 85.465156 136.079062 
L 85.905722 137.75846 
L 86.528776 147.67211 
L 86.969342 163.177554 
L 87.592397 173.039741 
L 88.032963 188.564397 
L 88.656017 198.359565 
L 88.701831 213.90616 
L 89.096583 214.921329 
L 89.719638 223.610239 
L 90.353954 248.753516 
L 90.783258 253.602983 
L 91.223824 264.348353 
L 91.846879 273.711002 
L 92.006076 289.314008 
L 92.469933 291.063307 
L 93.092988 295.488 
L 94.962151 292.522853 
L 95.585206 290.756919 
L 96.025772 290.219873 
L 96.648826 285.377956 
L 97.089392 277.172996 
L 98.614567 272.225949 
L 98.614567 251.763294 
L 101.385591 251.763294 
L 101.918812 214.582719 
L 104.747297 211.801855 
L 105.223058 183.041618 
L 106.87518 191.143579 
L 108.527303 196.524056 
L 110.447685 187.262468 
L 111.831548 193.659681 
L 115.135793 188.438471 
L 115.135793 175.012361 
L 117.300326 175.012361 
L 117.906818 190.960015 
L 118.440039 195.305186 
L 118.538404 199.100955 
L 121.744284 199.798827 
L 123.396407 220.821429 
L 125.048529 232.441452 
L 125.540708 204.939353 
L 126.167431 196.384505 
L 127.182627 199.908176 
L 127.821077 205.314687 
L 128.352775 208.597034 
L 131.65702 210.9378 
L 142.688657 240.025581 
L 143.712255 234.49956 
L 144.874001 213.840619 
L 148.178246 215.140181 
L 150.668876 222.786013 
L 150.94927 231.123583 
L 151.482492 226.525567 
L 151.490128 217.92234 
L 154.786737 217.794284 
L 158.090982 219.946612 
L 158.244402 229.895036 
L 158.929489 230.525589 
L 159.209884 220.815015 
L 161.395227 216.676384 
L 164.699473 200.87821 
L 167.190103 176.393794 
L 167.470497 158.295124 
L 168.003718 159.319546 
L 171.307963 161.370576 
L 172.204591 177.38563 
L 174.612209 182.490469 
L 175.450716 189.039877 
L 175.73111 192.476337 
L 176.18049 194.668656 
L 177.916454 198.192134 
L 179.631373 202.562563 
L 181.220699 209.60508 
L 181.605799 194.936766 
L 182.320188 190.40468 
L 183.711329 194.339731 
L 183.991723 189.350339 
L 184.524944 190.984311 
L 184.550281 194.211351 
L 187.82919 194.369646 
L 191.133435 182.454216 
L 192.252336 165.940745 
L 194.43768 168.004377 
L 194.863572 184.69203 
L 195.854157 187.993622 
L 196.247217 195.374574 
L 197.741926 198.272468 
L 200.232555 192.384847 
L 200.51295 181.795904 
L 201.046171 183.819977 
L 202.241874 187.6634 
L 203.072995 196.129979 
L 203.491026 201.860144 
L 204.350416 204.69441 
L 207.654661 200.448469 
L 208.773563 178.450186 
L 218.789211 226.840926 
L 220.871643 225.311361 
L 224.175888 248.962181 
L 224.620445 237.749179 
L 225.014395 232.104486 
L 226.177267 232.360801 
L 227.480133 233.677648 
L 230.784378 235.65402 
L 233.275008 247.625216 
L 234.088624 262.942748 
L 234.437881 271.728388 
L 237.392869 275.060693 
L 240.697114 267.597922 
L 242.698494 271.339618 
L 244.00136 264.950524 
L 247.305605 258.07292 
L 247.916113 246.619631 
L 249.796235 245.518499 
L 250.60985 233.572964 
L 250.959107 243.679772 
L 253.914095 247.260399 
L 255.095577 228.950717 
L 257.110212 223.469511 
L 257.218341 209.445259 
L 257.994838 208.651788 
L 258.056848 203.073395 
L 259.21972 203.899826 
L 260.522586 217.850243 
L 261.285172 209.556397 
L 262.087988 205.291069 
L 263.826831 199.614832 
L 266.317461 205.103832 
L 267.131077 211.248168 
L 267.480334 206.192165 
L 268.538246 204.184135 
L 270.435322 198.219645 
L 271.597324 213.109016 
L 272.77544 215.862785 
L 273.208644 214.658128 
L 273.739567 214.027814 
L 277.043812 206.036926 
L 277.246333 211.752031 
L 280.348058 212.060809 
L 281.104563 208.594986 
L 282.66872 209.18497 
L 282.838688 205.925213 
L 283.652303 207.158293 
L 283.771025 205.524218 
L 284.00156 205.336582 
L 286.956548 207.14672 
L 287.082422 212.495587 
L 288.238298 211.944081 
L 290.260794 216.547272 
L 291.099301 218.766448 
L 292.262173 220.868709 
L 293.565039 222.272433 
L 294.229142 224.964253 
L 296.869284 223.353883 
L 299.359914 229.026781 
L 300.173529 240.595977 
L 300.522786 240.8907 
L 303.477775 241.211205 
L 304.59495 245.514817 
L 306.78202 249.222571 
L 307.620527 246.384592 
L 308.7834 246.233714 
L 310.086265 243.928617 
L 313.390511 261.506354 
L 313.753068 254.996012 
L 315.881141 249.985298 
L 316.694756 248.733733 
L 317.044013 253.309156 
L 319.999001 255.328077 
L 323.303246 253.602732 
L 324.141754 261.366529 
L 325.304626 264.93805 
L 326.607492 260.12208 
L 326.929196 273.700857 
L 329.911737 276.242452 
L 332.402367 259.579759 
L 333.215982 252.157914 
L 333.565239 247.138003 
L 336.520228 245.156863 
L 338.140318 230.514737 
L 339.824473 225.798779 
L 340.66298 210.284132 
L 341.825852 213.788299 
L 343.128718 226.308784 
L 343.264764 235.776946 
L 346.432964 236.353352 
L 348.923593 212.059387 
L 349.737209 207.469124 
L 350.086466 202.507613 
L 350.692523 200.536801 
L 353.041454 196.862496 
L 353.955987 214.967779 
L 356.345699 216.645534 
L 357.184207 209.209155 
L 358.347079 207.929516 
L 359.649945 205.018159 
L 360.023827 202.217918 
L 360.653337 201.713156 
L 362.95419 199.260124 
L 363.779024 210.83342 
L 364.862686 210.065585 
L 365.44482 212.216493 
L 366.258435 211.593602 
L 366.607692 211.098893 
L 367.401623 211.087182 
L 369.562681 213.652302 
L 372.866926 211.833584 
L 373.705433 205.342231 
L 374.868305 203.079514 
L 376.171171 209.289054 
L 379.475416 212.283951 
L 381.684578 227.164009 
L 381.966046 242.831833 
L 382.779662 242.65924 
L 383.128919 242.454138 
L 386.083907 242.559063 
L 387.235949 245.506578 
L 389.388152 248.820687 
L 390.22666 246.131403 
L 391.389532 246.025427 
L 392.692398 260.236325 
L 395.850354 258.20704 
L 395.996643 259.00494 
L 398.487273 258.590682 
L 398.487273 258.590682 
" style="fill:none;stroke:#ff7f0e;stroke-linecap:square;stroke-width:1.5;"/>
   </g>
   <g id="patch_3">
    <path d="M 57.6 307.584 
L 57.6 41.472 
" style="fill:none;stroke:#000000;stroke-linecap:square;stroke-linejoin:miter;stroke-width:0.8;"/>
   </g>
   <g id="patch_4">
    <path d="M 414.72 307.584 
L 414.72 41.472 
" style="fill:none;stroke:#000000;stroke-linecap:square;stroke-linejoin:miter;stroke-width:0.8;"/>
   </g>
   <g id="patch_5">
    <path d="M 57.6 307.584 
L 414.72 307.584 
" style="fill:none;stroke:#000000;stroke-linecap:square;stroke-linejoin:miter;stroke-width:0.8;"/>
   </g>
   <g id="patch_6">
    <path d="M 57.6 41.472 
L 414.72 41.472 
" style="fill:none;stroke:#000000;stroke-linecap:square;stroke-linejoin:miter;stroke-width:0.8;"/>
   </g>
   <g id="legend_1">
    <g id="patch_7">
     <path d="M 350.973125 78.82825 
L 407.72 78.82825 
Q 409.72 78.82825 409.72 76.82825 
L 409.72 48.472 
Q 409.72 46.472 407.72 46.472 
L 350.973125 46.472 
Q 348.973125 46.472 348.973125 48.472 
L 348.973125 76.82825 
Q 348.973125 78.82825 350.973125 78.82825 
z
" style="fill:#ffffff;opacity:0.8;stroke:#cccccc;stroke-linejoin:miter;"/>
    </g>
    <g id="line2d_13">
     <path d="M 352.973125 54.570437 
L 372.973125 54.570437 
" style="fill:none;stroke:#1f77b4;stroke-linecap:square;stroke-width:1.5;"/>
    </g>
    <g id="line2d_14"/>
    <g id="text_11">
     <!-- uav1 -->
     <g transform="translate(380.973125 58.070437)scale(0.1 -0.1)">
      <defs>
       <path d="M 8.5 21.578125 
L 8.5 54.6875 
L 17.484375 54.6875 
L 17.484375 21.921875 
Q 17.484375 14.15625 20.5 10.265625 
Q 23.53125 6.390625 29.59375 6.390625 
Q 36.859375 6.390625 41.078125 11.03125 
Q 45.3125 15.671875 45.3125 23.6875 
L 45.3125 54.6875 
L 54.296875 54.6875 
L 54.296875 0 
L 45.3125 0 
L 45.3125 8.40625 
Q 42.046875 3.421875 37.71875 1 
Q 33.40625 -1.421875 27.6875 -1.421875 
Q 18.265625 -1.421875 13.375 4.4375 
Q 8.5 10.296875 8.5 21.578125 
z
M 31.109375 56 
z
" id="DejaVuSans-117"/>
       <path d="M 34.28125 27.484375 
Q 23.390625 27.484375 19.1875 25 
Q 14.984375 22.515625 14.984375 16.5 
Q 14.984375 11.71875 18.140625 8.90625 
Q 21.296875 6.109375 26.703125 6.109375 
Q 34.1875 6.109375 38.703125 11.40625 
Q 43.21875 16.703125 43.21875 25.484375 
L 43.21875 27.484375 
z
M 52.203125 31.203125 
L 52.203125 0 
L 43.21875 0 
L 43.21875 8.296875 
Q 40.140625 3.328125 35.546875 0.953125 
Q 30.953125 -1.421875 24.3125 -1.421875 
Q 15.921875 -1.421875 10.953125 3.296875 
Q 6 8.015625 6 15.921875 
Q 6 25.140625 12.171875 29.828125 
Q 18.359375 34.515625 30.609375 34.515625 
L 43.21875 34.515625 
L 43.21875 35.40625 
Q 43.21875 41.609375 39.140625 45 
Q 35.0625 48.390625 27.6875 48.390625 
Q 23 48.390625 18.546875 47.265625 
Q 14.109375 46.140625 10.015625 43.890625 
L 10.015625 52.203125 
Q 14.9375 54.109375 19.578125 55.046875 
Q 24.21875 56 28.609375 56 
Q 40.484375 56 46.34375 49.84375 
Q 52.203125 43.703125 52.203125 31.203125 
z
" id="DejaVuSans-97"/>
       <path d="M 2.984375 54.6875 
L 12.5 54.6875 
L 29.59375 8.796875 
L 46.6875 54.6875 
L 56.203125 54.6875 
L 35.6875 0 
L 23.484375 0 
z
" id="DejaVuSans-118"/>
      </defs>
      <use xlink:href="#DejaVuSans-117"/>
      <use x="63.378906" xlink:href="#DejaVuSans-97"/>
      <use x="124.658203" xlink:href="#DejaVuSans-118"/>
      <use x="183.837891" xlink:href="#DejaVuSans-49"/>
     </g>
    </g>
    <g id="line2d_15">
     <path d="M 352.973125 69.248562 
L 372.973125 69.248562 
" style="fill:none;stroke:#ff7f0e;stroke-linecap:square;stroke-width:1.5;"/>
    </g>
    <g id="line2d_16"/>
    <g id="text_12">
     <!-- uav2 -->
     <g transform="translate(380.973125 72.748562)scale(0.1 -0.1)">
      <use xlink:href="#DejaVuSans-117"/>
      <use x="63.378906" xlink:href="#DejaVuSans-97"/>
      <use x="124.658203" xlink:href="#DejaVuSans-118"/>
      <use x="183.837891" xlink:href="#DejaVuSans-50"/>
     </g>
    </g>
   </g>
  </g>
 </g>
 <defs>
  <clipPath id="pdf659f8a41">
   <rect height="266.112" width="357.12" x="57.6" y="41.472"/>
  </clipPath>
 </defs>
</svg>
