<?xml version="1.0" encoding="utf-8" standalone="no"?>
<!DOCTYPE svg PUBLIC "-//W3C//DTD SVG 1.1//EN"
  "http://www.w3.org/Graphics/SVG/1.1/DTD/svg11.dtd">
<!-- Created with matplotlib (https://matplotlib.org/) -->
<svg height="345.6pt" version="1.1" viewBox="0 0 460.8 345.6" width="460.8pt" xmlns="http://www.w3.org/2000/svg" xmlns:xlink="http://www.w3.org/1999/xlink">
 <metadata>
  <rdf:RDF xmlns:cc="http://creativecommons.org/ns#" xmlns:dc="http://purl.org/dc/elements/1.1/" xmlns:rdf="http://www.w3.org/1999/02/22-rdf-syntax-ns#">
   <cc:Work>
    <dc:type rdf:resource="http://purl.org/dc/dcmitype/StillImage"/>
    <dc:date>2021-07-19T15:02:16.719393</dc:date>
    <dc:format>image/svg+xml</dc:format>
    <dc:creator>
     <cc:Agent>
      <dc:title>Matplotlib v3.3.4, https://matplotlib.org/</dc:title>
     </cc:Agent>
    </dc:creator>
   </cc:Work>
  </rdf:RDF>
 </metadata>
 <defs>
  <style type="text/css">*{stroke-linecap:butt;stroke-linejoin:round;}</style>
 </defs>
 <g id="figure_1">
  <g id="patch_1">
   <path d="M 0 345.6 
L 460.8 345.6 
L 460.8 0 
L 0 0 
z
" style="fill:#ffffff;"/>
  </g>
  <g id="axes_1">
   <g id="patch_2">
    <path d="M 57.6 307.584 
L 414.72 307.584 
L 414.72 41.472 
L 57.6 41.472 
z
" style="fill:#ffffff;"/>
   </g>
   <g id="matplotlib.axis_1">
    <g id="xtick_1">
     <g id="line2d_1">
      <defs>
       <path d="M 0 0 
L 0 3.5 
" id="m34986aa3cf" style="stroke:#000000;stroke-width:0.8;"/>
      </defs>
      <g>
       <use style="stroke:#000000;stroke-width:0.8;" x="117.201567" xlink:href="#m34986aa3cf" y="307.584"/>
      </g>
     </g>
     <g id="text_1">
      <!-- 10 -->
      <g transform="translate(110.839067 322.182437)scale(0.1 -0.1)">
       <defs>
        <path d="M 12.40625 8.296875 
L 28.515625 8.296875 
L 28.515625 63.921875 
L 10.984375 60.40625 
L 10.984375 69.390625 
L 28.421875 72.90625 
L 38.28125 72.90625 
L 38.28125 8.296875 
L 54.390625 8.296875 
L 54.390625 0 
L 12.40625 0 
z
" id="DejaVuSans-49"/>
        <path d="M 31.78125 66.40625 
Q 24.171875 66.40625 20.328125 58.90625 
Q 16.5 51.421875 16.5 36.375 
Q 16.5 21.390625 20.328125 13.890625 
Q 24.171875 6.390625 31.78125 6.390625 
Q 39.453125 6.390625 43.28125 13.890625 
Q 47.125 21.390625 47.125 36.375 
Q 47.125 51.421875 43.28125 58.90625 
Q 39.453125 66.40625 31.78125 66.40625 
z
M 31.78125 74.21875 
Q 44.046875 74.21875 50.515625 64.515625 
Q 56.984375 54.828125 56.984375 36.375 
Q 56.984375 17.96875 50.515625 8.265625 
Q 44.046875 -1.421875 31.78125 -1.421875 
Q 19.53125 -1.421875 13.0625 8.265625 
Q 6.59375 17.96875 6.59375 36.375 
Q 6.59375 54.828125 13.0625 64.515625 
Q 19.53125 74.21875 31.78125 74.21875 
z
" id="DejaVuSans-48"/>
       </defs>
       <use xlink:href="#DejaVuSans-49"/>
       <use x="63.623047" xlink:href="#DejaVuSans-48"/>
      </g>
     </g>
    </g>
    <g id="xtick_2">
     <g id="line2d_2">
      <g>
       <use style="stroke:#000000;stroke-width:0.8;" x="187.502094" xlink:href="#m34986aa3cf" y="307.584"/>
      </g>
     </g>
     <g id="text_2">
      <!-- 20 -->
      <g transform="translate(181.139594 322.182437)scale(0.1 -0.1)">
       <defs>
        <path d="M 19.1875 8.296875 
L 53.609375 8.296875 
L 53.609375 0 
L 7.328125 0 
L 7.328125 8.296875 
Q 12.9375 14.109375 22.625 23.890625 
Q 32.328125 33.6875 34.8125 36.53125 
Q 39.546875 41.84375 41.421875 45.53125 
Q 43.3125 49.21875 43.3125 52.78125 
Q 43.3125 58.59375 39.234375 62.25 
Q 35.15625 65.921875 28.609375 65.921875 
Q 23.96875 65.921875 18.8125 64.3125 
Q 13.671875 62.703125 7.8125 59.421875 
L 7.8125 69.390625 
Q 13.765625 71.78125 18.9375 73 
Q 24.125 74.21875 28.421875 74.21875 
Q 39.75 74.21875 46.484375 68.546875 
Q 53.21875 62.890625 53.21875 53.421875 
Q 53.21875 48.921875 51.53125 44.890625 
Q 49.859375 40.875 45.40625 35.40625 
Q 44.1875 33.984375 37.640625 27.21875 
Q 31.109375 20.453125 19.1875 8.296875 
z
" id="DejaVuSans-50"/>
       </defs>
       <use xlink:href="#DejaVuSans-50"/>
       <use x="63.623047" xlink:href="#DejaVuSans-48"/>
      </g>
     </g>
    </g>
    <g id="xtick_3">
     <g id="line2d_3">
      <g>
       <use style="stroke:#000000;stroke-width:0.8;" x="257.802621" xlink:href="#m34986aa3cf" y="307.584"/>
      </g>
     </g>
     <g id="text_3">
      <!-- 30 -->
      <g transform="translate(251.440121 322.182437)scale(0.1 -0.1)">
       <defs>
        <path d="M 40.578125 39.3125 
Q 47.65625 37.796875 51.625 33 
Q 55.609375 28.21875 55.609375 21.1875 
Q 55.609375 10.40625 48.1875 4.484375 
Q 40.765625 -1.421875 27.09375 -1.421875 
Q 22.515625 -1.421875 17.65625 -0.515625 
Q 12.796875 0.390625 7.625 2.203125 
L 7.625 11.71875 
Q 11.71875 9.328125 16.59375 8.109375 
Q 21.484375 6.890625 26.8125 6.890625 
Q 36.078125 6.890625 40.9375 10.546875 
Q 45.796875 14.203125 45.796875 21.1875 
Q 45.796875 27.640625 41.28125 31.265625 
Q 36.765625 34.90625 28.71875 34.90625 
L 20.21875 34.90625 
L 20.21875 43.015625 
L 29.109375 43.015625 
Q 36.375 43.015625 40.234375 45.921875 
Q 44.09375 48.828125 44.09375 54.296875 
Q 44.09375 59.90625 40.109375 62.90625 
Q 36.140625 65.921875 28.71875 65.921875 
Q 24.65625 65.921875 20.015625 65.03125 
Q 15.375 64.15625 9.8125 62.3125 
L 9.8125 71.09375 
Q 15.4375 72.65625 20.34375 73.4375 
Q 25.25 74.21875 29.59375 74.21875 
Q 40.828125 74.21875 47.359375 69.109375 
Q 53.90625 64.015625 53.90625 55.328125 
Q 53.90625 49.265625 50.4375 45.09375 
Q 46.96875 40.921875 40.578125 39.3125 
z
" id="DejaVuSans-51"/>
       </defs>
       <use xlink:href="#DejaVuSans-51"/>
       <use x="63.623047" xlink:href="#DejaVuSans-48"/>
      </g>
     </g>
    </g>
    <g id="xtick_4">
     <g id="line2d_4">
      <g>
       <use style="stroke:#000000;stroke-width:0.8;" x="328.103148" xlink:href="#m34986aa3cf" y="307.584"/>
      </g>
     </g>
     <g id="text_4">
      <!-- 40 -->
      <g transform="translate(321.740648 322.182437)scale(0.1 -0.1)">
       <defs>
        <path d="M 37.796875 64.3125 
L 12.890625 25.390625 
L 37.796875 25.390625 
z
M 35.203125 72.90625 
L 47.609375 72.90625 
L 47.609375 25.390625 
L 58.015625 25.390625 
L 58.015625 17.1875 
L 47.609375 17.1875 
L 47.609375 0 
L 37.796875 0 
L 37.796875 17.1875 
L 4.890625 17.1875 
L 4.890625 26.703125 
z
" id="DejaVuSans-52"/>
       </defs>
       <use xlink:href="#DejaVuSans-52"/>
       <use x="63.623047" xlink:href="#DejaVuSans-48"/>
      </g>
     </g>
    </g>
    <g id="xtick_5">
     <g id="line2d_5">
      <g>
       <use style="stroke:#000000;stroke-width:0.8;" x="398.403675" xlink:href="#m34986aa3cf" y="307.584"/>
      </g>
     </g>
     <g id="text_5">
      <!-- 50 -->
      <g transform="translate(392.041175 322.182437)scale(0.1 -0.1)">
       <defs>
        <path d="M 10.796875 72.90625 
L 49.515625 72.90625 
L 49.515625 64.59375 
L 19.828125 64.59375 
L 19.828125 46.734375 
Q 21.96875 47.46875 24.109375 47.828125 
Q 26.265625 48.1875 28.421875 48.1875 
Q 40.625 48.1875 47.75 41.5 
Q 54.890625 34.8125 54.890625 23.390625 
Q 54.890625 11.625 47.5625 5.09375 
Q 40.234375 -1.421875 26.90625 -1.421875 
Q 22.3125 -1.421875 17.546875 -0.640625 
Q 12.796875 0.140625 7.71875 1.703125 
L 7.71875 11.625 
Q 12.109375 9.234375 16.796875 8.0625 
Q 21.484375 6.890625 26.703125 6.890625 
Q 35.15625 6.890625 40.078125 11.328125 
Q 45.015625 15.765625 45.015625 23.390625 
Q 45.015625 31 40.078125 35.4375 
Q 35.15625 39.890625 26.703125 39.890625 
Q 22.75 39.890625 18.8125 39.015625 
Q 14.890625 38.140625 10.796875 36.28125 
z
" id="DejaVuSans-53"/>
       </defs>
       <use xlink:href="#DejaVuSans-53"/>
       <use x="63.623047" xlink:href="#DejaVuSans-48"/>
      </g>
     </g>
    </g>
   </g>
   <g id="matplotlib.axis_2">
    <g id="ytick_1">
     <g id="line2d_6">
      <defs>
       <path d="M 0 0 
L -3.5 0 
" id="m94eacf9398" style="stroke:#000000;stroke-width:0.8;"/>
      </defs>
      <g>
       <use style="stroke:#000000;stroke-width:0.8;" x="57.6" xlink:href="#m94eacf9398" y="254.953523"/>
      </g>
     </g>
     <g id="text_6">
      <!-- 10 -->
      <g transform="translate(37.875 258.752741)scale(0.1 -0.1)">
       <use xlink:href="#DejaVuSans-49"/>
       <use x="63.623047" xlink:href="#DejaVuSans-48"/>
      </g>
     </g>
    </g>
    <g id="ytick_2">
     <g id="line2d_7">
      <g>
       <use style="stroke:#000000;stroke-width:0.8;" x="57.6" xlink:href="#m94eacf9398" y="196.934174"/>
      </g>
     </g>
     <g id="text_7">
      <!-- 20 -->
      <g transform="translate(37.875 200.733393)scale(0.1 -0.1)">
       <use xlink:href="#DejaVuSans-50"/>
       <use x="63.623047" xlink:href="#DejaVuSans-48"/>
      </g>
     </g>
    </g>
    <g id="ytick_3">
     <g id="line2d_8">
      <g>
       <use style="stroke:#000000;stroke-width:0.8;" x="57.6" xlink:href="#m94eacf9398" y="138.914826"/>
      </g>
     </g>
     <g id="text_8">
      <!-- 30 -->
      <g transform="translate(37.875 142.714045)scale(0.1 -0.1)">
       <use xlink:href="#DejaVuSans-51"/>
       <use x="63.623047" xlink:href="#DejaVuSans-48"/>
      </g>
     </g>
    </g>
    <g id="ytick_4">
     <g id="line2d_9">
      <g>
       <use style="stroke:#000000;stroke-width:0.8;" x="57.6" xlink:href="#m94eacf9398" y="80.895478"/>
      </g>
     </g>
     <g id="text_9">
      <!-- 40 -->
      <g transform="translate(37.875 84.694696)scale(0.1 -0.1)">
       <use xlink:href="#DejaVuSans-52"/>
       <use x="63.623047" xlink:href="#DejaVuSans-48"/>
      </g>
     </g>
    </g>
   </g>
   <g id="line2d_10">
    <path clip-path="url(#pf25e156000)" d="M 73.832727 69.448206 
L 74.301397 77.194202 
L 74.770068 87.904869 
L 75.238738 104.367505 
L 75.707408 109.343005 
L 77.033007 132.267588 
L 78.439018 165.716479 
L 78.536277 176.443204 
L 78.905994 178.670728 
L 78.907688 187.137968 
L 79.376358 187.176787 
L 82.027557 231.536018 
L 82.051303 241.463057 
L 82.690357 241.803275 
L 84.484627 264.974234 
L 84.953297 266.322191 
L 85.421967 267.251948 
L 85.566329 267.827307 
L 86.359307 268.110536 
L 86.827978 268.150819 
L 87.296648 267.955602 
L 87.69356 267.527918 
L 87.765318 266.988628 
L 88.233988 266.874238 
L 88.702658 266.003996 
L 89.081356 264.92896 
L 89.171328 263.919828 
L 89.956102 263.662521 
L 92.596382 261.152781 
L 93.38936 228.46725 
L 96.111409 218.650526 
L 96.481126 215.94055 
L 99.626435 215.17155 
L 101.4316 181.791015 
L 102.176926 153.672412 
L 103.141461 155.960776 
L 105.168597 159.17753 
L 105.268692 167.233388 
L 106.656488 167.528785 
L 110.171514 169.063027 
L 110.964492 179.290697 
L 113.68654 182.83151 
L 114.056258 190.522966 
L 117.14918 190.53547 
L 117.201567 163.002707 
L 119.752058 163.150462 
L 120.716593 172.797752 
L 123.086918 176.925504 
L 124.231619 189.982766 
L 124.300056 193.693205 
L 124.760691 193.949405 
L 127.746646 195.298295 
L 128.539624 192.872886 
L 130.260129 191.634378 
L 131.261672 203.122724 
L 134.776698 203.013793 
L 137.327189 198.167758 
L 138.291725 191.296443 
L 140.915123 196.593685 
L 141.725081 213.533783 
L 141.806751 217.569378 
L 143.594558 217.971085 
L 144.83708 227.86235 
L 145.321778 233.675058 
L 145.693547 235.684092 
L 146.597677 238.9982 
L 148.836804 240.902031 
L 152.35183 236.569572 
L 154.902321 220.158848 
L 155.866857 203.912021 
L 159.381883 206.901519 
L 161.419093 219.874478 
L 162.896909 226.991099 
L 163.689887 229.058247 
L 166.411936 230.621268 
L 166.59174 235.737793 
L 167.531238 236.558241 
L 168.937249 227.463855 
L 169.874589 222.226459 
L 169.926962 219.858532 
L 170.343259 219.603713 
L 172.68661 209.731303 
L 173.15528 209.132057 
L 173.623951 207.232881 
L 174.092621 206.839269 
L 175.029961 205.121643 
L 176.161431 203.573578 
L 176.630101 201.742649 
L 177.098771 199.245871 
L 177.567442 198.992124 
L 178.036112 199.13763 
L 178.504782 199.68672 
L 179.167582 200.664905 
L 179.636252 202.778402 
L 180.104922 202.970443 
L 180.767722 205.051945 
L 181.236392 205.789061 
L 181.265019 206.865298 
L 183.987067 206.927289 
L 185.634614 210.695996 
L 185.993765 210.800409 
L 187.502094 209.738398 
L 190.052585 208.72997 
L 191.01712 204.082414 
L 193.031227 200.567456 
L 193.396072 198.444143 
L 194.42218 197.472306 
L 194.532147 197.071032 
L 194.974489 196.81185 
L 198.047173 195.873414 
L 198.840151 193.168502 
L 200.484091 191.857558 
L 201.06739 191.940922 
L 201.562199 191.667721 
L 203.209746 191.510342 
L 204.158901 190.320789 
L 205.077226 190.984057 
L 207.627717 190.498296 
L 225.794658 81.157482 
L 226.167384 83.732577 
L 226.263328 92.068974 
L 226.731998 94.211731 
L 227.200669 104.664672 
L 227.863468 115.088131 
L 229.189068 143.903015 
L 229.572444 158.243086 
L 229.68241 168.732848 
L 230.320538 169.267654 
L 232.971737 225.555515 
L 233.197436 239.409354 
L 233.634536 244.068014 
L 234.297336 252.982928 
L 234.960136 266.099084 
L 235.428806 278.37997 
L 236.366146 276.986421 
L 236.712463 276.257835 
L 236.834817 275.702843 
L 237.303487 275.503823 
L 237.966286 274.70919 
L 238.360009 275.56087 
L 238.434957 274.881287 
L 238.903627 274.73946 
L 239.401155 273.831526 
L 240.035097 271.475607 
L 240.227489 265.940938 
L 243.742515 263.561075 
L 244.433319 220.063875 
L 247.147575 211.513684 
L 247.257542 180.551539 
L 250.495971 181.158352 
L 250.772568 202.340156 
L 251.994182 201.640724 
L 252.617705 199.331418 
L 253.220885 197.775061 
L 253.712737 197.524125 
L 254.287595 196.376078 
L 255.935141 196.181792 
L 256.972681 194.843806 
L 257.354525 193.670118 
L 257.802621 193.112568 
L 261.317647 193.004506 
L 262.008451 189.466791 
L 263.7857 188.243501 
L 264.722707 190.601395 
L 264.832674 180.928974 
L 268.3477 179.730591 
L 270.796017 135.616837 
L 271.862726 102.632548 
L 273.118331 92.964208 
L 273.510273 80.08642 
L 275.377753 82.933569 
L 278.892779 97.377536 
L 279.583582 127.45773 
L 282.297839 133.529954 
L 282.407805 157.589788 
L 285.922832 158.548365 
L 288.371148 203.434204 
L 289.437858 192.974925 
L 291.085405 199.51039 
L 292.952884 210.508186 
L 294.123005 221.735492 
L 296.246101 229.457308 
L 296.467911 239.246497 
L 297.158714 240.017936 
L 298.488053 242.64377 
L 299.872971 247.807112 
L 299.982937 229.057855 
L 302.868709 229.692604 
L 303.497964 247.040405 
L 305.22803 248.364482 
L 305.94628 253.320302 
L 307.01299 254.328581 
L 307.69157 256.024206 
L 308.660537 257.53066 
L 309.878393 258.194874 
L 310.528016 259.014082 
L 314.043043 250.129114 
L 314.733846 198.84427 
L 342.163253 136.986229 
L 344.994528 149.218889 
L 345.67828 170.39422 
L 346.835047 162.117018 
L 349.150221 146.893609 
L 349.193306 162.308087 
L 352.708333 162.595017 
L 353.782094 187.206485 
L 356.223359 194.585408 
L 357.937787 209.743457 
L 359.738385 220.204563 
L 362.205892 228.461199 
L 362.569659 240.5603 
L 363.253412 241.219756 
L 365.857646 242.575499 
L 366.768438 250.834139 
L 369.18807 250.863653 
L 370.283464 254.597942 
L 371.161857 254.487747 
L 371.357225 255.069484 
L 373.798491 254.84765 
L 375.512919 216.434505 
L 377.313517 185.902579 
L 380.144791 190.899419 
L 380.828543 201.211563 
L 384.300485 190.084884 
L 384.34357 128.751322 
L 384.942941 129.626734 
L 385.880282 151.632388 
L 386.817622 171.322193 
L 387.480422 181.180834 
L 387.858596 190.296099 
L 387.949092 198.190722 
L 388.417762 200.078913 
L 388.886432 209.864047 
L 388.932357 219.648226 
L 389.355102 220.607509 
L 391.373622 258.556699 
L 391.423913 265.571092 
L 392.086712 266.095862 
L 392.749512 272.153853 
L 393.412312 276.515346 
L 394.075112 279.23822 
L 394.888649 280.999951 
L 395.206581 283.027183 
L 396.612592 294.13138 
L 397.081262 295.470576 
L 397.549932 295.488 
L 397.719923 294.32784 
L 398.018603 293.734056 
L 398.403675 290.066912 
L 398.487273 285.3271 
L 398.487273 285.3271 
" style="fill:none;stroke:#1f77b4;stroke-linecap:square;stroke-width:1.5;"/>
   </g>
   <g id="line2d_11">
    <path clip-path="url(#pf25e156000)" d="M 78.907688 202.036532 
L 79.376358 202.02796 
L 80.039158 199.746721 
L 82.027557 191.772539 
L 82.051303 189.042021 
L 82.690357 188.927842 
L 84.015956 182.621172 
L 84.953297 175.690136 
L 85.421967 173.050727 
L 85.566329 170.894925 
L 85.890637 170.366717 
L 87.69356 166.045626 
L 87.765318 165.426371 
L 88.233988 165.327646 
L 89.171328 164.23225 
L 89.956102 164.206653 
L 92.596382 164.248257 
L 93.38936 178.958141 
L 96.111409 183.230542 
L 96.481126 196.934955 
L 99.626435 198.641285 
L 101.4316 228.340735 
L 102.176926 225.811126 
L 103.141461 224.034929 
L 105.168597 222.043969 
L 105.268692 220.357609 
L 106.656488 220.012548 
L 110.171514 211.346589 
L 110.964492 196.487538 
L 113.68654 194.560864 
L 114.056258 180.875622 
L 167.062568 108.931395 
L 167.999908 128.305186 
L 169.874589 164.08584 
L 169.926962 172.954403 
L 170.343259 173.942767 
L 171.74927 199.275003 
L 172.21794 207.918325 
L 172.68661 221.157722 
L 173.15528 224.906388 
L 173.623951 238.176428 
L 174.092621 241.294581 
L 175.498631 263.6041 
L 176.161431 269.927452 
L 176.630101 271.692181 
L 177.098771 278.918124 
L 177.567442 279.902327 
L 178.036112 282.553324 
L 178.504782 284.119692 
L 179.167582 284.548101 
L 180.104922 280.718895 
L 180.472041 278.031417 
L 180.767722 274.155316 
L 181.236392 270.935972 
L 181.265019 265.378548 
L 183.987067 265.0243 
L 185.634614 231.334331 
L 185.993765 210.940637 
L 187.502094 209.774394 
L 190.052585 209.179545 
L 191.01712 205.17223 
L 193.031227 200.985617 
L 193.396072 198.58356 
L 194.974489 197.014427 
L 198.047173 195.936936 
L 198.840151 193.8165 
L 201.06739 192.193484 
L 201.562199 191.729965 
L 203.209746 191.659371 
L 204.158901 190.753315 
L 205.077226 191.108529 
L 207.627717 190.780098 
L 225.794658 208.843215 
L 226.167384 212.251523 
L 226.263328 207.831756 
L 226.731998 206.67653 
L 227.200669 200.951408 
L 227.863468 195.118006 
L 229.189068 178.327073 
L 229.572444 169.930283 
L 229.68241 164.042952 
L 230.320538 163.733687 
L 232.971737 132.192686 
L 233.197436 124.86347 
L 233.634536 122.457976 
L 234.297336 117.887965 
L 234.960136 111.335533 
L 235.428806 105.328451 
L 236.712463 95.124065 
L 236.834817 92.861058 
L 237.303487 92.084265 
L 237.966286 89.339456 
L 238.360009 85.938891 
L 238.434957 83.525493 
L 238.903627 83.118992 
L 239.401155 80.72477 
L 239.566427 78.941428 
L 240.035097 79.357983 
L 240.227489 80.573821 
L 243.742515 81.087642 
L 244.433319 91.927928 
L 247.147575 94.367833 
L 247.257542 132.977235 
L 250.495971 132.217892 
L 250.772568 109.579132 
L 251.994182 109.183049 
L 252.617705 106.24313 
L 253.220885 104.747689 
L 253.712737 106.646001 
L 254.287595 105.312416 
L 255.935141 107.07253 
L 256.972681 112.394615 
L 257.354525 108.628449 
L 257.802621 107.203057 
L 261.317647 108.49876 
L 262.008451 119.627991 
L 263.7857 121.994427 
L 264.722707 112.512227 
L 264.832674 125.19092 
L 268.3477 126.678619 
L 270.796017 171.263709 
L 271.862726 193.500944 
L 273.118331 204.230666 
L 273.510273 216.153393 
L 275.377753 212.232559 
L 278.892779 194.693117 
L 279.583582 168.193692 
L 282.297839 164.070253 
L 282.407805 144.782727 
L 285.922832 143.97218 
L 287.616611 121.954165 
L 288.371148 114.255099 
L 289.437858 124.703662 
L 291.085405 118.004277 
L 292.952884 107.804558 
L 294.123005 96.922341 
L 296.246101 90.181884 
L 296.467911 80.08083 
L 297.158714 79.199516 
L 298.488053 76.325957 
L 299.872971 70.805436 
L 299.982937 91.614602 
L 302.868709 91.030126 
L 303.497964 75.999341 
L 305.22803 74.513377 
L 305.94628 69.370681 
L 307.01299 68.096048 
L 307.69157 66.003575 
L 308.660537 64.323436 
L 309.878393 63.093215 
L 310.528016 53.568 
L 314.043043 59.202254 
L 314.733846 86.562248 
L 342.163253 187.371936 
L 344.994528 184.138035 
L 345.67828 184.67842 
L 346.835047 189.333589 
L 349.150221 193.957004 
L 349.193306 191.193477 
L 353.782094 191.149135 
L 356.223359 193.219146 
L 357.937787 190.571171 
L 359.738385 191.399974 
L 362.205892 187.156856 
L 362.569659 184.326447 
L 363.253412 183.418194 
L 365.857646 181.718949 
L 366.725353 175.859219 
L 366.768438 174.074632 
L 369.18807 173.986898 
L 370.283464 168.737699 
L 371.161857 166.720038 
L 371.357225 164.867861 
L 373.798491 164.553548 
L 375.512919 206.514333 
L 377.313517 229.333923 
L 380.144791 221.947955 
L 380.828543 213.865986 
L 384.300485 224.076163 
L 384.34357 246.752992 
L 384.942941 246.440586 
L 385.411611 242.249164 
L 386.817622 233.676287 
L 387.480422 231.236066 
L 387.858596 228.145984 
L 387.949092 226.446092 
L 388.417762 226.05698 
L 388.886432 224.191128 
L 388.932357 222.556123 
L 389.355102 222.411265 
L 390.292443 220.023204 
L 390.761113 219.146495 
L 391.373622 218.555801 
L 391.423913 218.229314 
L 392.086712 218.216693 
L 392.749512 217.749667 
L 393.412312 216.37822 
L 394.075112 213.911765 
L 394.737911 210.47314 
L 394.888649 206.309313 
L 395.206581 205.23949 
L 396.143922 200.568403 
L 396.612592 199.398595 
L 397.081262 199.855797 
L 397.549932 201.043307 
L 397.719923 202.609166 
L 398.403675 204.406107 
L 398.487273 205.692203 
L 398.487273 205.692203 
" style="fill:none;stroke:#ff7f0e;stroke-linecap:square;stroke-width:1.5;"/>
   </g>
   <g id="patch_3">
    <path d="M 57.6 307.584 
L 57.6 41.472 
" style="fill:none;stroke:#000000;stroke-linecap:square;stroke-linejoin:miter;stroke-width:0.8;"/>
   </g>
   <g id="patch_4">
    <path d="M 414.72 307.584 
L 414.72 41.472 
" style="fill:none;stroke:#000000;stroke-linecap:square;stroke-linejoin:miter;stroke-width:0.8;"/>
   </g>
   <g id="patch_5">
    <path d="M 57.6 307.584 
L 414.72 307.584 
" style="fill:none;stroke:#000000;stroke-linecap:square;stroke-linejoin:miter;stroke-width:0.8;"/>
   </g>
   <g id="patch_6">
    <path d="M 57.6 41.472 
L 414.72 41.472 
" style="fill:none;stroke:#000000;stroke-linecap:square;stroke-linejoin:miter;stroke-width:0.8;"/>
   </g>
   <g id="legend_1">
    <g id="patch_7">
     <path d="M 350.973125 78.82825 
L 407.72 78.82825 
Q 409.72 78.82825 409.72 76.82825 
L 409.72 48.472 
Q 409.72 46.472 407.72 46.472 
L 350.973125 46.472 
Q 348.973125 46.472 348.973125 48.472 
L 348.973125 76.82825 
Q 348.973125 78.82825 350.973125 78.82825 
z
" style="fill:#ffffff;opacity:0.8;stroke:#cccccc;stroke-linejoin:miter;"/>
    </g>
    <g id="line2d_12">
     <path d="M 352.973125 54.570437 
L 372.973125 54.570437 
" style="fill:none;stroke:#1f77b4;stroke-linecap:square;stroke-width:1.5;"/>
    </g>
    <g id="line2d_13"/>
    <g id="text_10">
     <!-- uav1 -->
     <g transform="translate(380.973125 58.070437)scale(0.1 -0.1)">
      <defs>
       <path d="M 8.5 21.578125 
L 8.5 54.6875 
L 17.484375 54.6875 
L 17.484375 21.921875 
Q 17.484375 14.15625 20.5 10.265625 
Q 23.53125 6.390625 29.59375 6.390625 
Q 36.859375 6.390625 41.078125 11.03125 
Q 45.3125 15.671875 45.3125 23.6875 
L 45.3125 54.6875 
L 54.296875 54.6875 
L 54.296875 0 
L 45.3125 0 
L 45.3125 8.40625 
Q 42.046875 3.421875 37.71875 1 
Q 33.40625 -1.421875 27.6875 -1.421875 
Q 18.265625 -1.421875 13.375 4.4375 
Q 8.5 10.296875 8.5 21.578125 
z
M 31.109375 56 
z
" id="DejaVuSans-117"/>
       <path d="M 34.28125 27.484375 
Q 23.390625 27.484375 19.1875 25 
Q 14.984375 22.515625 14.984375 16.5 
Q 14.984375 11.71875 18.140625 8.90625 
Q 21.296875 6.109375 26.703125 6.109375 
Q 34.1875 6.109375 38.703125 11.40625 
Q 43.21875 16.703125 43.21875 25.484375 
L 43.21875 27.484375 
z
M 52.203125 31.203125 
L 52.203125 0 
L 43.21875 0 
L 43.21875 8.296875 
Q 40.140625 3.328125 35.546875 0.953125 
Q 30.953125 -1.421875 24.3125 -1.421875 
Q 15.921875 -1.421875 10.953125 3.296875 
Q 6 8.015625 6 15.921875 
Q 6 25.140625 12.171875 29.828125 
Q 18.359375 34.515625 30.609375 34.515625 
L 43.21875 34.515625 
L 43.21875 35.40625 
Q 43.21875 41.609375 39.140625 45 
Q 35.0625 48.390625 27.6875 48.390625 
Q 23 48.390625 18.546875 47.265625 
Q 14.109375 46.140625 10.015625 43.890625 
L 10.015625 52.203125 
Q 14.9375 54.109375 19.578125 55.046875 
Q 24.21875 56 28.609375 56 
Q 40.484375 56 46.34375 49.84375 
Q 52.203125 43.703125 52.203125 31.203125 
z
" id="DejaVuSans-97"/>
       <path d="M 2.984375 54.6875 
L 12.5 54.6875 
L 29.59375 8.796875 
L 46.6875 54.6875 
L 56.203125 54.6875 
L 35.6875 0 
L 23.484375 0 
z
" id="DejaVuSans-118"/>
      </defs>
      <use xlink:href="#DejaVuSans-117"/>
      <use x="63.378906" xlink:href="#DejaVuSans-97"/>
      <use x="124.658203" xlink:href="#DejaVuSans-118"/>
      <use x="183.837891" xlink:href="#DejaVuSans-49"/>
     </g>
    </g>
    <g id="line2d_14">
     <path d="M 352.973125 69.248562 
L 372.973125 69.248562 
" style="fill:none;stroke:#ff7f0e;stroke-linecap:square;stroke-width:1.5;"/>
    </g>
    <g id="line2d_15"/>
    <g id="text_11">
     <!-- uav2 -->
     <g transform="translate(380.973125 72.748562)scale(0.1 -0.1)">
      <use xlink:href="#DejaVuSans-117"/>
      <use x="63.378906" xlink:href="#DejaVuSans-97"/>
      <use x="124.658203" xlink:href="#DejaVuSans-118"/>
      <use x="183.837891" xlink:href="#DejaVuSans-50"/>
     </g>
    </g>
   </g>
  </g>
 </g>
 <defs>
  <clipPath id="pf25e156000">
   <rect height="266.112" width="357.12" x="57.6" y="41.472"/>
  </clipPath>
 </defs>
</svg>
