<?xml version="1.0" encoding="utf-8" standalone="no"?>
<!DOCTYPE svg PUBLIC "-//W3C//DTD SVG 1.1//EN"
  "http://www.w3.org/Graphics/SVG/1.1/DTD/svg11.dtd">
<!-- Created with matplotlib (https://matplotlib.org/) -->
<svg height="345.6pt" version="1.1" viewBox="0 0 460.8 345.6" width="460.8pt" xmlns="http://www.w3.org/2000/svg" xmlns:xlink="http://www.w3.org/1999/xlink">
 <metadata>
  <rdf:RDF xmlns:cc="http://creativecommons.org/ns#" xmlns:dc="http://purl.org/dc/elements/1.1/" xmlns:rdf="http://www.w3.org/1999/02/22-rdf-syntax-ns#">
   <cc:Work>
    <dc:type rdf:resource="http://purl.org/dc/dcmitype/StillImage"/>
    <dc:date>2021-07-17T00:12:38.959296</dc:date>
    <dc:format>image/svg+xml</dc:format>
    <dc:creator>
     <cc:Agent>
      <dc:title>Matplotlib v3.3.4, https://matplotlib.org/</dc:title>
     </cc:Agent>
    </dc:creator>
   </cc:Work>
  </rdf:RDF>
 </metadata>
 <defs>
  <style type="text/css">*{stroke-linecap:butt;stroke-linejoin:round;}</style>
 </defs>
 <g id="figure_1">
  <g id="patch_1">
   <path d="M 0 345.6 
L 460.8 345.6 
L 460.8 0 
L 0 0 
z
" style="fill:#ffffff;"/>
  </g>
  <g id="axes_1">
   <g id="patch_2">
    <path d="M 57.6 307.584 
L 414.72 307.584 
L 414.72 41.472 
L 57.6 41.472 
z
" style="fill:#ffffff;"/>
   </g>
   <g id="matplotlib.axis_1">
    <g id="xtick_1">
     <g id="line2d_1">
      <defs>
       <path d="M 0 0 
L 0 3.5 
" id="ma7328a5254" style="stroke:#000000;stroke-width:0.8;"/>
      </defs>
      <g>
       <use style="stroke:#000000;stroke-width:0.8;" x="65.588841" xlink:href="#ma7328a5254" y="307.584"/>
      </g>
     </g>
     <g id="text_1">
      <!-- 0 -->
      <g transform="translate(62.407591 322.182437)scale(0.1 -0.1)">
       <defs>
        <path d="M 31.78125 66.40625 
Q 24.171875 66.40625 20.328125 58.90625 
Q 16.5 51.421875 16.5 36.375 
Q 16.5 21.390625 20.328125 13.890625 
Q 24.171875 6.390625 31.78125 6.390625 
Q 39.453125 6.390625 43.28125 13.890625 
Q 47.125 21.390625 47.125 36.375 
Q 47.125 51.421875 43.28125 58.90625 
Q 39.453125 66.40625 31.78125 66.40625 
z
M 31.78125 74.21875 
Q 44.046875 74.21875 50.515625 64.515625 
Q 56.984375 54.828125 56.984375 36.375 
Q 56.984375 17.96875 50.515625 8.265625 
Q 44.046875 -1.421875 31.78125 -1.421875 
Q 19.53125 -1.421875 13.0625 8.265625 
Q 6.59375 17.96875 6.59375 36.375 
Q 6.59375 54.828125 13.0625 64.515625 
Q 19.53125 74.21875 31.78125 74.21875 
z
" id="DejaVuSans-48"/>
       </defs>
       <use xlink:href="#DejaVuSans-48"/>
      </g>
     </g>
    </g>
    <g id="xtick_2">
     <g id="line2d_2">
      <g>
       <use style="stroke:#000000;stroke-width:0.8;" x="131.539933" xlink:href="#ma7328a5254" y="307.584"/>
      </g>
     </g>
     <g id="text_2">
      <!-- 10 -->
      <g transform="translate(125.177433 322.182437)scale(0.1 -0.1)">
       <defs>
        <path d="M 12.40625 8.296875 
L 28.515625 8.296875 
L 28.515625 63.921875 
L 10.984375 60.40625 
L 10.984375 69.390625 
L 28.421875 72.90625 
L 38.28125 72.90625 
L 38.28125 8.296875 
L 54.390625 8.296875 
L 54.390625 0 
L 12.40625 0 
z
" id="DejaVuSans-49"/>
       </defs>
       <use xlink:href="#DejaVuSans-49"/>
       <use x="63.623047" xlink:href="#DejaVuSans-48"/>
      </g>
     </g>
    </g>
    <g id="xtick_3">
     <g id="line2d_3">
      <g>
       <use style="stroke:#000000;stroke-width:0.8;" x="197.491025" xlink:href="#ma7328a5254" y="307.584"/>
      </g>
     </g>
     <g id="text_3">
      <!-- 20 -->
      <g transform="translate(191.128525 322.182437)scale(0.1 -0.1)">
       <defs>
        <path d="M 19.1875 8.296875 
L 53.609375 8.296875 
L 53.609375 0 
L 7.328125 0 
L 7.328125 8.296875 
Q 12.9375 14.109375 22.625 23.890625 
Q 32.328125 33.6875 34.8125 36.53125 
Q 39.546875 41.84375 41.421875 45.53125 
Q 43.3125 49.21875 43.3125 52.78125 
Q 43.3125 58.59375 39.234375 62.25 
Q 35.15625 65.921875 28.609375 65.921875 
Q 23.96875 65.921875 18.8125 64.3125 
Q 13.671875 62.703125 7.8125 59.421875 
L 7.8125 69.390625 
Q 13.765625 71.78125 18.9375 73 
Q 24.125 74.21875 28.421875 74.21875 
Q 39.75 74.21875 46.484375 68.546875 
Q 53.21875 62.890625 53.21875 53.421875 
Q 53.21875 48.921875 51.53125 44.890625 
Q 49.859375 40.875 45.40625 35.40625 
Q 44.1875 33.984375 37.640625 27.21875 
Q 31.109375 20.453125 19.1875 8.296875 
z
" id="DejaVuSans-50"/>
       </defs>
       <use xlink:href="#DejaVuSans-50"/>
       <use x="63.623047" xlink:href="#DejaVuSans-48"/>
      </g>
     </g>
    </g>
    <g id="xtick_4">
     <g id="line2d_4">
      <g>
       <use style="stroke:#000000;stroke-width:0.8;" x="263.442117" xlink:href="#ma7328a5254" y="307.584"/>
      </g>
     </g>
     <g id="text_4">
      <!-- 30 -->
      <g transform="translate(257.079617 322.182437)scale(0.1 -0.1)">
       <defs>
        <path d="M 40.578125 39.3125 
Q 47.65625 37.796875 51.625 33 
Q 55.609375 28.21875 55.609375 21.1875 
Q 55.609375 10.40625 48.1875 4.484375 
Q 40.765625 -1.421875 27.09375 -1.421875 
Q 22.515625 -1.421875 17.65625 -0.515625 
Q 12.796875 0.390625 7.625 2.203125 
L 7.625 11.71875 
Q 11.71875 9.328125 16.59375 8.109375 
Q 21.484375 6.890625 26.8125 6.890625 
Q 36.078125 6.890625 40.9375 10.546875 
Q 45.796875 14.203125 45.796875 21.1875 
Q 45.796875 27.640625 41.28125 31.265625 
Q 36.765625 34.90625 28.71875 34.90625 
L 20.21875 34.90625 
L 20.21875 43.015625 
L 29.109375 43.015625 
Q 36.375 43.015625 40.234375 45.921875 
Q 44.09375 48.828125 44.09375 54.296875 
Q 44.09375 59.90625 40.109375 62.90625 
Q 36.140625 65.921875 28.71875 65.921875 
Q 24.65625 65.921875 20.015625 65.03125 
Q 15.375 64.15625 9.8125 62.3125 
L 9.8125 71.09375 
Q 15.4375 72.65625 20.34375 73.4375 
Q 25.25 74.21875 29.59375 74.21875 
Q 40.828125 74.21875 47.359375 69.109375 
Q 53.90625 64.015625 53.90625 55.328125 
Q 53.90625 49.265625 50.4375 45.09375 
Q 46.96875 40.921875 40.578125 39.3125 
z
" id="DejaVuSans-51"/>
       </defs>
       <use xlink:href="#DejaVuSans-51"/>
       <use x="63.623047" xlink:href="#DejaVuSans-48"/>
      </g>
     </g>
    </g>
    <g id="xtick_5">
     <g id="line2d_5">
      <g>
       <use style="stroke:#000000;stroke-width:0.8;" x="329.393209" xlink:href="#ma7328a5254" y="307.584"/>
      </g>
     </g>
     <g id="text_5">
      <!-- 40 -->
      <g transform="translate(323.030709 322.182437)scale(0.1 -0.1)">
       <defs>
        <path d="M 37.796875 64.3125 
L 12.890625 25.390625 
L 37.796875 25.390625 
z
M 35.203125 72.90625 
L 47.609375 72.90625 
L 47.609375 25.390625 
L 58.015625 25.390625 
L 58.015625 17.1875 
L 47.609375 17.1875 
L 47.609375 0 
L 37.796875 0 
L 37.796875 17.1875 
L 4.890625 17.1875 
L 4.890625 26.703125 
z
" id="DejaVuSans-52"/>
       </defs>
       <use xlink:href="#DejaVuSans-52"/>
       <use x="63.623047" xlink:href="#DejaVuSans-48"/>
      </g>
     </g>
    </g>
    <g id="xtick_6">
     <g id="line2d_6">
      <g>
       <use style="stroke:#000000;stroke-width:0.8;" x="395.344301" xlink:href="#ma7328a5254" y="307.584"/>
      </g>
     </g>
     <g id="text_6">
      <!-- 50 -->
      <g transform="translate(388.981801 322.182437)scale(0.1 -0.1)">
       <defs>
        <path d="M 10.796875 72.90625 
L 49.515625 72.90625 
L 49.515625 64.59375 
L 19.828125 64.59375 
L 19.828125 46.734375 
Q 21.96875 47.46875 24.109375 47.828125 
Q 26.265625 48.1875 28.421875 48.1875 
Q 40.625 48.1875 47.75 41.5 
Q 54.890625 34.8125 54.890625 23.390625 
Q 54.890625 11.625 47.5625 5.09375 
Q 40.234375 -1.421875 26.90625 -1.421875 
Q 22.3125 -1.421875 17.546875 -0.640625 
Q 12.796875 0.140625 7.71875 1.703125 
L 7.71875 11.625 
Q 12.109375 9.234375 16.796875 8.0625 
Q 21.484375 6.890625 26.703125 6.890625 
Q 35.15625 6.890625 40.078125 11.328125 
Q 45.015625 15.765625 45.015625 23.390625 
Q 45.015625 31 40.078125 35.4375 
Q 35.15625 39.890625 26.703125 39.890625 
Q 22.75 39.890625 18.8125 39.015625 
Q 14.890625 38.140625 10.796875 36.28125 
z
" id="DejaVuSans-53"/>
       </defs>
       <use xlink:href="#DejaVuSans-53"/>
       <use x="63.623047" xlink:href="#DejaVuSans-48"/>
      </g>
     </g>
    </g>
   </g>
   <g id="matplotlib.axis_2">
    <g id="ytick_1">
     <g id="line2d_7">
      <defs>
       <path d="M 0 0 
L -3.5 0 
" id="m4bf9c39dfd" style="stroke:#000000;stroke-width:0.8;"/>
      </defs>
      <g>
       <use style="stroke:#000000;stroke-width:0.8;" x="57.6" xlink:href="#m4bf9c39dfd" y="301.341574"/>
      </g>
     </g>
     <g id="text_7">
      <!-- 5 -->
      <g transform="translate(44.2375 305.140792)scale(0.1 -0.1)">
       <use xlink:href="#DejaVuSans-53"/>
      </g>
     </g>
    </g>
    <g id="ytick_2">
     <g id="line2d_8">
      <g>
       <use style="stroke:#000000;stroke-width:0.8;" x="57.6" xlink:href="#m4bf9c39dfd" y="264.988388"/>
      </g>
     </g>
     <g id="text_8">
      <!-- 10 -->
      <g transform="translate(37.875 268.787607)scale(0.1 -0.1)">
       <use xlink:href="#DejaVuSans-49"/>
       <use x="63.623047" xlink:href="#DejaVuSans-48"/>
      </g>
     </g>
    </g>
    <g id="ytick_3">
     <g id="line2d_9">
      <g>
       <use style="stroke:#000000;stroke-width:0.8;" x="57.6" xlink:href="#m4bf9c39dfd" y="228.635203"/>
      </g>
     </g>
     <g id="text_9">
      <!-- 15 -->
      <g transform="translate(37.875 232.434422)scale(0.1 -0.1)">
       <use xlink:href="#DejaVuSans-49"/>
       <use x="63.623047" xlink:href="#DejaVuSans-53"/>
      </g>
     </g>
    </g>
    <g id="ytick_4">
     <g id="line2d_10">
      <g>
       <use style="stroke:#000000;stroke-width:0.8;" x="57.6" xlink:href="#m4bf9c39dfd" y="192.282018"/>
      </g>
     </g>
     <g id="text_10">
      <!-- 20 -->
      <g transform="translate(37.875 196.081236)scale(0.1 -0.1)">
       <use xlink:href="#DejaVuSans-50"/>
       <use x="63.623047" xlink:href="#DejaVuSans-48"/>
      </g>
     </g>
    </g>
    <g id="ytick_5">
     <g id="line2d_11">
      <g>
       <use style="stroke:#000000;stroke-width:0.8;" x="57.6" xlink:href="#m4bf9c39dfd" y="155.928832"/>
      </g>
     </g>
     <g id="text_11">
      <!-- 25 -->
      <g transform="translate(37.875 159.728051)scale(0.1 -0.1)">
       <use xlink:href="#DejaVuSans-50"/>
       <use x="63.623047" xlink:href="#DejaVuSans-53"/>
      </g>
     </g>
    </g>
    <g id="ytick_6">
     <g id="line2d_12">
      <g>
       <use style="stroke:#000000;stroke-width:0.8;" x="57.6" xlink:href="#m4bf9c39dfd" y="119.575647"/>
      </g>
     </g>
     <g id="text_12">
      <!-- 30 -->
      <g transform="translate(37.875 123.374866)scale(0.1 -0.1)">
       <use xlink:href="#DejaVuSans-51"/>
       <use x="63.623047" xlink:href="#DejaVuSans-48"/>
      </g>
     </g>
    </g>
    <g id="ytick_7">
     <g id="line2d_13">
      <g>
       <use style="stroke:#000000;stroke-width:0.8;" x="57.6" xlink:href="#m4bf9c39dfd" y="83.222462"/>
      </g>
     </g>
     <g id="text_13">
      <!-- 35 -->
      <g transform="translate(37.875 87.02168)scale(0.1 -0.1)">
       <use xlink:href="#DejaVuSans-51"/>
       <use x="63.623047" xlink:href="#DejaVuSans-53"/>
      </g>
     </g>
    </g>
    <g id="ytick_8">
     <g id="line2d_14">
      <g>
       <use style="stroke:#000000;stroke-width:0.8;" x="57.6" xlink:href="#m4bf9c39dfd" y="46.869276"/>
      </g>
     </g>
     <g id="text_14">
      <!-- 40 -->
      <g transform="translate(37.875 50.668495)scale(0.1 -0.1)">
       <use xlink:href="#DejaVuSans-52"/>
       <use x="63.623047" xlink:href="#DejaVuSans-48"/>
      </g>
     </g>
    </g>
   </g>
   <g id="line2d_15">
    <path clip-path="url(#p42c22817fd)" d="M 73.832727 81.718812 
L 75.481505 81.718812 
L 78.779059 86.652434 
L 82.076614 96.638989 
L 82.076614 106.740236 
L 82.076614 106.740236 
L 85.374168 106.740236 
L 88.671723 116.85936 
L 90.3205 127.073299 
L 90.3205 132.1939 
L 91.969278 132.1939 
L 95.266832 137.25472 
L 98.564387 147.451024 
L 98.564387 157.681053 
L 98.564387 157.681053 
L 101.861941 157.681053 
L 105.159496 167.445972 
L 106.808273 177.391396 
L 106.808273 182.409032 
L 108.457051 182.409032 
L 110.414815 184.994499 
L 111.754605 185.014845 
L 115.05216 182.081648 
L 115.05216 173.645725 
L 115.05216 173.645725 
L 118.349714 173.645725 
L 121.048612 179.499227 
L 121.647269 184.668271 
L 123.296046 183.203688 
L 123.296046 178.885282 
L 124.944824 178.885282 
L 128.242378 174.247971 
L 131.539933 163.960511 
L 131.539933 152.573239 
L 131.539933 152.573239 
L 134.837487 152.573239 
L 138.135042 140.778083 
L 139.783819 128.232372 
L 139.783819 121.73983 
L 141.432597 121.73983 
L 144.730151 124.980192 
L 148.027706 131.760532 
L 148.027706 138.92618 
L 148.027706 138.92618 
L 151.32526 138.92618 
L 154.622815 146.046234 
L 156.271592 153.555207 
L 156.271592 157.44865 
L 157.92037 157.44865 
L 161.217924 161.094402 
L 164.515479 168.691713 
L 164.515479 176.678637 
L 164.515479 176.678637 
L 167.813033 176.678637 
L 171.110588 183.684784 
L 171.945436 191.146274 
L 172.759365 193.105808 
L 172.759365 194.070796 
L 174.408143 194.070796 
L 174.950276 196.094704 
L 175.77577 196.789608 
L 177.705697 197.73366 
L 181.003252 192.38481 
L 181.003252 182.144465 
L 184.300806 182.144465 
L 187.598361 189.783692 
L 188.296507 197.834302 
L 189.247138 199.589166 
L 189.247138 200.87754 
L 190.895915 200.87754 
L 194.19347 195.720698 
L 197.491025 184.532466 
L 197.491025 172.458028 
L 197.491025 172.458028 
L 200.788579 172.458028 
L 204.086134 180.061376 
L 205.734911 188.011705 
L 205.734911 192.105564 
L 207.383688 192.105564 
L 210.681243 195.679078 
L 213.978798 203.133594 
L 213.978798 210.975902 
L 213.978798 210.975902 
L 217.276352 210.975902 
L 218.438674 216.46765 
L 220.573907 218.524536 
L 220.687885 221.631699 
L 222.222684 221.803796 
L 222.222684 216.952186 
L 223.871461 216.952186 
L 227.169016 224.245534 
L 230.466571 218.891104 
L 230.466571 207.195762 
L 230.466571 207.195762 
L 233.764125 207.195762 
L 237.06168 214.852304 
L 238.710457 222.830926 
L 238.710457 226.924271 
L 240.359234 226.924271 
L 243.656789 220.799208 
L 246.954344 207.916804 
L 246.954344 194.483886 
L 246.954344 194.483886 
L 250.251898 194.483886 
L 253.549453 201.769936 
L 255.19823 209.285263 
L 255.19823 213.107697 
L 256.847007 213.107697 
L 260.144562 216.499138 
L 263.442117 223.503554 
L 263.442117 230.754039 
L 266.739671 230.754039 
L 270.037226 236.731925 
L 271.686003 243.081792 
L 271.686003 246.382761 
L 273.33478 246.382761 
L 275.24718 248.566947 
L 276.632335 251.251738 
L 278.356144 245.737283 
L 279.92989 238.647749 
L 279.92989 232.014833 
L 281.465108 232.014833 
L 283.227444 225.441524 
L 284.574073 217.813209 
L 286.524999 211.947414 
L 287.683037 203.426038 
L 288.173776 198.365748 
L 289.822553 196.223873 
L 290.792001 189.04132 
L 293.120108 184.831257 
L 293.900966 174.783821 
L 296.099335 171.435167 
L 296.417663 160.75177 
L 299.2083 160.75177 
L 299.715217 149.160333 
L 302.317264 147.083643 
L 303.012772 136.547192 
L 304.661549 133.778777 
L 305.426228 127.280525 
L 306.310326 124.311325 
L 308.535192 120.909869 
L 309.607881 112.47523 
L 311.644157 108.513175 
L 312.905436 101.114262 
L 312.905436 96.684275 
L 314.753121 96.684275 
L 316.20299 90.366762 
L 316.951491 85.591691 
L 319.500545 83.161903 
L 320.060455 75.722093 
L 322.798099 71.537168 
L 323.169419 67.946606 
L 326.095654 67.156319 
L 326.278384 61.94645 
L 328.476753 61.635194 
L 329.393209 59.008722 
L 329.393209 58.016366 
L 331.585718 58.016366 
L 332.030264 55.463301 
L 332.690763 54.038819 
L 334.694682 54.077873 
L 335.746771 54.227281 
L 335.988318 53.831077 
L 337.637095 53.845466 
L 337.803646 53.961786 
L 338.553233 53.896199 
L 339.285872 53.568 
L 342.583427 53.849285 
L 342.673554 54.13914 
L 344.398755 54.208409 
L 345.880982 54.435612 
L 345.880982 54.658291 
L 349.178536 54.658291 
L 352.476091 55.244492 
L 354.124868 55.955403 
L 355.773645 56.357368 
L 359.0712 56.790185 
L 362.368755 57.747851 
L 362.368755 58.827259 
L 365.511727 58.827259 
L 365.666309 59.968197 
L 368.963864 60.53777 
L 370.612641 72.717953 
L 372.261418 78.817402 
L 373.755613 84.944478 
L 375.558973 90.497114 
L 378.856528 97.212019 
L 378.856528 109.448683 
L 381.9995 109.448683 
L 382.154082 121.099834 
L 385.451637 121.672528 
L 387.100414 133.816769 
L 388.749191 139.814463 
L 390.243386 134.966499 
L 392.046746 130.580376 
L 395.344301 125.284551 
L 395.344301 115.661402 
L 398.487273 115.661402 
L 398.487273 115.661402 
" style="fill:none;stroke:#1f77b4;stroke-linecap:square;stroke-width:1.5;"/>
   </g>
   <g id="line2d_16">
    <path clip-path="url(#p42c22817fd)" d="M 75.481505 145.879562 
L 78.779059 143.89503 
L 82.076614 140.330969 
L 82.076614 137.309398 
L 82.076614 137.309398 
L 85.374168 137.309398 
L 88.671723 133.702102 
L 90.3205 130.638673 
L 90.3205 129.310797 
L 91.969278 129.310797 
L 95.266832 127.336103 
L 98.564387 123.789486 
L 98.564387 120.778142 
L 98.564387 120.778142 
L 101.861941 120.778142 
L 105.159496 115.724637 
L 106.808273 111.175712 
L 106.808273 109.09024 
L 108.457051 109.09024 
L 110.414815 102.572165 
L 111.754605 100.829317 
L 115.05216 106.34171 
L 115.05216 119.732698 
L 115.05216 119.732698 
L 118.349714 119.732698 
L 121.048612 111.856498 
L 121.647269 105.554412 
L 123.296046 108.015256 
L 123.296046 114.744593 
L 124.944824 114.744593 
L 128.242378 121.424078 
L 131.539933 134.480116 
L 131.539933 146.993821 
L 134.837487 146.993821 
L 138.135042 159.235727 
L 139.783819 170.65027 
L 139.783819 175.963503 
L 141.432597 175.963503 
L 144.730151 171.833056 
L 148.027706 163.835458 
L 148.027706 156.212371 
L 148.027706 156.212371 
L 151.32526 156.212371 
L 154.622815 148.527695 
L 156.271592 141.219248 
L 156.271592 137.712659 
L 157.92037 137.712659 
L 161.217924 133.98901 
L 164.515479 126.807925 
L 164.515479 119.999626 
L 164.515479 119.999626 
L 167.813033 119.999626 
L 171.110588 112.649019 
L 171.945436 105.590394 
L 172.759365 103.852966 
L 172.759365 102.03222 
L 174.408143 102.03222 
L 174.950276 98.339513 
L 175.77577 97.123918 
L 177.705697 95.287777 
L 181.003252 103.096129 
L 181.003252 116.059651 
L 181.003252 116.059651 
L 184.300806 116.059651 
L 187.598361 109.153323 
L 188.296507 102.583948 
L 189.247138 101.238271 
L 189.247138 99.178889 
L 190.895915 99.178889 
L 194.19347 105.833282 
L 197.491025 118.7223 
L 197.491025 130.911113 
L 200.788579 130.911113 
L 204.086134 124.174603 
L 205.734911 117.796188 
L 205.734911 114.747103 
L 207.383688 114.747103 
L 210.681243 111.371176 
L 213.978798 104.829052 
L 213.978798 98.588734 
L 213.978798 98.588734 
L 217.276352 98.588734 
L 218.438674 91.959518 
L 220.573907 89.642382 
L 220.687885 85.451783 
L 222.222684 85.228129 
L 222.222684 91.680326 
L 223.871461 91.680326 
L 227.169016 85.330141 
L 230.466571 92.241315 
L 230.466571 105.783222 
L 230.466571 105.783222 
L 233.764125 105.783222 
L 237.06168 99.709533 
L 238.710457 93.94432 
L 238.710457 91.183719 
L 240.359234 91.183719 
L 243.656789 98.188405 
L 246.954344 111.764076 
L 246.954344 124.625539 
L 250.251898 124.625539 
L 253.549453 118.699018 
L 255.19823 113.088495 
L 255.19823 110.408214 
L 256.847007 110.408214 
L 260.144562 107.479606 
L 263.442117 101.795235 
L 263.442117 96.365489 
L 263.442117 96.365489 
L 266.739671 96.365489 
L 270.037226 90.796631 
L 271.686003 85.344431 
L 271.686003 82.674289 
L 273.33478 82.674289 
L 275.24718 81.323607 
L 276.632335 79.730158 
L 278.356144 87.505751 
L 279.92989 97.179153 
L 279.92989 106.002675 
L 281.465108 106.002675 
L 283.227444 114.604309 
L 284.574073 124.470808 
L 286.524999 132.006117 
L 287.683037 142.908762 
L 288.173776 149.376223 
L 289.822553 152.113644 
L 290.792001 161.304648 
L 293.120108 166.704941 
L 293.900966 179.649299 
L 296.099335 183.98609 
L 296.417663 192.903167 
L 299.2083 192.903167 
L 299.715217 208.185623 
L 302.317264 210.950253 
L 303.012772 225.104546 
L 304.661549 228.86565 
L 305.426228 237.756912 
L 306.310326 241.856743 
L 308.535192 246.580306 
L 309.607881 258.394551 
L 311.644157 264.019043 
L 312.905436 274.581999 
L 312.905436 280.988965 
L 314.753121 280.988965 
L 316.20299 290.156379 
L 316.951491 293.419283 
L 320.060455 295.396729 
L 321.149322 295.482097 
L 323.169419 295.399244 
L 326.095654 295.379089 
L 326.278384 294.814623 
L 328.476753 294.778261 
L 329.393209 293.162129 
L 329.393209 293.311635 
L 331.585718 293.311635 
L 332.030264 291.879357 
L 332.690763 292.162077 
L 334.694682 290.383477 
L 335.746771 284.800892 
L 335.988318 282.320871 
L 337.637095 281.644341 
L 337.803646 276.946998 
L 338.553233 276.54862 
L 340.002016 272.078677 
L 342.200386 269.76234 
L 342.673554 261.310269 
L 344.398755 260.997426 
L 345.880982 255.401126 
L 345.880982 250.499132 
L 349.178536 250.499132 
L 352.476091 239.59346 
L 354.124868 228.687731 
L 355.773645 223.23485 
L 359.0712 217.781961 
L 362.368755 206.87616 
L 362.368755 195.970335 
L 365.511727 195.970335 
L 365.666309 185.575735 
L 368.963864 185.098177 
L 370.612641 174.501818 
L 372.261418 168.958777 
L 373.755613 163.352722 
L 375.558973 158.164756 
L 378.856528 151.831517 
L 378.856528 139.981753 
L 381.9995 139.981753 
L 382.154082 128.548571 
L 385.451637 127.98445 
L 387.100414 115.846257 
L 388.749191 109.723777 
L 390.243386 114.349214 
L 392.046746 118.58859 
L 395.344301 123.713379 
L 395.344301 133.237277 
L 398.487273 133.237277 
L 398.487273 133.237277 
" style="fill:none;stroke:#ff7f0e;stroke-linecap:square;stroke-width:1.5;"/>
   </g>
   <g id="patch_3">
    <path d="M 57.6 307.584 
L 57.6 41.472 
" style="fill:none;stroke:#000000;stroke-linecap:square;stroke-linejoin:miter;stroke-width:0.8;"/>
   </g>
   <g id="patch_4">
    <path d="M 414.72 307.584 
L 414.72 41.472 
" style="fill:none;stroke:#000000;stroke-linecap:square;stroke-linejoin:miter;stroke-width:0.8;"/>
   </g>
   <g id="patch_5">
    <path d="M 57.6 307.584 
L 414.72 307.584 
" style="fill:none;stroke:#000000;stroke-linecap:square;stroke-linejoin:miter;stroke-width:0.8;"/>
   </g>
   <g id="patch_6">
    <path d="M 57.6 41.472 
L 414.72 41.472 
" style="fill:none;stroke:#000000;stroke-linecap:square;stroke-linejoin:miter;stroke-width:0.8;"/>
   </g>
   <g id="legend_1">
    <g id="patch_7">
     <path d="M 64.6 78.82825 
L 121.346875 78.82825 
Q 123.346875 78.82825 123.346875 76.82825 
L 123.346875 48.472 
Q 123.346875 46.472 121.346875 46.472 
L 64.6 46.472 
Q 62.6 46.472 62.6 48.472 
L 62.6 76.82825 
Q 62.6 78.82825 64.6 78.82825 
z
" style="fill:#ffffff;opacity:0.8;stroke:#cccccc;stroke-linejoin:miter;"/>
    </g>
    <g id="line2d_17">
     <path d="M 66.6 54.570437 
L 86.6 54.570437 
" style="fill:none;stroke:#1f77b4;stroke-linecap:square;stroke-width:1.5;"/>
    </g>
    <g id="line2d_18"/>
    <g id="text_15">
     <!-- uav1 -->
     <g transform="translate(94.6 58.070437)scale(0.1 -0.1)">
      <defs>
       <path d="M 8.5 21.578125 
L 8.5 54.6875 
L 17.484375 54.6875 
L 17.484375 21.921875 
Q 17.484375 14.15625 20.5 10.265625 
Q 23.53125 6.390625 29.59375 6.390625 
Q 36.859375 6.390625 41.078125 11.03125 
Q 45.3125 15.671875 45.3125 23.6875 
L 45.3125 54.6875 
L 54.296875 54.6875 
L 54.296875 0 
L 45.3125 0 
L 45.3125 8.40625 
Q 42.046875 3.421875 37.71875 1 
Q 33.40625 -1.421875 27.6875 -1.421875 
Q 18.265625 -1.421875 13.375 4.4375 
Q 8.5 10.296875 8.5 21.578125 
z
M 31.109375 56 
z
" id="DejaVuSans-117"/>
       <path d="M 34.28125 27.484375 
Q 23.390625 27.484375 19.1875 25 
Q 14.984375 22.515625 14.984375 16.5 
Q 14.984375 11.71875 18.140625 8.90625 
Q 21.296875 6.109375 26.703125 6.109375 
Q 34.1875 6.109375 38.703125 11.40625 
Q 43.21875 16.703125 43.21875 25.484375 
L 43.21875 27.484375 
z
M 52.203125 31.203125 
L 52.203125 0 
L 43.21875 0 
L 43.21875 8.296875 
Q 40.140625 3.328125 35.546875 0.953125 
Q 30.953125 -1.421875 24.3125 -1.421875 
Q 15.921875 -1.421875 10.953125 3.296875 
Q 6 8.015625 6 15.921875 
Q 6 25.140625 12.171875 29.828125 
Q 18.359375 34.515625 30.609375 34.515625 
L 43.21875 34.515625 
L 43.21875 35.40625 
Q 43.21875 41.609375 39.140625 45 
Q 35.0625 48.390625 27.6875 48.390625 
Q 23 48.390625 18.546875 47.265625 
Q 14.109375 46.140625 10.015625 43.890625 
L 10.015625 52.203125 
Q 14.9375 54.109375 19.578125 55.046875 
Q 24.21875 56 28.609375 56 
Q 40.484375 56 46.34375 49.84375 
Q 52.203125 43.703125 52.203125 31.203125 
z
" id="DejaVuSans-97"/>
       <path d="M 2.984375 54.6875 
L 12.5 54.6875 
L 29.59375 8.796875 
L 46.6875 54.6875 
L 56.203125 54.6875 
L 35.6875 0 
L 23.484375 0 
z
" id="DejaVuSans-118"/>
      </defs>
      <use xlink:href="#DejaVuSans-117"/>
      <use x="63.378906" xlink:href="#DejaVuSans-97"/>
      <use x="124.658203" xlink:href="#DejaVuSans-118"/>
      <use x="183.837891" xlink:href="#DejaVuSans-49"/>
     </g>
    </g>
    <g id="line2d_19">
     <path d="M 66.6 69.248562 
L 86.6 69.248562 
" style="fill:none;stroke:#ff7f0e;stroke-linecap:square;stroke-width:1.5;"/>
    </g>
    <g id="line2d_20"/>
    <g id="text_16">
     <!-- uav2 -->
     <g transform="translate(94.6 72.748562)scale(0.1 -0.1)">
      <use xlink:href="#DejaVuSans-117"/>
      <use x="63.378906" xlink:href="#DejaVuSans-97"/>
      <use x="124.658203" xlink:href="#DejaVuSans-118"/>
      <use x="183.837891" xlink:href="#DejaVuSans-50"/>
     </g>
    </g>
   </g>
  </g>
 </g>
 <defs>
  <clipPath id="p42c22817fd">
   <rect height="266.112" width="357.12" x="57.6" y="41.472"/>
  </clipPath>
 </defs>
</svg>
