<?xml version="1.0" encoding="utf-8" standalone="no"?>
<!DOCTYPE svg PUBLIC "-//W3C//DTD SVG 1.1//EN"
  "http://www.w3.org/Graphics/SVG/1.1/DTD/svg11.dtd">
<!-- Created with matplotlib (https://matplotlib.org/) -->
<svg height="345.6pt" version="1.1" viewBox="0 0 460.8 345.6" width="460.8pt" xmlns="http://www.w3.org/2000/svg" xmlns:xlink="http://www.w3.org/1999/xlink">
 <metadata>
  <rdf:RDF xmlns:cc="http://creativecommons.org/ns#" xmlns:dc="http://purl.org/dc/elements/1.1/" xmlns:rdf="http://www.w3.org/1999/02/22-rdf-syntax-ns#">
   <cc:Work>
    <dc:type rdf:resource="http://purl.org/dc/dcmitype/StillImage"/>
    <dc:date>2021-07-22T15:42:43.688660</dc:date>
    <dc:format>image/svg+xml</dc:format>
    <dc:creator>
     <cc:Agent>
      <dc:title>Matplotlib v3.3.4, https://matplotlib.org/</dc:title>
     </cc:Agent>
    </dc:creator>
   </cc:Work>
  </rdf:RDF>
 </metadata>
 <defs>
  <style type="text/css">*{stroke-linecap:butt;stroke-linejoin:round;}</style>
 </defs>
 <g id="figure_1">
  <g id="patch_1">
   <path d="M 0 345.6 
L 460.8 345.6 
L 460.8 0 
L 0 0 
z
" style="fill:#ffffff;"/>
  </g>
  <g id="axes_1">
   <g id="patch_2">
    <path d="M 57.6 307.584 
L 414.72 307.584 
L 414.72 41.472 
L 57.6 41.472 
z
" style="fill:#ffffff;"/>
   </g>
   <g id="matplotlib.axis_1">
    <g id="xtick_1">
     <g id="line2d_1">
      <defs>
       <path d="M 0 0 
L 0 3.5 
" id="m1fab005ad5" style="stroke:#000000;stroke-width:0.8;"/>
      </defs>
      <g>
       <use style="stroke:#000000;stroke-width:0.8;" x="116.878626" xlink:href="#m1fab005ad5" y="307.584"/>
      </g>
     </g>
     <g id="text_1">
      <!-- 10 -->
      <g transform="translate(110.516126 322.182437)scale(0.1 -0.1)">
       <defs>
        <path d="M 12.40625 8.296875 
L 28.515625 8.296875 
L 28.515625 63.921875 
L 10.984375 60.40625 
L 10.984375 69.390625 
L 28.421875 72.90625 
L 38.28125 72.90625 
L 38.28125 8.296875 
L 54.390625 8.296875 
L 54.390625 0 
L 12.40625 0 
z
" id="DejaVuSans-49"/>
        <path d="M 31.78125 66.40625 
Q 24.171875 66.40625 20.328125 58.90625 
Q 16.5 51.421875 16.5 36.375 
Q 16.5 21.390625 20.328125 13.890625 
Q 24.171875 6.390625 31.78125 6.390625 
Q 39.453125 6.390625 43.28125 13.890625 
Q 47.125 21.390625 47.125 36.375 
Q 47.125 51.421875 43.28125 58.90625 
Q 39.453125 66.40625 31.78125 66.40625 
z
M 31.78125 74.21875 
Q 44.046875 74.21875 50.515625 64.515625 
Q 56.984375 54.828125 56.984375 36.375 
Q 56.984375 17.96875 50.515625 8.265625 
Q 44.046875 -1.421875 31.78125 -1.421875 
Q 19.53125 -1.421875 13.0625 8.265625 
Q 6.59375 17.96875 6.59375 36.375 
Q 6.59375 54.828125 13.0625 64.515625 
Q 19.53125 74.21875 31.78125 74.21875 
z
" id="DejaVuSans-48"/>
       </defs>
       <use xlink:href="#DejaVuSans-49"/>
       <use x="63.623047" xlink:href="#DejaVuSans-48"/>
      </g>
     </g>
    </g>
    <g id="xtick_2">
     <g id="line2d_2">
      <g>
       <use style="stroke:#000000;stroke-width:0.8;" x="186.655668" xlink:href="#m1fab005ad5" y="307.584"/>
      </g>
     </g>
     <g id="text_2">
      <!-- 20 -->
      <g transform="translate(180.293168 322.182437)scale(0.1 -0.1)">
       <defs>
        <path d="M 19.1875 8.296875 
L 53.609375 8.296875 
L 53.609375 0 
L 7.328125 0 
L 7.328125 8.296875 
Q 12.9375 14.109375 22.625 23.890625 
Q 32.328125 33.6875 34.8125 36.53125 
Q 39.546875 41.84375 41.421875 45.53125 
Q 43.3125 49.21875 43.3125 52.78125 
Q 43.3125 58.59375 39.234375 62.25 
Q 35.15625 65.921875 28.609375 65.921875 
Q 23.96875 65.921875 18.8125 64.3125 
Q 13.671875 62.703125 7.8125 59.421875 
L 7.8125 69.390625 
Q 13.765625 71.78125 18.9375 73 
Q 24.125 74.21875 28.421875 74.21875 
Q 39.75 74.21875 46.484375 68.546875 
Q 53.21875 62.890625 53.21875 53.421875 
Q 53.21875 48.921875 51.53125 44.890625 
Q 49.859375 40.875 45.40625 35.40625 
Q 44.1875 33.984375 37.640625 27.21875 
Q 31.109375 20.453125 19.1875 8.296875 
z
" id="DejaVuSans-50"/>
       </defs>
       <use xlink:href="#DejaVuSans-50"/>
       <use x="63.623047" xlink:href="#DejaVuSans-48"/>
      </g>
     </g>
    </g>
    <g id="xtick_3">
     <g id="line2d_3">
      <g>
       <use style="stroke:#000000;stroke-width:0.8;" x="256.43271" xlink:href="#m1fab005ad5" y="307.584"/>
      </g>
     </g>
     <g id="text_3">
      <!-- 30 -->
      <g transform="translate(250.07021 322.182437)scale(0.1 -0.1)">
       <defs>
        <path d="M 40.578125 39.3125 
Q 47.65625 37.796875 51.625 33 
Q 55.609375 28.21875 55.609375 21.1875 
Q 55.609375 10.40625 48.1875 4.484375 
Q 40.765625 -1.421875 27.09375 -1.421875 
Q 22.515625 -1.421875 17.65625 -0.515625 
Q 12.796875 0.390625 7.625 2.203125 
L 7.625 11.71875 
Q 11.71875 9.328125 16.59375 8.109375 
Q 21.484375 6.890625 26.8125 6.890625 
Q 36.078125 6.890625 40.9375 10.546875 
Q 45.796875 14.203125 45.796875 21.1875 
Q 45.796875 27.640625 41.28125 31.265625 
Q 36.765625 34.90625 28.71875 34.90625 
L 20.21875 34.90625 
L 20.21875 43.015625 
L 29.109375 43.015625 
Q 36.375 43.015625 40.234375 45.921875 
Q 44.09375 48.828125 44.09375 54.296875 
Q 44.09375 59.90625 40.109375 62.90625 
Q 36.140625 65.921875 28.71875 65.921875 
Q 24.65625 65.921875 20.015625 65.03125 
Q 15.375 64.15625 9.8125 62.3125 
L 9.8125 71.09375 
Q 15.4375 72.65625 20.34375 73.4375 
Q 25.25 74.21875 29.59375 74.21875 
Q 40.828125 74.21875 47.359375 69.109375 
Q 53.90625 64.015625 53.90625 55.328125 
Q 53.90625 49.265625 50.4375 45.09375 
Q 46.96875 40.921875 40.578125 39.3125 
z
" id="DejaVuSans-51"/>
       </defs>
       <use xlink:href="#DejaVuSans-51"/>
       <use x="63.623047" xlink:href="#DejaVuSans-48"/>
      </g>
     </g>
    </g>
    <g id="xtick_4">
     <g id="line2d_4">
      <g>
       <use style="stroke:#000000;stroke-width:0.8;" x="326.209752" xlink:href="#m1fab005ad5" y="307.584"/>
      </g>
     </g>
     <g id="text_4">
      <!-- 40 -->
      <g transform="translate(319.847252 322.182437)scale(0.1 -0.1)">
       <defs>
        <path d="M 37.796875 64.3125 
L 12.890625 25.390625 
L 37.796875 25.390625 
z
M 35.203125 72.90625 
L 47.609375 72.90625 
L 47.609375 25.390625 
L 58.015625 25.390625 
L 58.015625 17.1875 
L 47.609375 17.1875 
L 47.609375 0 
L 37.796875 0 
L 37.796875 17.1875 
L 4.890625 17.1875 
L 4.890625 26.703125 
z
" id="DejaVuSans-52"/>
       </defs>
       <use xlink:href="#DejaVuSans-52"/>
       <use x="63.623047" xlink:href="#DejaVuSans-48"/>
      </g>
     </g>
    </g>
    <g id="xtick_5">
     <g id="line2d_5">
      <g>
       <use style="stroke:#000000;stroke-width:0.8;" x="395.986795" xlink:href="#m1fab005ad5" y="307.584"/>
      </g>
     </g>
     <g id="text_5">
      <!-- 50 -->
      <g transform="translate(389.624295 322.182437)scale(0.1 -0.1)">
       <defs>
        <path d="M 10.796875 72.90625 
L 49.515625 72.90625 
L 49.515625 64.59375 
L 19.828125 64.59375 
L 19.828125 46.734375 
Q 21.96875 47.46875 24.109375 47.828125 
Q 26.265625 48.1875 28.421875 48.1875 
Q 40.625 48.1875 47.75 41.5 
Q 54.890625 34.8125 54.890625 23.390625 
Q 54.890625 11.625 47.5625 5.09375 
Q 40.234375 -1.421875 26.90625 -1.421875 
Q 22.3125 -1.421875 17.546875 -0.640625 
Q 12.796875 0.140625 7.71875 1.703125 
L 7.71875 11.625 
Q 12.109375 9.234375 16.796875 8.0625 
Q 21.484375 6.890625 26.703125 6.890625 
Q 35.15625 6.890625 40.078125 11.328125 
Q 45.015625 15.765625 45.015625 23.390625 
Q 45.015625 31 40.078125 35.4375 
Q 35.15625 39.890625 26.703125 39.890625 
Q 22.75 39.890625 18.8125 39.015625 
Q 14.890625 38.140625 10.796875 36.28125 
z
" id="DejaVuSans-53"/>
       </defs>
       <use xlink:href="#DejaVuSans-53"/>
       <use x="63.623047" xlink:href="#DejaVuSans-48"/>
      </g>
     </g>
    </g>
   </g>
   <g id="matplotlib.axis_2">
    <g id="ytick_1">
     <g id="line2d_6">
      <defs>
       <path d="M 0 0 
L -3.5 0 
" id="m99726e1a12" style="stroke:#000000;stroke-width:0.8;"/>
      </defs>
      <g>
       <use style="stroke:#000000;stroke-width:0.8;" x="57.6" xlink:href="#m99726e1a12" y="254.685161"/>
      </g>
     </g>
     <g id="text_6">
      <!-- 10 -->
      <g transform="translate(37.875 258.48438)scale(0.1 -0.1)">
       <use xlink:href="#DejaVuSans-49"/>
       <use x="63.623047" xlink:href="#DejaVuSans-48"/>
      </g>
     </g>
    </g>
    <g id="ytick_2">
     <g id="line2d_7">
      <g>
       <use style="stroke:#000000;stroke-width:0.8;" x="57.6" xlink:href="#m99726e1a12" y="196.743128"/>
      </g>
     </g>
     <g id="text_7">
      <!-- 20 -->
      <g transform="translate(37.875 200.542347)scale(0.1 -0.1)">
       <use xlink:href="#DejaVuSans-50"/>
       <use x="63.623047" xlink:href="#DejaVuSans-48"/>
      </g>
     </g>
    </g>
    <g id="ytick_3">
     <g id="line2d_8">
      <g>
       <use style="stroke:#000000;stroke-width:0.8;" x="57.6" xlink:href="#m99726e1a12" y="138.801095"/>
      </g>
     </g>
     <g id="text_8">
      <!-- 30 -->
      <g transform="translate(37.875 142.600314)scale(0.1 -0.1)">
       <use xlink:href="#DejaVuSans-51"/>
       <use x="63.623047" xlink:href="#DejaVuSans-48"/>
      </g>
     </g>
    </g>
    <g id="ytick_4">
     <g id="line2d_9">
      <g>
       <use style="stroke:#000000;stroke-width:0.8;" x="57.6" xlink:href="#m99726e1a12" y="80.859062"/>
      </g>
     </g>
     <g id="text_9">
      <!-- 40 -->
      <g transform="translate(37.875 84.65828)scale(0.1 -0.1)">
       <use xlink:href="#DejaVuSans-52"/>
       <use x="63.623047" xlink:href="#DejaVuSans-48"/>
      </g>
     </g>
    </g>
   </g>
   <g id="line2d_10">
    <path clip-path="url(#p7faf594751)" d="M 73.832727 69.427045 
L 74.297908 77.162718 
L 75.693448 109.26868 
L 77.009177 132.162715 
L 78.404718 165.567032 
L 78.868217 176.279463 
L 78.869898 186.959976 
L 79.335078 186.998744 
L 83.282264 250.217886 
L 84.405308 264.692519 
L 84.870489 266.03868 
L 85.335669 266.967198 
L 85.800849 267.54179 
L 86.26603 267.824642 
L 86.73121 267.864871 
L 87.19639 267.669914 
L 87.590347 267.2428 
L 87.66157 266.704229 
L 88.126751 266.589991 
L 89.836041 263.382554 
L 93.243734 260.876159 
L 96.312477 218.430541 
L 97.992177 214.956201 
L 98.845819 210.4125 
L 99.2618 207.550005 
L 101.965864 206.039149 
L 103.461023 190.189718 
L 104.359221 175.982524 
L 104.875991 178.585239 
L 105.034608 180.079437 
L 110.260579 180.072517 
L 110.687994 190.773621 
L 112.371937 190.651345 
L 112.96621 191.487803 
L 113.756738 191.309359 
L 117.300031 191.007444 
L 119.410125 160.850075 
L 123.189781 168.831331 
L 124.570239 189.16689 
L 125.100999 194.068853 
L 128.132255 195.748866 
L 129.59065 193.093445 
L 130.233854 199.822626 
L 136.854385 202.544295 
L 140.525688 190.012936 
L 141.219528 213.041109 
L 145.576516 216.495415 
L 147.029058 225.272779 
L 148.08313 239.474197 
L 149.451759 246.410671 
L 149.89739 248.329338 
L 154.298646 249.68307 
L 158.050454 233.587833 
L 161.046112 245.580088 
L 163.020776 251.791137 
L 165.027484 253.553083 
L 165.90102 254.649523 
L 166.368343 253.902827 
L 166.833523 253.420138 
L 168.229064 242.294811 
L 169.624605 232.6115 
L 171.020146 224.389381 
L 171.485326 221.970742 
L 171.950506 218.522068 
L 172.415686 217.597838 
L 173.811227 212.162564 
L 174.741588 209.186632 
L 175.399452 207.417826 
L 176.329813 201.313263 
L 176.794993 199.566456 
L 177.260173 199.29777 
L 177.918037 199.572494 
L 178.383218 201.044852 
L 178.848398 199.093349 
L 179.506262 200.601879 
L 179.971443 202.574066 
L 180.436623 203.847466 
L 180.465037 205.014764 
L 184.802094 205.082518 
L 189.187167 210.057439 
L 191.388759 203.646981 
L 192.327213 200.233925 
L 193.524224 198.058259 
L 194.380539 197.211141 
L 197.909297 195.589814 
L 199.540996 191.673276 
L 200.119952 191.75653 
L 202.246355 191.483693 
L 203.188442 190.138556 
L 206.631428 190.800939 
L 224.663091 81.120716 
L 225.128271 83.69238 
L 226.058632 104.596582 
L 226.716496 115.00615 
L 228.032225 143.782637 
L 228.412746 158.103599 
L 228.497405 166.674911 
L 229.155269 168.579382 
L 233.102455 252.717193 
L 233.760319 265.81587 
L 234.225499 278.080391 
L 236.744085 274.414503 
L 237.134876 275.265048 
L 237.209265 274.58637 
L 237.674445 274.444732 
L 238.33231 273.005357 
L 238.79749 271.185228 
L 243.162961 265.657935 
L 245.857006 211.303209 
L 249.180469 180.382323 
L 250.667523 202.141905 
L 251.286403 199.137177 
L 251.885091 197.582894 
L 254.579136 196.185775 
L 255.60895 194.655546 
L 255.987951 193.483421 
L 260.607222 192.926614 
L 262.371237 188.064036 
L 263.301267 190.418788 
L 269.329352 180.759256 
L 271.634374 102.567166 
L 272.023397 80.051083 
L 278.051482 82.894437 
L 280.745527 133.423399 
L 286.024694 157.451171 
L 286.773613 203.234496 
L 289.467658 192.789155 
L 292.482639 210.299051 
L 294.589925 229.222922 
L 295.495743 238.999066 
L 296.815183 242.391812 
L 298.189788 247.548273 
L 301.163218 228.824001 
L 304.217873 253.054117 
L 305.950167 254.061052 
L 306.911918 257.258864 
L 308.120706 257.922193 
L 312.940003 258.740309 
L 342.112155 150.177212 
L 347.060451 175.820707 
L 347.100101 211.947246 
L 350.232128 212.130713 
L 350.834286 229.309383 
L 352.866526 231.785285 
L 354.379208 241.289797 
L 355.533727 246.988893 
L 355.822231 250.712086 
L 356.65371 251.446697 
L 357.306369 253.773975 
L 359.556416 255.295975 
L 363.857872 224.849485 
L 364.544361 243.0598 
L 367.838294 243.732397 
L 368.278546 249.994882 
L 370.812668 249.846295 
L 372.798257 251.219054 
L 373.266492 249.799353 
L 375.53773 244.481815 
L 377.000677 244.379343 
L 381.988622 241.303101 
L 383.423002 166.256503 
L 385.722807 167.304828 
L 386.927782 169.625949 
L 387.824419 169.845422 
L 390.710752 172.339448 
L 394.444937 175.031364 
L 398.487273 183.496716 
L 398.487273 183.496716 
" style="fill:none;stroke:#1f77b4;stroke-linecap:square;stroke-width:1.5;"/>
   </g>
   <g id="line2d_11">
    <path clip-path="url(#p7faf594751)" d="M 78.869898 201.838686 
L 79.335078 201.830125 
L 79.992943 199.551927 
L 83.940128 182.449199 
L 84.870489 175.527399 
L 85.800849 170.738578 
L 86.26603 169.08452 
L 87.19639 166.785582 
L 87.590347 165.895741 
L 87.66157 165.277312 
L 88.126751 165.178718 
L 88.591931 164.634078 
L 89.057111 164.261189 
L 89.836041 164.059219 
L 93.243734 164.100767 
L 96.312477 183.057757 
L 97.992177 198.447963 
L 99.2618 182.791549 
L 101.965864 180.119326 
L 103.461023 211.036966 
L 104.359221 222.86249 
L 104.875991 219.63625 
L 105.034608 217.714177 
L 110.260579 216.584855 
L 110.687994 189.948771 
L 112.371937 187.155001 
L 112.96621 177.095363 
L 113.756738 173.362357 
L 166.368343 131.946203 
L 167.298703 150.906832 
L 171.485326 225.680711 
L 171.950506 238.047119 
L 172.415686 241.536542 
L 173.811227 263.784848 
L 174.741588 276.292875 
L 175.399452 281.194397 
L 175.864632 281.460561 
L 176.329813 287.453125 
L 176.794993 291.976039 
L 177.260173 294.780943 
L 177.918037 295.488 
L 178.383218 293.439817 
L 178.848398 288.316954 
L 179.506262 282.620039 
L 180.436623 270.066345 
L 180.465037 264.436902 
L 184.802094 264.083059 
L 189.187167 210.066791 
L 191.388759 204.807544 
L 192.327213 200.680271 
L 193.524224 198.20817 
L 194.380539 197.609887 
L 197.909297 195.714117 
L 199.540996 192.459308 
L 200.119952 192.008755 
L 202.246355 191.545854 
L 203.188442 190.570505 
L 206.631428 190.925245 
L 224.663091 208.636299 
L 225.128271 212.040065 
L 226.058632 200.755009 
L 226.716496 194.92938 
L 228.032225 178.160822 
L 228.412746 169.775221 
L 228.497405 164.964029 
L 229.155269 163.895735 
L 231.786726 132.087913 
L 234.225499 105.259476 
L 236.08622 92.03294 
L 236.744085 89.291788 
L 237.134876 85.895754 
L 237.209265 83.485572 
L 237.674445 83.079613 
L 238.168269 80.688581 
L 238.33231 78.907616 
L 238.79749 79.323616 
L 243.162961 80.537834 
L 245.857006 94.313464 
L 249.180469 132.871416 
L 250.667523 109.504493 
L 251.286403 106.172936 
L 251.885091 104.679488 
L 252.373281 106.57527 
L 254.579136 105.243463 
L 255.60895 112.316224 
L 255.987951 108.555077 
L 260.607222 107.131585 
L 262.371237 121.903243 
L 263.301267 112.433679 
L 269.329352 125.095477 
L 271.634374 193.314473 
L 272.023397 215.936736 
L 278.051482 212.021126 
L 280.745527 163.923 
L 286.024694 144.661176 
L 286.773613 114.174228 
L 289.467658 124.608869 
L 292.482639 107.732284 
L 294.589925 90.133094 
L 295.495743 80.0455 
L 296.815183 76.295631 
L 298.189788 70.782466 
L 301.163218 91.563902 
L 303.504971 75.969449 
L 304.217873 69.349623 
L 305.950167 68.076689 
L 306.911918 64.309103 
L 308.120706 63.080521 
L 312.940003 53.568 
L 342.112155 187.349386 
L 347.060451 191.123346 
L 347.100101 202.442275 
L 350.232128 202.354898 
L 350.834286 199.084427 
L 352.866526 197.72624 
L 354.379208 194.307659 
L 355.533727 191.133039 
L 355.822231 188.594966 
L 356.65371 187.920512 
L 357.306369 186.084547 
L 359.556416 184.617791 
L 363.857872 216.996122 
L 364.544361 215.695718 
L 367.838294 214.091367 
L 368.278546 207.439529 
L 370.812668 206.44389 
L 372.798257 200.504848 
L 373.266492 195.455391 
L 375.53773 203.757324 
L 377.000677 196.927437 
L 381.988622 192.230974 
L 383.423002 245.084361 
L 385.722807 253.010399 
L 386.927782 237.789043 
L 387.824419 246.532677 
L 390.710752 244.267875 
L 394.444937 224.653062 
L 398.487273 204.232435 
L 398.487273 204.232435 
" style="fill:none;stroke:#ff7f0e;stroke-linecap:square;stroke-width:1.5;"/>
   </g>
   <g id="patch_3">
    <path d="M 57.6 307.584 
L 57.6 41.472 
" style="fill:none;stroke:#000000;stroke-linecap:square;stroke-linejoin:miter;stroke-width:0.8;"/>
   </g>
   <g id="patch_4">
    <path d="M 414.72 307.584 
L 414.72 41.472 
" style="fill:none;stroke:#000000;stroke-linecap:square;stroke-linejoin:miter;stroke-width:0.8;"/>
   </g>
   <g id="patch_5">
    <path d="M 57.6 307.584 
L 414.72 307.584 
" style="fill:none;stroke:#000000;stroke-linecap:square;stroke-linejoin:miter;stroke-width:0.8;"/>
   </g>
   <g id="patch_6">
    <path d="M 57.6 41.472 
L 414.72 41.472 
" style="fill:none;stroke:#000000;stroke-linecap:square;stroke-linejoin:miter;stroke-width:0.8;"/>
   </g>
   <g id="legend_1">
    <g id="patch_7">
     <path d="M 350.973125 78.82825 
L 407.72 78.82825 
Q 409.72 78.82825 409.72 76.82825 
L 409.72 48.472 
Q 409.72 46.472 407.72 46.472 
L 350.973125 46.472 
Q 348.973125 46.472 348.973125 48.472 
L 348.973125 76.82825 
Q 348.973125 78.82825 350.973125 78.82825 
z
" style="fill:#ffffff;opacity:0.8;stroke:#cccccc;stroke-linejoin:miter;"/>
    </g>
    <g id="line2d_12">
     <path d="M 352.973125 54.570437 
L 372.973125 54.570437 
" style="fill:none;stroke:#1f77b4;stroke-linecap:square;stroke-width:1.5;"/>
    </g>
    <g id="line2d_13"/>
    <g id="text_10">
     <!-- uav1 -->
     <g transform="translate(380.973125 58.070437)scale(0.1 -0.1)">
      <defs>
       <path d="M 8.5 21.578125 
L 8.5 54.6875 
L 17.484375 54.6875 
L 17.484375 21.921875 
Q 17.484375 14.15625 20.5 10.265625 
Q 23.53125 6.390625 29.59375 6.390625 
Q 36.859375 6.390625 41.078125 11.03125 
Q 45.3125 15.671875 45.3125 23.6875 
L 45.3125 54.6875 
L 54.296875 54.6875 
L 54.296875 0 
L 45.3125 0 
L 45.3125 8.40625 
Q 42.046875 3.421875 37.71875 1 
Q 33.40625 -1.421875 27.6875 -1.421875 
Q 18.265625 -1.421875 13.375 4.4375 
Q 8.5 10.296875 8.5 21.578125 
z
M 31.109375 56 
z
" id="DejaVuSans-117"/>
       <path d="M 34.28125 27.484375 
Q 23.390625 27.484375 19.1875 25 
Q 14.984375 22.515625 14.984375 16.5 
Q 14.984375 11.71875 18.140625 8.90625 
Q 21.296875 6.109375 26.703125 6.109375 
Q 34.1875 6.109375 38.703125 11.40625 
Q 43.21875 16.703125 43.21875 25.484375 
L 43.21875 27.484375 
z
M 52.203125 31.203125 
L 52.203125 0 
L 43.21875 0 
L 43.21875 8.296875 
Q 40.140625 3.328125 35.546875 0.953125 
Q 30.953125 -1.421875 24.3125 -1.421875 
Q 15.921875 -1.421875 10.953125 3.296875 
Q 6 8.015625 6 15.921875 
Q 6 25.140625 12.171875 29.828125 
Q 18.359375 34.515625 30.609375 34.515625 
L 43.21875 34.515625 
L 43.21875 35.40625 
Q 43.21875 41.609375 39.140625 45 
Q 35.0625 48.390625 27.6875 48.390625 
Q 23 48.390625 18.546875 47.265625 
Q 14.109375 46.140625 10.015625 43.890625 
L 10.015625 52.203125 
Q 14.9375 54.109375 19.578125 55.046875 
Q 24.21875 56 28.609375 56 
Q 40.484375 56 46.34375 49.84375 
Q 52.203125 43.703125 52.203125 31.203125 
z
" id="DejaVuSans-97"/>
       <path d="M 2.984375 54.6875 
L 12.5 54.6875 
L 29.59375 8.796875 
L 46.6875 54.6875 
L 56.203125 54.6875 
L 35.6875 0 
L 23.484375 0 
z
" id="DejaVuSans-118"/>
      </defs>
      <use xlink:href="#DejaVuSans-117"/>
      <use x="63.378906" xlink:href="#DejaVuSans-97"/>
      <use x="124.658203" xlink:href="#DejaVuSans-118"/>
      <use x="183.837891" xlink:href="#DejaVuSans-49"/>
     </g>
    </g>
    <g id="line2d_14">
     <path d="M 352.973125 69.248562 
L 372.973125 69.248562 
" style="fill:none;stroke:#ff7f0e;stroke-linecap:square;stroke-width:1.5;"/>
    </g>
    <g id="line2d_15"/>
    <g id="text_11">
     <!-- uav2 -->
     <g transform="translate(380.973125 72.748562)scale(0.1 -0.1)">
      <use xlink:href="#DejaVuSans-117"/>
      <use x="63.378906" xlink:href="#DejaVuSans-97"/>
      <use x="124.658203" xlink:href="#DejaVuSans-118"/>
      <use x="183.837891" xlink:href="#DejaVuSans-50"/>
     </g>
    </g>
   </g>
  </g>
 </g>
 <defs>
  <clipPath id="p7faf594751">
   <rect height="266.112" width="357.12" x="57.6" y="41.472"/>
  </clipPath>
 </defs>
</svg>
